<?xml version="1.0" encoding="utf-8"?>
<!-- Generator: Adobe Illustrator 23.1.0, SVG Export Plug-In . SVG Version: 6.00 Build 0)  -->
<svg version="1.1" id="Слой_1" xmlns="http://www.w3.org/2000/svg" xmlns:xlink="http://www.w3.org/1999/xlink" x="0px" y="0px"
	 viewBox="0 0 200 200" style="enable-background:new 0 0 200 200;" xml:space="preserve">
<style type="text/css">
	.st0{fill-rule:evenodd;clip-rule:evenodd;fill:#BF8294;}
	.st1{fill:#BF8294;}
</style>
<g>
	<g>
		<g>
			<g>
				<path class="st0" d="M123.4,26.5c1.2,0.4,2.1,1.1,2.8,2c0.6-2.5,3.1-2,3,0.8c1.7,0.9,3.1,1.8,3.8,3.7c1.7,4.5,0.1,11.1-0.5,15.5
					c-0.2,1.9-0.1,3.7-0.2,5.6c-0.1,2.3-0.9,4.3-1,6.4c-0.2,1.8,0.1,3.4,0.3,5.1c0.2,1.6,0.3,3.2,0.5,4.9c0.3,3.3,0.2,6.7,0.6,10.1
					c0.1,1,0.6,2.2,0.9,3.2c0.3,1,0.7,2.1,0.9,3.1c1.6,6.7,1,15.3,3.6,20.9c0.3-8.4,3.4-15.1,5.9-21.6c0.6-1.7,1.1-3.5,1.4-5.4
					c1.1-6.6,1.4-14.7,7.2-16.6c0.6-0.9,1-2.1,2.7-2c0.6,0.6,0.3,1.6,0.3,2.3c0,2.4,0.2,5.2,0.1,7.5c0,0.7-0.2,1.4-0.2,2.1
					c0,1.7,0.3,3.2,0.3,4.8c0,2.3-0.3,4.6-0.3,6.8c-0.2,6.6-2.3,12.3-2.3,19.1c0,5.1,0.1,9.5-0.2,14c-0.3,4.3-1.6,7.9-2.8,11.5
					c-2.3,7-5.4,13.4-8.7,19.9c-2.8,5.6-5.1,11.3-5.8,19.2c-0.1,1,0,2.1-0.3,3.1c-0.4,0.6-1.3,0.6-2,0.7c-5,1-11.7-0.1-15.9-1.3
					c-5.3-1.5-10.4-3.6-13.8-6.6c-1.9-10.5-3.9-20.6-7.2-29.9c-1.6-4.6-3.6-8.9-4.6-13.9c-0.5-2.5-0.9-5.3-1-8.2
					c-0.2-3.8-0.7-7.6-0.3-11.7c0.2-2.1,0.7-4.2,0.8-6.5c0.3-4.5,0.3-9.3,0.3-14.1c0-2.3-0.2-4.6,0-7c0.4-4.2,1.3-8,2.2-12.3
					c0.4-1.9,0.6-3.7,1.3-5.9c0.5-1.7,1.4-4.7,2.5-4.6c0.9,0.1,0.9,0.9,1,2c1.1,0.1,1.9,0.6,2.4,1.4c0.7-3.1,1.5-7.7,2.3-11.2
					c0.3-1.2,0.7-2.4,0.9-3.5c0.1-0.5,0-1.2,0.1-1.7c0.1-0.7,0.6-2.3,1-3.4c0.4-0.8,1.2-2.4,1.9-2.4c0.8,0,1,0.8,0.9,1.9
					c3,0.7,4.1,3.7,3.8,7.9c-0.2,2.3-1.2,4.7-1.4,7.3c-0.2,2.7-0.2,5.3-0.6,7.9c-0.5,3.1-1.8,5.4-1.5,8.8c0.3,3.8,1.8,7.6,2.1,11.7
					c0-4.4-0.8-10.5-0.1-15.3c0.6-4.4,2.2-8.6,3.4-12.9c1.7-6.2,3-13,5-19.5c0.7-2.2,1.4-4.7,2.7-5.6
					C122.6,24.1,123.5,25.1,123.4,26.5z M119.1,33.8c0.5,0.2,0.9,0.5,1.6,0.5c1-2.3,1.8-5.3,1.5-8.5c0-0.1-0.1-0.1-0.2-0.1
					C120.5,27.9,120,31.1,119.1,33.8z M120.6,78.7c0-0.9-0.1-1.9-0.1-2.8c-0.3-5.3-1.5-10.5-1-16.1c0.2-2.4,1.1-4.9,1.6-7.4
					c1.4-6.5,2.8-12.1,4.1-18.5c0.3-1.3,0.8-2.9,0.7-3.8c-0.2-1.2-1.3-1.8-2.4-2.3c-0.6,3.1-0.8,9.5-4.5,7.2
					c-1.3,4.8-2.4,9.7-3.8,14.7c-1.3,4.9-3.3,9.7-3.6,15c-0.3,6.1,0.9,12.2,0.6,18.3c0,0.7,0.1,1.7-0.7,2.1
					c-0.9-0.1-0.8-1.2-0.9-1.9c-0.8-6-1.9-11.7-2.8-17.3c-0.5-0.1-2.3,1.2-2.8,0c0.1-0.7,1-0.5,1.5-0.7c0.5-0.2,1-0.5,1.2-1
					c-1,0-2.2,0.1-2.1-1c0.6-0.6,1.6,0.6,2.3-0.1c1.4-4.2,1.8-9.4,2.1-14.8c-0.1,0-1.2,0.8-1.5,0c0.3-0.8,1.4-1,1.9-2
					c0.7-1.4,1.1-4.6,0.9-6.7c-0.2-2.1-1.3-3.5-2.8-4.1c-0.2,2.4-0.4,5.3-2.4,5.6c-0.2,0-0.7-0.2-0.7,0.1c-1.3,4.4-1.9,9.1-3,13.8
					c-0.6,2.2-1.1,4.6-1.6,6.8c-0.5,2.4-1.1,4.8-1.3,7.2c-0.2,4,0.7,8,1.2,12.1c0.4,2.8,0.7,6.3,0.6,9.3c0,0.8,0.3,2.2-0.8,2.6
					c-0.8-0.6-0.3-1.5-0.2-2.3c0.4-6.9-2.2-14.8-1.7-22c0.2-3,1-6,1.6-8.7c0.5-2.1,1.5-4.9-1.2-5.3c-0.3,2.5-0.4,5.2-2.2,6.1
					c-0.6,0.1-0.9-0.2-1.4-0.2c-0.7,4.9-2.3,10-2.6,15.3c-0.1,1.8,0.1,3.8,0.1,5.9c0,5.9,0.1,12-0.6,17.4c-0.2,1.8-0.7,3.6-0.7,5.3
					c0,3,0.3,5.9,0.5,8.7c0.3,6.2,1.5,10.8,3.1,15.4c0.8,2.3,1.6,4.6,2.4,6.8c3.3,9.2,5.4,19,7.2,29.8c3.4,2.7,8,4.7,13.1,6
					c4.2,1.1,9.8,2.2,14.8,1.5c0.6-0.1,1.5-0.2,1.9-0.6c0.3-9.7,3.5-17,7-24c3.3-6.5,6.3-13.1,8.6-20.4c1.2-3.9,2.1-7.8,2.1-12.4
					c0-4.5-0.1-9.3,0.3-14.1c0.4-4.2,1.5-8.3,2-12.5c0.2-2.2,0.2-4.5,0.3-6.8c0.1-2.3,0.1-4.6-0.1-7c-0.9-0.6-1.8-1-2.2-2.1
					c-0.8-2.1,0.1-5.2,0-7.3c-2.3,1.3-3.3,3.2-4.2,6c-1,3.4-1.1,7.2-1.9,10.9c-0.4,1.7-0.9,3.4-1.5,4.9c-2.5,6.4-5.2,12.4-5.6,19.9
					c-0.1,1.2,0.4,2.8-0.6,3.6c-0.9-0.5-1.4-1.7-1.7-2.7c-2.1-5.5-2.1-12.8-3.1-19.4c-0.4-2.5-1.6-4.7-2.1-7
					c-0.6-2.9-0.2-6.4-0.5-9.4c-0.2-2.9-0.7-5.6-1-8.2c-0.5,0.9-0.8,2.5-2,2.3c-0.1-1.6,1.5-2.5,1.5-4.3c-0.3-0.2-1.9,2.1-2.7,0.9
					c-0.1-0.7,0.6-0.8,0.9-1c1.9-1.3,2.4-2.5,2.9-5.2c0.4-2.4,0.3-4.9,0.5-7.5c-0.4-0.1-0.9,1.3-1.6,0.6c0.1-1.1,1.1-1.5,1.6-2.5
					c0.7-1.2,0.8-3.1,1-5c0.5-5,0.3-10.2-3-11.5c0.3,3.2,0.3,7.1-3.7,6c-1.3,5.6-2.8,11.9-4.1,17.5c-0.5,2-1,4.1-1.2,6
					c-0.3,3.5,0.2,7.2,0.6,10.7c0.3,2.5,0.5,5.2,0.6,7.8c0,0.6,0.6,2-0.5,2.2C120.4,80.4,120.6,79.4,120.6,78.7z M125.9,35.7
					c4,1.6,2.2-5.7,1.9-7.8c-0.1,0-0.2,0-0.3,0C126.7,30.2,126.5,33.1,125.9,35.7z M105.4,39.9c0.9,0.2,1.3-0.7,1.5-1.4
					c0.4-1.3,0.3-2.9,0.3-4.3c0-0.1,0-0.1-0.1-0.1C106.4,35.8,105.6,37.6,105.4,39.9z M95.5,59.3c1.4,0.5,1.6-1.2,1.9-2.2
					c0.3-1.3,0.3-2.8,0.3-4.1c-0.2,0-0.1-0.2-0.2-0.2C96.7,54.9,95.7,56.8,95.5,59.3z M153.4,72.3c0.2,0.5,0.7,0.8,1.2,0.9
					c-0.1-3.3,0.2-6.9-0.1-10C153.3,64.5,152.6,70.6,153.4,72.3z"/>
				<g>
					<g>
						<g>
							<path class="st0" d="M153.1,89.7c-1-0.1-1.6-0.5-2.2-0.9C150.9,87.4,153.7,88.6,153.1,89.7z"/>
							<path class="st0" d="M152.8,91.6c-0.6,0.5-1.3-0.2-1.9-0.5c-0.6-0.3-1.3-0.6-1.7-1c0-0.2,0.1-0.2,0.1-0.5
								c0.6-0.4,1.5,0.3,2.2,0.7C152.1,90.6,153.1,90.8,152.8,91.6z"/>
						</g>
						<g>
							<g>
								<path class="st0" d="M123.6,59.8c-0.3,1.1-1.8,0.2-2.3-0.2C121.5,58.4,123.3,59.3,123.6,59.8z"/>
								<path class="st0" d="M124.3,62.2c-0.6,1.1-2.2-0.2-2.9-0.5c-0.1-0.4,0.1-0.6,0.2-0.8C122.6,61.3,123.8,61.5,124.3,62.2z"/>
							</g>
							<g>
								<path class="st0" d="M119.3,47.6c0.1,0.4-0.1,0.5-0.2,0.7c-1.1-0.2-1.9-0.7-2.8-1.2c-0.1-0.4,0.1-0.6,0.2-0.8
									C117.6,46.6,118.6,47,119.3,47.6z"/>
								<g>
									<path class="st0" d="M115,63c-0.9,0.5-2-0.4-2.7-0.8c-0.1-0.4,0.1-0.5,0.2-0.7C113.5,61.9,114.9,61.9,115,63z"/>
									<path class="st0" d="M115.5,65.8c-0.8-0.1-1.4-0.6-2-0.9c-0.6-0.3-1.4-0.5-1.5-1.3c0.1,0,0.1-0.2,0.2-0.2
										c0.1-0.1,0.3-0.2,0.3,0c0.6,0.1,1.3,0.6,2,0.9C115.1,64.6,116.2,65,115.5,65.8z"/>
								</g>
							</g>
							<g>
								<path class="st0" d="M105.7,53.5c-0.1,0-0.1,0.1-0.1,0.2c-1,0.1-2.3-0.4-2.4-1.5c0.1-0.1,0.3-0.1,0.3-0.2
									C104.3,52.4,105.3,52.7,105.7,53.5z"/>
								<g>
									<path class="st0" d="M101.7,68.3c-0.1,0-0.1,0.1-0.1,0.2c-0.7,0.2-1.7,0-1.6-0.9C100.5,67.1,101.6,67.5,101.7,68.3z"/>
									<path class="st0" d="M102.3,70.7c-1.1,0.2-2-0.6-2.6-1.3c0-0.2,0.1-0.2,0.1-0.3C100.9,69,102.2,69.5,102.3,70.7z"/>
								</g>
							</g>
							<g>
								<path class="st0" d="M121.7,86.2c-0.1,1.3,0.9,2.6,0.5,3.5c-1.4-0.1-1.2-1.9-1.3-3.4C121.1,86.2,121.3,86.1,121.7,86.2z"/>
								<path class="st0" d="M112,88.9c0.5,0.9,0.1,2,0.2,3c0.2,1.4,1.2,2.3,1,3.4c-1.3,0.2-1.9-1.9-2.1-3.6c-0.1-0.8,0-1.7,0.1-2.4
									c0-0.2,0.2-0.2,0.2-0.3C111.7,88.9,111.9,88.9,112,88.9z"/>
								<path class="st0" d="M100.3,94.9c0.2,1,0.3,3.6-1.2,3.7c-0.2-1.2,0.3-2.7,0.7-3.7C100,94.9,100.2,94.9,100.3,94.9z"/>
							</g>
						</g>
					</g>
					<g>
						<path class="st0" d="M94.8,119.4c0.7,0.6,0.7,1.6,0.9,2.4c0.5,1.7,1.1,3.3,1.9,4.9c0.3,0.7,0.9,1.6,0.5,2.3
							c-1,0-1.2-1.2-1.5-1.9c-0.9-2.1-1.9-4.7-2.3-7.4c0.1-0.1,0.2-0.2,0.2-0.3C94.5,119.4,94.6,119.4,94.8,119.4z"/>
						<path class="st0" d="M99.3,131.3c0.5,0.4,0.7,1.2,0.9,2c0.2,0.6,0.9,1.5,0.1,2C99.8,135.2,97.8,131.5,99.3,131.3z"/>
					</g>
				</g>
			</g>
			<g>
				<path class="st0" d="M161.9,7.8c0,10.9-4.5,20.2-5,31.5c-0.2,5.1,0.1,10.6,0.5,15.5c0.3,3.7,0.1,7.9-0.8,11
					c-0.2,0.8-0.5,2.2-1.6,2.1c-0.5-0.8,0.4-1.6,0.7-2.4c0.3-0.9,0.3-1.9,0.5-3c-3.8,1.5-9.7,2.7-14.8,1.3c-3.3-0.9-6-2.6-8.2-5.1
					c-1.2-1.3-2.2-2.2-1.6-4.3c2.5,4.9,7.6,9,15.1,9c3.8,0,6.9-1.1,9.9-2.3c0.2-2.2,0.1-4.5,0-6.7c-2.3,0.6-4,1.2-6.7,1
					c-6.6-0.5-10.5-5.8-10.9-11.7c-0.5-6.9,2.8-12.5,6.4-15.9c3.3-3.1,7.7-5.6,13.4-5.1c0.3-0.4,0.3-1,0.5-1.6
					c-1.2-0.5-3.3-0.6-5.1-0.5c-9.1,0.6-16.1,6.8-20.1,12.9c-0.2,0.3-0.5,0.9-0.9,0.9c-0.9-1.1,0.4-2.3,1-3.1
					c4.9-6.6,13.6-13.1,25.3-11.5c0.6-2.3,0.9-5,1.5-7.3c-10.8-3.8-28-3.7-38.9-0.1c0,0.8,0.3,1.3,0.3,2.1c1.3-0.6,2.7-1.2,4.3-0.9
					c3,0.5,4.7,4.1,4.4,7.6c-0.2,2.7-1.6,5.5-3.5,7c-0.6,0.5-1.3,1-2,0.2c0-0.5,0.7-0.7,1.2-1c2.6-2.1,4.5-7.4,2.2-10.9
					c-1.1-1.7-4.4-2.7-6.3-0.7c1.1,3.3,1.1,7.7,1.6,11.6c-1.7,0.2-1.3-1.8-1.4-3c-0.1-1.4-0.2-3-0.3-4.3c-0.6-4-2.1-7.5-1.9-12.2
					C131.6,3.3,150.6,3.5,161.9,7.8z M137.4,5.7c0.2,0.9,0.3,1.9,0.3,2.9c0.5,0,0.9,0,1.4,0c0.1-0.7,0-2.3-0.3-3
					C138.2,5.5,138,5.7,137.4,5.7z M140.3,8.5c0.6,0,1.2,0,1.9,0c0.1-0.9,0.1-2,0.3-2.9c-0.9,0-1.7,0-2.6,0
					C140,6.6,140.1,7.6,140.3,8.5z M143.6,5.6c-0.2,0.9-0.3,1.9-0.3,3c0.5,0,0.9,0,1.4,0c0.1-1,0.3-1.9,0.3-2.9
					C144.4,5.7,144.2,5.5,143.6,5.6z M136.3,5.7c-0.4,0.2-1.2,0-1.6,0.2c0,1,0,2,0.1,2.9c0.8,0.1,1.3-0.2,2.1-0.1
					C136.5,7.8,136.8,6.3,136.3,5.7z M145.6,8.7c0.8-0.1,1.3,0.2,2.1,0.1c0-1,0-1.9,0-2.9c-0.5-0.2-1.3,0-1.7-0.2
					C145.8,6.6,145.7,7.6,145.6,8.7z M131.5,6.3c0,1,0,2,0,3c0.7-0.2,1.5-0.1,2.2-0.3c0-1,0-1.9,0-2.9C132.9,6,132.3,6.2,131.5,6.3z
					 M148.7,8.9c0.7,0.2,1.5,0.2,2.2,0.3c0-1,0-2,0-3c-0.8,0-1.3-0.3-2.1-0.2C148.8,7.1,148.7,8,148.7,8.9z M129.3,6.7
					c0.1,0.8,0.1,1.8,0.1,2.8c0.2,0.1,0.8-0.1,1.2-0.1c-0.1-0.7,0-1.9,0-2.9C130,6.4,129.6,6.5,129.3,6.7z M152,9.5
					c0.3,0,0.6,0,0.9,0c0-1,0.2-1.8,0.1-2.9c-0.5,0-0.6-0.2-1.2-0.1C152,7.5,151.8,8.7,152,9.5z M126.9,7.1c0,1.1,0.2,1.8,0.2,2.9
					c0.6,0,1-0.1,1.4-0.2c0-1-0.2-1.8-0.1-2.9C127.7,6.8,127.5,7.1,126.9,7.1z M153.9,9.7c0.5,0.1,0.8,0.3,1.4,0.2
					c0.2-0.9,0.2-1.9,0.3-2.8c-0.5-0.2-1-0.3-1.6-0.3C153.9,7.8,154.1,9,153.9,9.7z M124.2,7.6c0.1,1.1,0.1,2.2,0.5,3
					c0.4-0.3,1.1-0.2,1.5-0.5c-0.3-0.8,0-2.2-0.5-2.9C125.3,7.5,124.8,7.6,124.2,7.6z M156.3,10.3c0.6,0,1.2,0.4,1.6,0.2
					c0-1,0.2-1.9,0.3-2.8c-0.5-0.2-1.2-0.3-1.7-0.5C156.5,8.3,156.3,9.2,156.3,10.3z M121.5,8.5c0,1.1,0.1,2,0.2,2.9
					c0.7-0.2,1.3-0.3,1.9-0.6c-0.3-0.8-0.3-1.8-0.3-2.8C122.6,8,122.2,8.4,121.5,8.5z M158.9,10.9c0.7,0.1,1.1,0.4,1.9,0.5
					c0-1,0.1-1.9,0.2-2.8c-0.5-0.3-1.2-0.4-1.7-0.6C159.1,8.9,159,9.9,158.9,10.9z M144.7,29.9c-2.8,3.2-5.1,7.5-5,12.9
					c0.1,6,3.8,11.6,10.9,11.6c2.2,0,3.5-0.5,5.6-1.3c-0.9-10.4-0.2-21.1,2.1-29.3C152.4,23.3,148,26.3,144.7,29.9z"/>
				<g>
					<path class="st0" d="M132.9,14c0-0.9,1.1-1,1.7-1.2c4.4-1.1,9.9-1.1,15.3-0.7c1.3,0.1,4,0.1,4.1,0.8c0,0.8-1.3,0.6-2.2,0.5
						c-4.6-0.4-9.7-0.7-14.3,0c-0.9,0.1-1.7,0.3-2.4,0.5C134.4,14.1,133.6,14.4,132.9,14z"/>
					<path class="st0" d="M158.2,14.1c-0.5,0.3-1.4,0.1-1.9-0.1C155.6,12.8,158.6,12.9,158.2,14.1z"/>
				</g>
				<g>
					<path class="st0" d="M154.6,27.5c0.4,0.8-0.1,1.8-0.2,2.7c-0.5,2.7-1.2,5.7-1.4,8.7c-0.2,3.1,0.3,6.4,0.6,9.5
						c0.1,0.9,0.4,2-0.1,2.8c-1.1-0.1-1-1.7-1-2.4c-0.3-2.9-0.6-6.4-0.5-9.6c0.1-2.9,0.8-6,1.4-8.7c0.2-1,0.3-2.2,0.7-2.8
						c0-0.1,0.4-0.4,0.3-0.1C154.4,27.5,154.5,27.5,154.6,27.5z"/>
					<path class="st0" d="M150.9,40.6c-0.1,0.8-0.9,1.3-1.4,1.9c-0.5,0.5-0.9,1.4-1.7,1.2c-0.3-0.8,0.6-1.6,1.2-2.1
						C149.4,41,150.2,40,150.9,40.6z"/>
				</g>
				<path class="st0" d="M130.9,67.1c5,1.4,13.2,1.3,18.8,0.5c-0.3,0.3-0.4,0.8-0.7,1.2c-0.9,0.2-1.8,0.3-2.9,0.3
					c-0.5,2.8-0.6,5.9-0.9,8.8c0.3,0.3,1.4,0,1.5,0.1c0.3,1.5-1.7,1.1-2.7,1.2c-3.7,0.3-9.2,0-12.3-0.9c0-0.4,0-0.8,0-1.2
					c0.6,0.3,1.2,0.5,2,0.6c0-2.6-0.3-5.8-0.3-8.7c-0.5-0.5-1.6-0.4-2.3-0.7C131,67.9,130.9,67.6,130.9,67.1z M135,77.9
					c0.4,0,0.9-0.1,1,0.1c-0.1-3-0.1-6-0.2-8.9c-0.6,0-0.9-0.2-1.5-0.1C134.6,71.9,134.5,75.1,135,77.9z M137.2,78.1
					c0.6,0,1.2,0,1.9,0c-0.2-2.8,0-6.1-0.2-8.9c-0.7,0-1.5,0.1-2-0.1C136.9,72.1,137,75.6,137.2,78.1z M143.2,69.2
					c-0.1,3-0.4,5.8-0.3,8.9c0.4,0,0.9,0,1.3,0c0.2-3.1,0.6-6,0.9-8.9C144.4,69.2,143.8,69.2,143.2,69.2z M139.9,69.3
					c0,3,0.1,5.9,0.2,8.8c0.5,0,1.1,0,1.6,0c0.1-3,0.4-5.8,0.5-8.8C141.4,69.3,140.6,69.3,139.9,69.3z"/>
			</g>
		</g>
		<g>
			<path class="st0" d="M52.5,189c0.3-0.7,1.2-0.8,1.8-1c4.2-1.6,7.7-5.4,11.8-7.7c-5.2,0.5-10.8,1-17.3-1.2
				c-2.1-0.7-4.1-1.9-6.4-2.7c-1-0.4-2.2-0.6-3.2-0.7c-0.9-0.2-2.1,0-2.8-0.8c0.3-0.9,1.4-0.6,2-0.7c5-0.6,9.9-1.8,14.2-4.3
				c-2.5,0.3-5,0.2-7.6,0.3c-4.9,0.2-9.3,1.7-15.2,0.2c-1.4-0.4-2.9-0.9-4.4-1.2c-1.3-0.3-2.8-0.4-3.9-1.1c0.1-0.9,1-0.6,1.5-0.8
				c3.8-0.9,7.6-2.5,11.5-3.6c8.8-2.5,19.2-1.5,30.3,1c5.6,1.3,11.4,3.2,17.2,6c-3.4-2.9-6.7-5.9-10-9c-3.3-3.1-6.9-5.9-10.8-8.7
				c-4.1-2.9-8.3-5.3-11.7-8.3c-2.6-2.3-3.9-4.9-5.6-7.7c-0.2-0.4-0.6-0.9-0.9-1.3c-0.2-0.3-0.6-0.9-0.2-1.3
				c0.7-0.5,1.7,0.4,2.4,0.7c2,0.9,4.1,1.4,6.2,2c6.2,2,11.7,5.1,14.9,8.9c-0.8-1.9-1.6-3.9-2.3-6c-1.6-5.2-2.1-11-3.3-16.5
				c-0.1-0.5-0.2-1.1-0.4-1.6c-0.1-0.5-0.4-1.2,0.1-1.6c1.5,0.2,2.1,1.8,2.9,2.9c2.4,3.3,5.9,6.2,8.9,9.3c0-3.7,0.3-8.5,1.7-12.9
				c1.1-3.7,3.7-6.3,5.3-9.2c0.4-0.7,0.6-1.9,1.6-2.1c0.9,0.5,0.4,1.6,0.4,2.3c-0.6,5.6-0.1,10.7,0.4,16.1c0.6,5.9-0.1,11.4-1.3,18
				c-0.1,0.4-0.2,1-0.2,1.3c0,0.9,0.7,2.1,1.1,3.2c1.1,3.1,2,6.5,2.6,9.6c4.2,2.7,7.3,5.4,10,9.1c1.1,1.6,2.2,3.5,3.3,5.3
				c1.1,1.8,2.4,3.8,4.3,4.8c1.9,1,4.3,1.6,6.2,2.3c2.2,0.7,4.2,1.6,6,2.4c2.8,1.1,5.9,1.2,8.8,1.1c5.6-0.2,10.6-1,15.5-2.4
				c1.9-0.5,3.4-1.2,5.3-1.9c0.5-0.2,1.3-0.7,1.8-0.2c0.7,1.1-0.3,1.6-0.9,1.9c-1.7,1-4.4,1.3-6.3,1.7c-5.7,1.1-11.7,2.2-17.9,2.1
				c-1.6,0-3.3-0.2-5-0.6c-1.6-0.3-3.4-1-5.1-1c-1.8,0-3.8,0.8-5.6,1.7c-3.6,1.6-6.8,3.6-10.1,6c-2.1,1.6-4.2,3.3-6.6,4.1
				c-1.7,0.6-3.6,0.8-5.4,1.4c-1.2,0.4-2.1,1.4-3.4,1.1c-0.3-1,0.7-1.9,1.2-2.9c1.7-2.8,3.2-6.7,5.4-8.5c0.1-0.1,0.1-0.1,0.2-0.2
				c-5.1,1.3-10.5,2.8-16.1,3.6c-2.9,0.4-5.8-0.1-8.9-0.2c-2.2-0.1-4.3,0.1-6.5,0.2C53.8,189.4,52.9,189.7,52.5,189z M74.4,122.4
				c-0.8,4.1-1.3,8-1,11.2c1.3,1.3,2.1,2.9,3.2,4.3c0.3-8.3,1.8-17.1,2.9-25.7c0-0.1,0-0.1-0.1-0.2
				C77.2,115.2,75.2,118.4,74.4,122.4z M80.8,130.3c-0.1-3.6-0.5-7.3-0.7-10.9c0-0.3-0.2-1.6-0.3-1.1c-1.1,6-1.6,13.3-1.9,19
				c0,0.9-0.3,2-0.2,2.7c0.1,0.7,1,2.2,1.4,2.9c0.1,0.2,0.1,0.9,0.5,0.7C80.2,139,80.9,134.6,80.8,130.3z M68.3,132.9
				c1.6,2.7,3.4,5.1,5.2,7.6c2.7,3.8,4.7,8,6.7,11.9c0.7,1.3,1.3,2.7,2.2,3.9c-1.7-5.8-3.4-11.7-6.4-17.1c-3-5.4-8.1-9.6-12.5-14.2
				C65,127.7,66.7,130.2,68.3,132.9z M65.2,140c1.5,4.8,4.1,9.1,7.7,12.7c-0.3-0.6-0.4-1.2-0.6-1.9c-0.2-0.6-0.9-1.2-0.6-2
				c1.1-0.1,1.6,1.1,2.2,1.7c2.2,2.2,4.5,4.3,7.1,6.3c0.5,0-0.1-0.7-0.2-0.8c-2.7-5.3-5.1-10.5-8.6-15.3c-3.7-5.2-7.1-10.6-10-15.7
				C63.2,130,63.7,135.2,65.2,140z M75.9,161.8c-0.1-0.2-0.3-0.5-0.4-0.6c-0.5-1.4-0.8-3.2-1.3-4.4c-0.6-1.4-2.1-3-3.5-4.6
				c-1.3-1.5-2.6-3-4-4.5c-3.1-3.3-6.4-6-10.6-7.9c-3.7-1.6-6.7-2.3-10-3.4c8.6,9.2,23.3,15.7,29.7,25.9
				C76.2,162.4,75.9,161.8,75.9,161.8z M60.4,149.2c-2.6-1.9-5.5-3.7-8-5.6c-2.5-1.9-4.7-4.2-6.6-5.9c1.4,2.6,2.9,4.9,5.3,6.8
				c2.4,1.9,5.2,3.6,8.2,5.5c4.1,2.7,8.1,5.8,11.4,8.7c1.1,1,2.1,2.1,3.3,2.9C70.6,157.2,65.6,153.1,60.4,149.2z M98.6,176.5
				c-3.3-3.8-5.2-8.8-9.3-12.6c-2-1.8-4.5-3.8-7-5.2c-1.4-0.8-2.7-1.5-3.9-2.5c-1.1-0.9-2-1.9-3.1-2.7
				C80.4,162.3,87.6,170.7,98.6,176.5z M80.4,167.2c1.7,1.7,3.7,3.5,5.8,5.1c3.3,2.6,7.5,5.3,11.7,5.2
				c-11.1-6.3-18.3-14.3-23.3-23.3C76,158.3,76.6,163.5,80.4,167.2z M99.8,179.9c-7.5,1.1-14.5,5.8-18.1,14.6
				c3.7-2.6,6.6-6.4,10.2-9.2c3.5-2.8,7.3-5,11.9-5.3c0.1-0.1,0.5,0,0.1-0.2C102.4,179.5,101.1,179.7,99.8,179.9z M70.6,167.7
				c-2.3-0.4-4.7-0.3-7-0.1c-2.3,0.2-4.7,0.6-6.5,1.3c-0.7,0.3-1.3,0.7-2,1.1c-2.1,1-4.4,1.8-6.5,2.8c-0.2,0.2-0.2,0.2,0.1,0.2
				c2.7-0.8,5.3-1.7,8.2-2c3-0.3,5.9-0.2,9.2,0.1c6.2,0.5,13,1.2,19.6,2.8C81,170.6,75.6,168.6,70.6,167.7z M93.9,185
				c-2.1,1.5-4.1,3.2-5.9,5.2c-0.9,1-1.8,1.9-2.8,2.8c-1,0.8-2,1.5-2.9,2.4c1.8-0.8,3.8-0.9,5.6-1.7c1.8-0.7,3.4-2.1,5-3.4
				c3.3-2.5,7-4.8,10.4-6.4c1.6-0.8,3.4-1.2,5-1.7c0,0,0.6-0.1,0.4-0.3C102.7,179.6,98,182.2,93.9,185z M43.9,163.2
				c-5.9,0.1-11.1,2-16.2,3.8c5.6,0,10.9-2.2,16.7-2.3c5.9-0.1,11.8,0.5,18,0.5c0.1,0,0.2,0.1,0.3,0.1c0.1,0,0.1-0.1-0.1-0.2
				c-0.1,0-0.1-0.1-0.2-0.1C55.9,163.8,49.7,163,43.9,163.2z M76.7,181.4c-1.7,0.3-3.3,0.6-4.9,1.1c-3.2,1-6.1,3-9.1,4.2
				c-1.5,0.6-3.1,0.9-4.6,1.6c2.5-0.3,4.9,0.1,7.4,0.3c4.9,0.3,9.4-1.1,13.8-2.1c2.2-0.5,4.6-0.9,6.6-1.7c2.4-0.9,4.4-2.6,6.7-3.7
				c1.5-0.8,3-1.3,4.8-1.7c0.1,0,0.2,0,0-0.1C90.2,179.5,83.3,180.2,76.7,181.4z M74.9,173c-5.8-0.7-12.3-1.5-17.5-1.1
				c-1.8,0.2-3.4,0.7-5.2,1.2c-3.5,1.1-7,1.7-10.5,2c2.8,1,5.7,2.4,8.2,3.2c6.8,2.1,12.1,1.3,17.8,0.6c3.7-0.4,7.3-1.1,11-1.7
				c3.7-0.6,7.4-0.6,11.4-0.6C84.8,174.5,79.8,173.6,74.9,173z M67.1,183.4c2.9-1.6,5.3-2.2,8.5-2.8c6-1.1,12.1-2.1,18.5-2.5
				c-0.1,0-0.1-0.1-0.2-0.1c-5.5-0.5-11.8-0.5-16.9,0.5c-1,0.2-2,0.6-3,0.8c-2.2,0.5-4.4,0.6-6.2,1.3c-3.4,1.3-5.9,4-9,6.1
				C61.7,186,64.5,184.8,67.1,183.4z M36.4,169.9c1.5-0.1,3-0.4,4.5-0.6c4.7-0.6,9.4-0.1,13.9-1.1c2.9-0.6,5.8-1.5,8.8-1.8
				c-0.1,0-0.1-0.1-0.2-0.1c-3.3-0.2-6.5-0.3-9.7-0.4c-3.3-0.1-6.5-0.3-9.6-0.3c-3.1,0.1-5.9,0.8-8.9,1.4c-3,0.6-5.9,0.9-9,1.1
				C29.9,169.1,33.1,170.1,36.4,169.9z"/>
			<path class="st0" d="M73.8,122.9c0-0.2,0.1-0.4,0.1-0.6c0.1-0.4,0.2-0.8,0.3-1.2c0-0.1,0-0.7,0-0.9c-0.1-1.1,0.2-2.2,0.8-3.1
				c-0.4-2.1-0.6-3.5-0.5-4c-0.4-2.9-0.4-5.8-0.4-8.4c0-2.4,2.1-5.5,3.2-7.7c2.7-5.1,5.3-10.3,5.6-18c0.1-2-0.1-4.6-0.2-7
				c-0.1-2.1,0.1-4.5-0.4-6.5c-0.5-1.8-1.9-2.9-2.7-4.6c-0.7-1.5-0.5-3.1-1.6-4.7c-3.8,2.9,0.3,7.9,0.2,11.9c-0.1,3.2-3,6.1-3.9,9.1
				c-2.5-7.6,0-20.6-6.9-23.1L67,54.2c1.8,10.1-6.5,12.7-4.5,23.3c0.4,2,0.8,5.3,1.7,8c2.1,6.8,7.8,10.7,8.8,18
				c0.6,4.5-0.3,8,0.6,12.7c-3.7-10.1-6.6-19.3-11.6-26.9c-3.6-5.4-9.5-9-13.3-14.6c-1.2-1.8-2.2-4.2-4.6-4.7
				c-0.8,4.8,3.4,8,4.8,11.7c0.6,1.5,0.5,3.2,1.1,4.8c0.6,1.5,1.8,2.6,2.3,3.8c1.9,4.2,1.7,11.6,4.7,15.2c1.2,1.5,3.1,2.9,4.5,4.4
				c2.9,2.9,5.6,6.3,8.6,9.4c1.1,1.1,2.3,2.8,3.4,4.7C73.6,123.6,73.7,123.3,73.8,122.9z M77.7,60.4c0-0.2,0.2-0.3,0.5-0.3
				c1.7,3.7,4.2,7.1,3,12.2C80.2,68.1,78.4,64.9,77.7,60.4z M79.5,76.8c-1.9,1.6-2.5,4.3-3.9,6.4c-1.1-5.3,1.9-9.1,3.7-12.9
				c3.8,11.5,0.5,21.9-4.5,28.4c1.1-6,0.7-12.6,3-17.1C78.6,80.1,80.2,78.6,79.5,76.8z M73.2,98.1c-1.8-5.9-4.1-12.2-5.3-18.9
				c-0.4-2,0-4.7-1.2-6.4c-1,1.7-0.5,4.3-0.1,6.3c0.9,5,2.7,10.2,3.4,14c-3.2-3.6-5-9.4-6.1-15.9c-1.1-6.8,2.1-11,4.1-14.8
				c0.2,1.6-1.1,4.1,0,4.9c1.5-0.5,0.9-2.9,1.1-4.5c0.1-0.8,0.6-1.4,0.6-2.2c0-1.3-0.8-2.3-0.4-3.5c0.2,0.4,0.5,0.6,0.9,0.7
				c1.8,5.6,1.4,12.2,2.6,18.4c0.7,3.8,1.9,7.2,2,10.9c0.1,1.9,0,4.2-0.2,6C74.4,94.7,74.1,96.9,73.2,98.1z M64.6,111.5
				c-1.1-1.2-2.5-2.7-4-4.2c-1.4-1.4-3.3-2.9-4-4.4c-1.9-4-1.4-9.4-3.4-13.5c-0.7-1.4-1.8-2.4-2.3-3.8c-0.7-2.1-1-4.6-2.4-7.1
				c-1-1.7-2.6-4-2.8-5.4c3,3.7,5.9,9,8.7,12.9c0.9,1.2,1.5,3.6,3.3,3.2c-0.9-2.8-3.8-4.8-4.3-7.1c4,3.3,7.2,7.7,9.8,12.8
				c2.6,5,5.5,10.3,6.6,16.1c-2-4.2-5-9-7.1-12.8c-0.7-1.2-1-3.7-2.8-3.2c4,8.4,8.8,15.6,12.4,24.4
				C69.7,117.5,67.5,114.6,64.6,111.5z"/>
		</g>
	</g>
	<path class="st0" d="M51,61.6c0,0.1,0,0.2,0,0.3C51,61.8,50.9,61.7,51,61.6z"/>
	<path class="st1" d="M157.2,171.7c-0.3,0-0.6-0.2-0.6-0.6c-1.5-11.4-8.2-13.1-8.5-13.2c-0.3-0.1-0.5-0.3-0.5-0.6
		c0-0.3,0.1-0.5,0.4-0.6c8.5-3.7,8.6-12.8,8.6-13.2v0c0-0.4,0.3-0.6,0.6-0.6c0.3,0,0.6,0.3,0.6,0.6v0c0,0,0,0,0,0v0c0,0,0,0,0,0v0
		c0,0,0,0,0,0c0,0,0,0,0,0c0,0,0,0,0,0c0,0,0,0,0,0c0,0,0,0,0,0c0,0,0,0,0,0c0,0,0,0,0,0c0,10.1,8.2,13,8.6,13.1
		c0.2,0.1,0.4,0.3,0.4,0.6c0,0.3-0.1,0.5-0.4,0.6c-8.6,4.1-8.7,13.1-8.7,13.2C157.8,171.4,157.6,171.7,157.2,171.7
		C157.2,171.7,157.2,171.7,157.2,171.7z M149.8,157.3c2,1,5.6,3.6,7.4,10.2c0.8-3,2.8-7.3,7.6-10.1c-2.1-1.1-6.2-3.9-7.7-9.5
		C156.2,150.9,154.2,154.9,149.8,157.3z"/>
	<path class="st1" d="M167.2,136.3c-0.3,0-0.6-0.2-0.6-0.6c-0.9-6.6-4.7-7.5-4.8-7.6c-0.3-0.1-0.5-0.3-0.5-0.6
		c0-0.3,0.1-0.5,0.4-0.6c4.9-2.1,4.9-7.3,4.9-7.5v0c0-0.4,0.3-0.6,0.6-0.6c0.3,0,0.6,0.3,0.6,0.6l0,0c0,0,0,0,0,0c0,0,0,0,0,0v0
		c0,0,0,0,0,0c0,5.7,4.7,7.4,4.9,7.5c0.2,0.1,0.4,0.3,0.4,0.6c0,0.3-0.1,0.5-0.4,0.6c-4.9,2.4-5,7.3-5,7.5
		C167.8,136,167.6,136.3,167.2,136.3C167.2,136.3,167.2,136.3,167.2,136.3z M163.3,127.5c1.2,0.7,2.8,2.1,3.8,5.1
		c0.6-1.6,1.7-3.6,4-5c-1.2-0.7-3.1-2.2-4-4.7C166.5,124.4,165.4,126.2,163.3,127.5z"/>
	<path class="st1" d="M85.8,44.7c-0.3,0-0.6-0.2-0.6-0.6c-0.5-3.7-2.6-4.3-2.7-4.3c-0.3-0.1-0.5-0.3-0.5-0.6s0.1-0.5,0.4-0.6
		c2.8-1.2,2.8-4.1,2.8-4.3c0-0.4,0.3-0.6,0.6-0.6c0.3,0,0.6,0.3,0.6,0.6c0,0,0,0,0,0c0,0,0,0,0,0c0,0,0,0,0,0s0,0,0,0c0,0,0,0,0,0
		c0,0,0,0,0,0c0,3.3,2.7,4.2,2.8,4.3c0.2,0.1,0.4,0.3,0.4,0.6c0,0.3-0.1,0.5-0.4,0.6c-2.8,1.3-2.8,4.2-2.8,4.3
		C86.4,44.4,86.2,44.7,85.8,44.7C85.8,44.7,85.8,44.7,85.8,44.7z M84,39.2c0.6,0.4,1.3,1.2,1.8,2.4c0.4-0.8,1-1.6,1.9-2.3
		c-0.7-0.5-1.4-1.2-1.9-2.2C85.4,37.8,84.8,38.6,84,39.2z"/>
</g>
</svg>
