<?xml version="1.0" encoding="utf-8"?>
<!-- Generator: Adobe Illustrator 23.1.0, SVG Export Plug-In . SVG Version: 6.00 Build 0)  -->
<svg version="1.1" xmlns="http://www.w3.org/2000/svg" xmlns:xlink="http://www.w3.org/1999/xlink" x="0px" y="0px"
	 viewBox="0 0 500 500" style="enable-background:new 0 0 500 500;" xml:space="preserve">
<style type="text/css">
	.st0{fill:#DC6A83;}
	.st1{opacity:0.7;fill:#FFFFFF;}
	.st2{fill:#FFFFFF;stroke:#263238;stroke-miterlimit:10;}
	.st3{fill:#DC6A83;stroke:#000000;stroke-miterlimit:10;}
	.st4{fill:none;stroke:#263238;stroke-miterlimit:10;}
	.st5{fill:#263238;stroke:#263238;stroke-miterlimit:10;}
	.st6{fill:none;stroke:#263238;stroke-width:2;stroke-miterlimit:10;}
	.st7{fill:#E3E3E3;}
	.st8{fill:#A8A8A8;}
	.st9{fill:#FFFFFF;}
</style>
<g id="Background_Simple">
	<path class="st0" d="M375.4,171.2c-3.1-5.8-6.3-11.5-10-17C322.9,91.2,209.1,57,152.7,122c-13.4,15.5-18.1,34.3-27.2,52
		c-20.6,40.5-59,64.6-83.1,102.1c-18.7,29-16.2,66.3-5.8,97.6c11.3,34.1,31.3,57.9,63.2,76c35.8,20.3,74,14.7,112.6,7.6
		c17.4-3.2,35.3-6.4,53.1-5.2c22.2,1.5,44.2,7.6,66.3,10.6c23,3.1,46.8,3.8,68.9-2.9c70.8-21.6,87.6-122.7,58.5-180.6
		c-10.3-20.5-27.8-36.3-44-52.4C397.6,209.6,386.8,192.7,375.4,171.2z"/>
	<path class="st1" d="M374.8,171.2c-3.1-5.8-6.3-11.5-10-17C322.3,91.2,208.5,57,152.1,122c-13.4,15.5-18.1,34.3-27.2,52
		c-20.6,40.5-59,64.6-83.1,102.1c-18.7,29-16.2,66.3-5.8,97.6c11.3,34.1,31.3,57.9,63.2,76c35.8,20.3,74,14.7,112.6,7.6
		c17.4-3.2,35.3-6.4,53.1-5.2c22.2,1.5,44.2,7.6,66.3,10.6c23,3.1,46.8,3.8,68.9-2.9c70.8-21.6,87.6-122.7,58.5-180.6
		c-10.3-20.5-27.8-36.3-44-52.4C397,209.6,386.2,192.7,374.8,171.2z"/>
</g>
<g id="Hand_1">
	<path class="st2" d="M248.3,100.7c0,0,1.9,9.9-0.4,28.2c-2.3,18.3,0.8,40.7,0.8,40.7l-23.9,7.6
		C224.8,177.3,241.1,106.5,248.3,100.7z"/>
	<path class="st3" d="M233.1,85.9c0,0-1.4-8.6,1.2-14.6c2.7-6,8.6-14.8,11.3-13c2.7,1.9,0.2,8.2,0.2,8.2l-11.7,21L233.1,85.9z"/>
	<path class="st2" d="M209.4,150.1c0,0,4.9-14.8,9.7-25.5s14-38.5,15.6-44.7c1.6-6.2,5.8-15.8,8.8-16.7c3.1-0.8,7.6,3.1,8.8,14
		c1.2,10.9-3.3,24.7-4.7,30c-1.4,5.4-9.1,28.8-9.5,30.3c-0.4,1.4-4.7,22-6.2,28.2c-1.4,6.2-2.3,8.8-2.3,8.8l-28.4,11.1L209.4,150.1z
		"/>
	<path class="st3" d="M290.5,157.7c0,0-5.8-10.9-12.1-15.4c-6.4-4.5-8.8-2.5-8.4,1.6s1.6,7.6,1.6,7.6l20.4,11.1L290.5,157.7z"/>
	<path class="st2" d="M146.2,475.9c0,0,38.7-81.3,44.7-100.4c6-19.1,8.6-23.3,11.1-33.8c2.5-10.5,4.7-14.4,7.2-21
		c2.5-6.6-4.5-13.2-10.5-28.6c-6-15.4-22.4-56.8-22.8-64.8c-0.4-8,8.2-19.3,13.4-34s8.6-34.2,15.4-41.4c6.8-7.2,35-19.6,41.6-21.8
		c6.6-2.3,13.2-2.5,23.7-2.5s6.8,2.5,6.8,2.5s1.2,6-4.1,11.1c-5.4,5.1-26.8,9.1-29.6,11.1c-2.9,2.1-18.1,11.7-21.2,15.6
		c-3.1,3.9-6,9.3-6,9.3l33.3-4.7c0,0,2.5,16.9,6.2,27.2c3.7,10.3,20.8,14.2,22.8,14.8c2.1,0.6,4.7-6.6,3.1-17.9
		c-1.6-11.3-10.7-20.2-13.2-30c-2.5-9.9,0.4-20,3.7-21.4c3.3-1.4,7,1,11.5,4.7s9.7,11.3,12.8,14.8c3.1,3.5,4.1,6.4,9.7,23.3
		c5.6,16.9,10.3,30.7,7.8,48c-2.5,17.3-6.2,43.6-12.1,52.3c-6,8.6-9.1,13.4-9.1,13.4s-7.8,28.6-8.8,37c-1,8.4-20.8,95.9-23.1,111.5
		c-2.3,15.6-2.3,17.9-2.3,17.9"/>
	<path class="st4" d="M245.2,262.4c0,0,18.8,18.1,19.5,29.6c0.7,11.4-4,15.5-4,15.5"/>
	<path class="st2" d="M205.7,217c9.3-6.6,9.9-16.9,9.9-16.9s10.1-8,13.4-10.1c3.3-2.1,22-4.9,28.4-9.3c6.4-4.3,8.8-11.3,8.8-11.3
		s-0.8-2.7-3.7-3.5c-2.9-0.8-22,0-26.5,1.4c-4.5,1.4-22.6,6.8-29,9.5c-6.4,2.7-8.8,8.4-13,14.8c-4.1,6.4-10.9,18.5-12.6,23.1"/>
	<path class="st4" d="M289.5,187.9c2.4-0.2,5.2-0.9,8.4-2.2"/>
	<path class="st4" d="M278.3,185.7c0,0,2.9,2.1,8.3,2.3"/>
	<path class="st4" d="M280.4,215.9c0,0,12.1,4.3,17.7,7.2c5.6,2.9,6.4,5.6,6.4,5.6"/>
	<path class="st4" d="M207.1,239c-2.7,2-5.6,3.4-8.6,4.1"/>
	<path class="st4" d="M233.1,194.7c0,0-1.6,7.4-7,19.1c-3.5,7.7-9.2,16.6-16,22.7"/>
	<path class="st4" d="M254.3,207.9c0,0-8.4,11.5-8.8,21"/>
	<path class="st3" d="M255.5,128.5c0,0-4.1,2.7-1.2,4.1c2.9,1.4,20.8-1.4,25.3-3.1c4.5-1.6,4.1-2.7-2.7-3.5
		C270.1,125.2,260.8,124.8,255.5,128.5z"/>
	<path class="st3" d="M256.5,164.3c0,0-11.9,2.9-10.9,4.7c1,1.9,6.8,2.7,13.2,2.7c6.4,0,14.8-1.9,14.8-1.9s1.4-3.5,0.6-4.1
		C273.4,165.1,267.6,162.2,256.5,164.3z"/>
	<path class="st4" d="M193.3,222.3c0,0,5.4,0.2,10.1-3.9"/>
</g>
<g id="Hand_2">
	<path class="st2" d="M218.5,487.6c0,0-2.4-8.3-6.7-18.2c-4.3-9.9-5.6-19.8-2.1-39.3c3.5-19.5,15.8-52.6,17.9-60.9
		c2.1-8.3-0.5-43.4-0.9-55c-0.4-11.6-1.6-24.2-0.9-31.1c0.7-6.9,5.2-9.6,5.2-9.6s1.9-4.2,9.2,0.4c0,0-5.3-16.3-1.6-22.4
		c3.7-6.1,7.5-6.1,10.4-4.5c2.9,1.6,4.3,4,4.3,4s-4.8-13.6,1.1-17.4c5.9-3.7,11-2.4,17.4,5.9c6.4,8.3,16.8,32.6,21.6,44.1
		c4.8,11.5,9.3,31.5,9.3,31.5s-1.1-20.8-4-34.7c-2.9-13.9-8-25.6-7.7-32.3c0.3-6.7,6.1-11,9.9-9.3c3.7,1.6,8.5,6.7,11.8,13.6
		c3.2,6.9,12,32.6,14.2,45.1s3.5,45.1,2.7,62.8c-0.8,17.6-12,38.7-18.7,48.9c-6.7,10.1-17.6,19.5-18.7,41.1
		c-1.1,21.6,7.7,36.1,7.7,36.1"/>
	<path class="st4" d="M302.6,315c0,0,3.5,24,3.7,33.4"/>
	<path class="st2" d="M253.2,250.9c0,0,5.9,6.4,15.8,39.5c9.9,33.1,12.8,69.4,12.8,69.4"/>
	<path class="st2" d="M254.6,355.8c0.8,7,1.3,11,1.3,11"/>
	<path class="st2" d="M240.1,273.9c0,0,4.3,1.9,5.9,14.2c1.4,11.1,5.9,44.4,7.6,58.4"/>
	<path class="st4" d="M311.7,377.3c0,0,0.5,4.5-5.6,12.8"/>
	<path class="st4" d="M284.5,388.2c0,0-1.3,8.8-9.3,13.6"/>
	<path class="st4" d="M254.8,394.9c0,0-3.5,5.1-7.2,6.7"/>
	<g>
		<g>
			<path class="st3" d="M228.7,266.3c0,0,1.2,14.8,1.4,19.6c0.2,4.8,4.1,5.9,7.3,4.4c3.2-1.4,4.1-4.8,2.7-10.1
				c-1.4-5.3-3.7-13.5-5-15.1C233.8,263.4,229.4,264.8,228.7,266.3z"/>
			<path class="st3" d="M246.1,239.8c0,0-2.1-2-4.8-2c-2.7,0-4.3,3-4.1,3.9c0.2,0.9,3.4,12.4,6,16.2c2.7,3.7,4.6,5.5,6.4,5.2
				c1.8-0.4,6.2-0.9,6.2-2.3C255.9,259.3,253.2,249.5,246.1,239.8z"/>
			<path class="st3" d="M252.5,228.6c0,0,0.9,6.8,2.7,10.3s3.9,8.2,7.6,8.7s8.7-2,8.9-3.2c0.2-1.2-8.9-16.7-11.7-18.8
				C257.1,223.4,252.5,225.2,252.5,228.6z"/>
			<path class="st3" d="M309,251.7c0,0-2.7-11.7-6.4-16.5c-3.7-4.8-6.9-5.5-9.2-2.5c-2.3,3,0.9,8.7,2,11.7c1.1,3,1.6,7.3,4.1,8.7
				C301.9,254.5,307.4,255.8,309,251.7z"/>
		</g>
	</g>
</g>
<g id="Tools">
	<g>
		<path class="st4" d="M387.7,347.3c0,0-0.6-0.4-2.4-2.9c-1.8-2.6-3.2-29.7-3-32.8c0.2-2.6,1.4-4.7,1.7-5.2l0.6-0.5
			c0.7-0.6,1-1.5,0.9-2.4l-0.7-10.4c0-0.7-0.6-1.3-1.3-1.3h-3.7c-0.7,0-1.3,0.6-1.3,1.3l-0.7,10.6c-0.1,0.8,0.2,1.6,0.7,2.1l0.5,0.6
			c0.3,0.5,1.5,2.6,1.7,5.2c0.3,3-1.2,30.2-3,32.8c-1.8,2.6-2.4,2.9-2.4,2.9l-1.1,104.8c0,0,1.6,4.2,7.3,4.2c5.7,0,7.3-4.2,7.3-4.2
			L387.7,347.3z"/>
		<path class="st4" d="M387.9,361.2c0,3.8-2.8,6.9-6.4,6.9c-3.5,0-6.4-3.1-6.4-6.9c0-3.8,2.8-6.9,6.4-6.9
			C385.1,354.2,387.9,357.3,387.9,361.2z"/>
		<line class="st4" x1="375.3" y1="347.3" x2="387.7" y2="347.3"/>
	</g>
	<g>
		<path class="st4" d="M88.2,399.7c-5.3,0-10.1,2.1-13.6,5.5l0.8-1.2c0,0-2.5,0.7-3.1-7.1V318c0,0-4.4-5.8-9.8-0.5v82.6
			c0,0,0.5,3.4-2.2,4l1.2,2.1c-3.6-4-8.8-6.5-14.6-6.5c-10.9,0-19.7,8.8-19.7,19.7v12.3c0,10.9,8.8,19.7,19.7,19.7
			c10.9,0,19.7-8.8,19.7-19.7v-12.3c0-2.2-0.4-4.2-1-6.2l0.3,0.4v-70.9l2.7,2.9V415l0.6-1c-0.5,1.7-0.8,3.6-0.8,5.4v12.3
			c0,10.9,8.8,19.7,19.7,19.7s19.7-8.8,19.7-19.7v-12.3C107.9,408.6,99,399.7,88.2,399.7z M64,429.7c0,9.5-7.7,17.1-17.1,17.1
			c-9.5,0-17.1-7.7-17.1-17.1v-8.2c0-9.5,7.7-17.1,17.1-17.1c9.5,0,17.1,7.7,17.1,17.1V429.7z M105.3,429.7
			c0,9.5-7.7,17.1-17.1,17.1c-9.5,0-17.1-7.7-17.1-17.1v-8.2c0-9.5,7.7-17.1,17.1-17.1c9.5,0,17.1,7.7,17.1,17.1V429.7z"/>
		<circle class="st4" cx="67.6" cy="323.7" r="2.4"/>
		<line class="st4" x1="65.9" y1="342.9" x2="63.4" y2="339.9"/>
		<path class="st4" d="M70.9,316.7l-2.8-30.1c0-0.3-0.5-0.3-0.5,0l-3.8,29.7C66.9,314.3,69.4,315.5,70.9,316.7z"/>
	</g>
	<g>
		<path class="st4" d="M129.3,293.9c0,0-1.8-4.1-4.9-6.1c-3.1-2-3.1-0.5-2.6,1.5c0.5,2,3.1,5.1,1,7.9c-2,2.8-2.8,4.4-2.8,4.4
			l0.5,139c0,0,4.6,11,11.8,8.2c7.2-2.8,7.4-7.7,7.9-10.2c0.5-2.6-2.8-39.7-2.8-39.7s-5.9-2.3-4.4-8.4s3.6-6.7,3.6-6.7L129.3,293.9z
			"/>
		<polygon class="st4" points="120.3,376.8 136.1,376.8 130.4,307.5 120.1,307.5 		"/>
	</g>
	<g>
		<path class="st4" d="M452.9,351.1c-0.3-2.9-3.5-5.2-7.3-5.2h-4.1h-4.1c-3.9,0-7.1,2.3-7.3,5.2l-4.6,98.4h16h16L452.9,351.1z"/>
		<path class="st4" d="M437.4,345.9h4.1h4.1c0.5,0,1,0,1.5,0.1l-4.2-24.9c-0.3-1.5-2.4-1.5-2.7,0L436,346
			C436.4,345.9,436.9,345.9,437.4,345.9z"/>
		<polygon class="st4" points="459,456.6 424.3,456.6 425.4,449.5 457.8,449.5 		"/>
	</g>
</g>
<g id="Nail_Pincer">
	<path class="st2" d="M308.9,236.1l18.8-1.4l0.2-7.1C327.9,227.7,310.9,228.4,308.9,236.1z"/>
	<path class="st2" d="M310.9,244.7l17.3-6l5.1,5.9C333.3,244.6,318,249.8,310.9,244.7z"/>
	<g>
		<path class="st2" d="M359.5,226.3c0.7-0.1,1.1-0.8,1-1.5c-0.1-0.7-0.8-1.1-1.5-1s-1.1,0.8-1,1.5
			C358.1,226,358.8,226.4,359.5,226.3z"/>
		<g>
			<path class="st2" d="M388.3,243.3c0-0.2-0.2-0.4-0.5-0.5c-0.1,0-5.8-1.3-8.3-2.8c-1.7-1-4.8-4.9-6.8-7.6c-1-1.3-1.8-2.3-2.3-2.9
				c-1.6-1.7-9.9-4.8-10.9-5.2c-0.3-0.1-0.7,0-0.8,0.4c-0.1,0.3,0,0.7,0.4,0.8c2.5,0.9,9.2,3.6,10.4,4.8c0.5,0.5,1.3,1.5,2.2,2.8
				c2.4,3,5.3,6.8,7.2,7.9c2.7,1.5,8.4,2.8,8.6,2.9c0.3,0.1,0.7-0.1,0.8-0.5C388.3,243.5,388.3,243.4,388.3,243.3z"/>
		</g>
	</g>
	<path class="st5" d="M327.9,227.7l11.2-1.3l7.5-2.9l5.5,4.5l1.6,8.3l-18.3,7c0,0-3.9-4.3-4.5-5.5l1.5-0.8l-0.7-2.8l-3.9,0.5
		L327.9,227.7z"/>
	<path class="st2" d="M392.1,251.7c-5-2-27.6-8.9-29.3-9.3c-9.8-2.2-27.8-0.9-27.8-0.9s-0.9-0.9-2.7-4.4c-1.8-3.5-2.5-9.3-2.5-9.3
		s16.7-2.1,16.7-2.1c2-0.2,3.7,1.2,4.5,2.9c0.4,0.9,0.6,1.8,0.5,2.7c-0.1,1.2-0.6,2.3,0.4,3.3c1.1,1.1,11.2,2.7,11.2,2.7
		s14.7,4,18.5,4.9c5,1.2,6.2-0.4,9-0.4c2.7,0,3.6,2.9,4.4,4.2c0.8,1.3,5,2.7,7.8,3.7c2.8,1,12.8,3.4,20.6,1.9
		c7.8-1.5,14.2-4.6,13.8-2.9c-0.4,1.7-7.6,6.5-16.6,8.1C411.5,258.6,397.2,253.7,392.1,251.7z"/>
	<polygon class="st5" points="330.8,237.9 328.8,239 332.7,243.8 335.3,243.3 	"/>
	<g>
		<path class="st4" d="M342.2,238.3c2.4-0.5,4-2.8,3.5-5.2c-0.5-2.4-2.8-4-5.2-3.5c-2.4,0.5-4,2.8-3.5,5.2
			C337.5,237.1,339.8,238.7,342.2,238.3z"/>
		<line class="st6" x1="337.7" y1="231.1" x2="344.6" y2="236.8"/>
	</g>
	<path class="st2" d="M346.6,223.6c0,0,9.3-3.6,14.3-8.4c5-4.8,19.5-18,26-23.8c6.5-5.9,9.7-8.8,18.6-11.5
		c8.9-2.8,16.8-0.2,17.9-0.2c1.2,0.1,1.6,0.6,0.4,1.3c-1.1,0.7-12.6,0.7-20.3,5.2c-7.8,4.6-19.4,14.1-23.8,18.6
		c-4.4,4.5-15.4,14.1-20,18.2c-4.6,4.1-7.6,5-7.6,5L346.6,223.6z"/>
	<path class="st4" d="M390.3,245.7c0.5-0.1,0.9-0.6,0.8-1.2c-0.1-0.5-0.6-0.9-1.2-0.8c-0.5,0.1-0.9,0.6-0.8,1.2
		C389.2,245.5,389.8,245.8,390.3,245.7z"/>
	<path class="st3" d="M423.4,251.8c7.8-1.5,14.2-4.6,13.8-2.9c-0.4,1.7-7.6,6.5-16.6,8.1c-9,1.6-23.3-3.3-28.4-5.4
		c-4-1.6-19.4-6.4-26.1-8.4l2.2-4.5c4.6,1.3,11,3,13.4,3.6c5,1.2,6.2-0.4,9-0.4c2.7,0,3.6,2.9,4.4,4.2c0.8,1.3,5,2.7,7.8,3.7
		C405.5,250.9,415.6,253.3,423.4,251.8z"/>
	<path class="st2" d="M346.6,223.6c0,0,9.3-3.6,14.3-8.4c5-4.8,19.5-18,26-23.8c6.5-5.9,9.7-8.8,18.6-11.5
		c8.9-2.8,16.8-0.2,17.9-0.2c1.2,0.1,1.6,0.6,0.4,1.3c-1.1,0.7-12.6,0.7-20.3,5.2c-7.8,4.6-19.4,14.1-23.8,18.6
		c-4.4,4.5-15.4,14.1-20,18.2c-4.6,4.1-7.6,5-7.6,5L346.6,223.6z"/>
	<path class="st3" d="M379.6,204.8c-3.2,3.2-9.7,9.1-14.9,13.7l-3.9-3.2c0,0,0,0,0.1-0.1c5-4.8,19.5-18,26-23.8
		c6.5-5.9,9.7-8.8,18.6-11.5c8.9-2.8,16.8-0.2,17.9-0.2c1.2,0.1,1.6,0.6,0.4,1.3c-1.1,0.7-12.6,0.7-20.3,5.2
		C395.7,190.7,384,200.3,379.6,204.8z"/>
</g>
<g id="Nail_Drill">
	<path class="st2" d="M189,271.7c0,0,4.8,0.8,7.8-1c3-1.8,5.4-7.2,4-10.2c-1.4-3-2.8-4.4-4.8-6c-2-1.6-11.4-8.6-16.6-14.8
		c-5.2-6.2-4.2-5.6-7.6-8.4c-3.4-2.8-40.3-17.7-40.3-17.7l-2.3,0.9l-12.3-3.2l-71.2-31.1c0,0-2.8-1.2-6.2,0c-3.4,1.2-7.2,5.4-8,9.8
		c-0.8,4.4,1,8.8,2.4,10s73,37.5,73,37.5s2.4,3.8,7.4,7c5,3.2,33.9,17,49.1,21.6C178.7,270.7,189,271.7,189,271.7z"/>
	<path class="st2" d="M199.7,265.8c-1.4,3.4-4.2,5.4-6.1,4.6c-2-0.8-2.4-4.2-1-7.6c1.4-3.4,4.2-5.4,6.1-4.6
		C200.7,259.1,201.1,262.5,199.7,265.8z"/>
	<g>
		<path class="st5" d="M197.6,263.3c-0.6-0.3-1.5,0.4-1.9,1.5c-0.4,1.1-0.3,2.1,0.3,2.4l9.6,4.3l1.6-3.9L197.6,263.3z"/>
		<path class="st5" d="M207.5,270c-0.4,1.1-1.3,1.7-1.9,1.5c-0.6-0.3-0.8-1.3-0.3-2.4c0.4-1.1,1.3-1.7,1.9-1.5
			C207.8,267.9,207.9,269,207.5,270z"/>
	</g>
	<path class="st3" d="M210.1,262.8c-0.7-0.2-1.5-0.1-2.1,0.5c-1.1,1-2.8,3-4,5.8c-1.8,4.2-1.6,6.1-0.9,6.6c0.6,0.5,8.7,4.7,13.4,5.4
		c4.7,0.6,8.3-1.2,9-3c0.7-1.9-2.4-8.4-6.1-10.9C216.6,265.1,212.2,263.5,210.1,262.8z"/>
	<path class="st4" d="M189.8,270.6c0,0-0.3-4-4.2-6.7c-3.9-2.7-23.8-11.9-33-17.5c-9.2-5.6-13.1-6.2-13.1-6.2l0.6,14.7"/>
	<path class="st4" d="M139.5,240.1c0,0-3.3,4.9-3,9.2c0.3,4.3,2.1,6.1,2.1,6.1"/>
	<path class="st7" d="M122.9,220.3c0,0,0.5,0.2,1.3,0.6c5.4,2.5,26.5,12.5,34.3,17.4c8.9,5.6,21.9,12.6,21.9,12.6
		s-7.6-9.8-10.7-11.4c-3.1-1.6-46.2-21.3-46.2-21.3L122.9,220.3z"/>
	<line class="st4" x1="123.3" y1="218.2" x2="129.2" y2="214.7"/>
	<polygon class="st8" points="139.4,218.7 134.9,221.2 159.3,232.8 164.2,229.2 	"/>
	<path class="st3" d="M165.9,229.3c0,0-2.9,1.3-3.1,1.9c-0.2,0.6-0.2,2.6-0.2,2.6s4.6,3,7.2,3.6c2.6,0.6,4.1-1.2,4.2-1.8
		c0.1-0.6,0.2-2.2-0.8-2.9C172.2,232,165.9,229.3,165.9,229.3z"/>
	<path class="st4" d="M120.8,221.2c0,0-9.1,7.7-6.4,23.4"/>
	<line class="st4" x1="108.4" y1="234.6" x2="111.9" y2="236.6"/>
	<line class="st4" x1="108.6" y1="228" x2="113.1" y2="230.5"/>
	<line class="st4" x1="109.2" y1="222.2" x2="115" y2="225.3"/>
	<line class="st4" x1="113.3" y1="217.7" x2="117.9" y2="220.6"/>
	<line class="st4" x1="117.6" y1="214.8" x2="122.4" y2="216.7"/>
</g>
<g id="Nail_Polish">
	<path class="st3" d="M366.3,77.6c4.9-1.3,9.9-2.3,15-3.1l7.4-1.2l-0.5-2.3c-0.5-2.2-2.7-3.7-4.9-3.2l-22.7,4.7
		c-2.2,0.5-3.7,2.7-3.2,4.9l0.5,2.4L366.3,77.6z"/>
	<path class="st4" d="M419.1,131.5l-64.2,13.3c-2.1,0.4-4.2-0.9-4.7-3.1l-11.1-53.3c-0.4-2.1,0.8-4.1,2.9-4.6l24.3-6.3
		c4.9-1.3,9.9-2.3,15-3.1l25.3-4c2.1-0.3,4,1,4.5,3.1l11.1,53.3C422.6,129,421.2,131.1,419.1,131.5z"/>
	<path class="st3" d="M406.9,95.5c-2.4-6.7-2.3-18.5-3.8-20.8c-1.5-2.3-7.6-0.7-10.9-0.3c-3.3,0.4-3.8-1-3.8-1L377,75.4l0-0.1
		l-3,0.6l-2,0.4l-3,0.6l0,0.1l-11.2,2.8c0,0,0.1,1.5-3.1,2.4c-3.2,0.9-9.4,1.9-9.8,4.6c-0.5,2.7,4.3,13.5,4.8,20.6
		c0.4,7.1,2.3,25.7,6.2,27.5c3,1.3,20.5-2.4,28.4-4.3c8-1.5,25.5-5,27.7-7.4C415.1,120.1,409.3,102.2,406.9,95.5z"/>
	<path class="st9" d="M367.4,74.1c0.1,0.5-1,1.2-2.4,1.5c-1.4,0.3-2.7,0.1-2.8-0.4c-0.1-0.5,1-1.2,2.4-1.5S367.3,73.6,367.4,74.1z"
		/>
	<path class="st9" d="M382.1,70.8c0.1,0.3-0.4,0.7-1,0.8c-0.6,0.1-1.2,0-1.3-0.4c-0.1-0.3,0.4-0.7,1-0.8
		C381.5,70.3,382.1,70.5,382.1,70.8z"/>
	<path class="st9" d="M345.8,88.2c0,0,43.3-10.7,55.6-11.3c0,0,1.1-1.3-0.6-1.7c-1.7-0.3-18.2,1.8-29.8,4.4
		C359.3,82.2,345.7,85.7,345.8,88.2z"/>
	<path class="st3" d="M286.2,111.1l1.7,1c1.1,0.7,2.5,0.4,3.2-0.7l26.7-42.4c0.7-1.1,0.4-2.5-0.7-3.2l-1.7-1
		c-1.1-0.7-2.5-0.4-3.2,0.7l-26.7,42.4C284.8,109,285.2,110.4,286.2,111.1z"/>
	<path class="st5" d="M335.3,12.6c0,0,3.9-2,10.7,2.3c0.5,0.3,2.3,1.4,2.7,1.7c6.8,4.3,6.7,8.7,6.7,8.7l-32.3,58.8l-13.5-8.5
		l-13.5-8.5L335.3,12.6z"/>
	<path class="st3" d="M285.9,110.9c0,0-4.3,2.7-7.8,4.7c-3.5,2-6.6,2.7-6.1,3.5c0.5,0.8,4.5,5.5,6.6,5.2c0.8-0.1,4.2-1.6,5.8-3.9
		c2.2-3.4,4.5-7.6,4.5-7.6L285.9,110.9z"/>
</g>
<g id="Shine">
	<g>
		<g>
			
				<ellipse transform="matrix(0.9721 -0.2346 0.2346 0.9721 -25.2702 45.0452)" class="st0" cx="176.7" cy="128.7" rx="10.9" ry="10.9"/>
			<circle class="st0" cx="254.7" cy="46.5" r="10.9"/>
			
				<ellipse transform="matrix(0.9734 -0.229 0.229 0.9734 -30.9865 76.5614)" class="st0" cx="314.3" cy="171.8" rx="7.2" ry="7.2"/>
			
				<ellipse transform="matrix(0.9731 -0.2305 0.2305 0.9731 -54.3216 84.7555)" class="st0" cx="335.6" cy="274.9" rx="7.2" ry="7.2"/>
			
				<ellipse transform="matrix(0.6788 -0.7343 0.7343 0.6788 -89.8947 178.7307)" class="st0" cx="159.3" cy="192.1" rx="7.2" ry="7.2"/>
			<circle class="st0" cx="315.4" cy="309.1" r="7.2"/>
			
				<ellipse transform="matrix(0.9871 -0.1598 0.1598 0.9871 -6.7268 42.9674)" class="st0" cx="263.8" cy="63.3" rx="7.2" ry="7.2"/>
			
				<ellipse transform="matrix(0.9731 -0.2305 0.2305 0.9731 -66.7647 48.9732)" class="st0" cx="176.3" cy="310.3" rx="7.2" ry="7.2"/>
			<circle class="st0" cx="327.8" cy="159.2" r="11.7"/>
			<circle class="st0" cx="281.1" cy="285.8" r="11.7"/>
		</g>
	</g>
</g>
</svg>
