<?xml version="1.0" encoding="utf-8"?>
<!-- Generator: Adobe Illustrator 23.1.0, SVG Export Plug-In . SVG Version: 6.00 Build 0)  -->
<svg version="1.1" id="Слой_1" xmlns="http://www.w3.org/2000/svg" xmlns:xlink="http://www.w3.org/1999/xlink" x="0px" y="0px"
	 viewBox="0 0 200 200" style="enable-background:new 0 0 200 200;" xml:space="preserve">
<style type="text/css">
	.st0{fill-rule:evenodd;clip-rule:evenodd;fill:#BF8294;}
	.st1{fill:#BF8294;}
</style>
<g>
	<g>
		<path class="st0" d="M75.6,69c0.3,1.9-0.2,3.8-0.6,5.4c-0.4,1.6-1,3.2-2,4.4c-1.3,1.5-3.2,2.1-4.7,3.2c-1.2,1-2.3,2.5-3.4,3.7
			c-3.3,3.6-6.4,7.6-9.1,11.8c0.7-0.4,1.8-0.2,2.8-0.6c1.3-0.5,2.1-2.5,3.8-3.1c1.5-0.5,3.3-0.4,5-0.6c1.5-0.2,2.9-0.8,4.4-0.4
			c0.5,1.4-1.2,2.1-1.9,2.9c-2.1,2.3-4.6,5.4-9.1,3.7c-0.7-0.3-1.4-1.1-2.2-1.2c-1-0.1-3.2,0.6-3.9,1.2c-1.4,1-2.4,3.9-3.2,6.1
			c-0.9,2.5-1.4,5-1.8,7.6c-0.8,5.5-1,11.6-1.9,16.7c-2,10.7-6.9,19-9.8,27.3c1.5-1.2,5-1,8-1.5c1.9-0.3,3.6-1.5,5-0.9
			c-0.1,2.1-1.4,4.1-2.8,5.1c-1,0.8-2.7,1.3-4.7,0.9c-1.7-0.4-3.6-2.3-5.3-1.8c-0.6,0.2-1.5,1.7-1.8,2.5c-0.5,1.4-0.7,3.1-1,4.7
			c-0.9,4.4-1.8,9.7-1.8,15c0.7-1.4,1.9-2.3,2.3-3.8c0.4-1.4,0.2-2.6,0.4-3.7c0.4-1.5,1.2-3.2,2.2-4.2c1.7-1.8,3.6-2.8,5.3-4.7
			c0.4-0.5,0.9-1.5,1.9-1.3c0.7,1.9-0.2,3.9-0.6,5.7c-0.4,2.4-0.7,4.7-1.9,6.3c-0.7,0.9-1.7,1.4-2.6,1.9c-1,0.5-2,0.7-3.1,1.3
			c-1.9,1-3.6,3.9-3.8,6.3c-0.2,2,0.4,4.7,0.7,7.5c0.1,0.6,0.2,2.2,0.4,3.7c0.2,1.2,0.6,2.8-0.4,2.9c-1.5,0.2-1.2-3.4-1.3-4.5
			c-0.1-0.7-0.2-1.7-0.3-2.6c-0.1-1,0.1-2.2-0.1-2.8c-0.4-1-1.9-1.7-3.1-2.5c-1.2-0.8-2.6-1.2-3.6-1.9c-3-1.9-3.8-6.4-5.6-9.8
			c-0.5-1-1.5-2.2-1.2-3.4c1.1-0.2,1.7,0.8,2.5,1.3c3,2.1,6.6,3.6,7.2,8.5c0.1,0.9-0.1,1.9,0.3,2.8c0.6,1.2,2.4,1.7,3.2,2.6
			c-0.6-3.5,0.4-7.4-0.1-10.1c-0.3-1.3-1.5-2.5-2.5-3.7c-2.8-3.4-5.7-6.6-6.9-11.4c-1.3-0.8-2.7-1-3.9-1.5c-2.6-0.9-4.1-2.8-5.7-5
			c-0.7-0.9-1.9-1.9-1.8-3.2c2-0.3,3.7,0.9,5.3,1.6c1.6,0.8,3.1,1.6,4.4,2.6c-0.8-2-1.6-4.2-2.5-6.3c-0.3-0.7-0.5-1.4-0.9-1.9
			c-0.9-1-2.6-1.4-3.5-2.6c-1.4-1.8-1.1-5.2-1.5-8.5c-0.1-0.7-0.3-1.5-0.4-2.2c-0.1-0.6-0.4-1.5,0.3-1.9c1,0.1,1.3,1.2,1.8,1.9
			c0.4,0.7,0.8,1.5,1.3,2.2c1.2,1.8,3,3.6,3.2,6.3c0.1,1-0.3,2.2-0.1,3.4c0.1,0.7,0.5,1.3,0.9,2c0.9,2,1.6,4.4,2.5,6.3
			c0.1-1.3,0.5-2.4,1-3.7c0.4-0.9,0.9-2.8,1.9-2.8c1.2,0,1.6,3.2,1.9,4.4c0.5,1.8,1.2,3.4,1.2,5c-0.1,2.8-2.9,4.2-2.3,7.3
			c0.3,1.7,2.2,3.5,3.2,4.7c1.4,1.7,2.1,2.7,3.5,4.4c0-1.9,1-4.3,1-6.1c0-2.2-1.3-4.9-2-6.9c-0.8-2.2-1.7-4.5-2.2-6.7
			c-1.3-5.3-0.4-10.6-2.5-15.3c-2.8-1.5-6-1.5-7.6-4.1c-0.8-1.3-1.2-3.3-1.6-5c-0.4-1.7-1.3-3.4-1-5.3c1.4-0.1,2.1,1.2,2.8,1.9
			c0.8,0.8,1.5,1.6,2.5,2.2c-0.1-1.2,0.2-2.5,0.3-3.8c0.1-1.5-0.3-3.2,0.3-4.5c1.4-0.2,1.9,2,2.6,3.5c1.1,2.4,2.5,6.1,1,9.2
			c0.7,3.2,3,6.5,3.5,10.2c0.4,3.1,0,6.2,0.7,9.4c0.3-0.9,1-1.9,1-3.1c0.1-1.8-0.7-3.6-0.4-5.6c0.2-1.9,0.8-3.6,1-5.7
			c0.1-0.6-0.3-1.4,0.4-1.8c1.2,0.2,1.1,2.4,1.6,4.2c0.6,2.2,2.2,5.5,1,7.7c-0.5,0.9-1.6,1.3-2.5,1.9c-0.6,2-1.5,3.7-1.2,6
			c0.4,2.7,2.3,5.4,2.8,7.7c1.3-4.7,2.6-8.8,4.4-13.1c0.8-1.9,2.4-3.8,1.5-6.3c-0.4-1-1.4-2.1-2.2-3.1c-1-1.1-2.4-2.1-2.6-3.7
			c-0.4-2.1,0.1-4.6,0-6.9c-0.1-1.6-0.8-3.1,0-4.4c1.1-0.1,1.3,1.2,1.6,1.9c1.4,2.8,3.8,5.2,3.4,9.8c-0.1,0.9-0.5,1.8-0.4,2.8
			c0.1,1.3,1.3,2.3,1.6,3.4c1.1-2.5,2.4-5.8,3.4-8.9c0.5-1.7,1.3-3.2,0.6-5c-0.5-1.4-2.1-2.2-3.4-3.4c-1.4-1.3-3.2-3.1-3.7-5
			c-0.4-1.8-0.4-4-0.7-6.1c-0.2-1-0.3-1.9-0.6-2.9c-0.2-0.8-0.7-1.8-0.1-2.6c0.8-0.5,1.5,0.4,1.9,0.9c2,1.9,5,4.2,5.4,7.7
			c0.3,2.5-0.8,5.5,0,7.7c0.4,1.1,1.5,1.5,2,2.5c0.7-4.2,1.4-10.2,1.8-15.3c0.1-1.3,0.1-3.3-0.1-4.4c-0.3-1.1-1.4-3.1-2.3-3.2
			c-1.5-0.1-2.8,0.5-4.1,0.3c-3.4-0.6-4.7-5-5.6-8.6c-0.2-0.7-0.6-1.6,0.1-2.2c1.6,0.5,2,2.3,3.1,3.5c1.9,2.1,4.7,2.6,7,4.4
			c-1.2-2.7-2-5.6-3.7-8.5c-1.9-3.3-4.4-5.4-3.8-10.5c0.2-1.3,1.2-2.4,1.8-3.7c0.4-0.8,0.4-2.2,1.2-2.3c1.3-0.2,1.9,3.5,2.2,5.1
			c0.6,3.5,0.4,6.1,0.6,9.6c0.3,6.1,3.8,9.1,4.5,14.5c1-3.4,1.9-5.7,3.7-8.6c0.5-0.8,1.4-2,1.5-2.6c0.1-1.3-1.5-2.7-2-3.9
			c-1.5-3.8,0.3-7.4,1.2-10.7c0.1-0.6,0.1-1.6,0.9-1.9c1.3-0.1,1.4,1.9,1.8,3.2c0.5,1.9,1.3,3.7,1,6.3c-0.2,1.9-1.3,3.2-1.3,4.8
			c0.9-0.6,1.5-2,2.6-3.5c1.3-1.8,3.5-2.9,3.1-6.1c-0.1-0.9-0.9-2.1-1-3.2c-0.4-2.9,0.4-5.2,1.2-7.7c0.4-1.3,1-3.9,1.8-3.9
			c1,0,1.1,3,1.3,4.2c0.3,2.4,0.8,4.4,0.3,6.6c-0.3,1.5-1.5,2.6-1.8,4.2c0.8-0.5,1.6-1.4,2.3-2.2c0.7-0.7,1.6-1.6,2.2-2.5
			c1.2-1.9,1.6-4.5,2.8-6.6c1.2-2.1,2.9-3.3,4.1-5.1C74.6,68.7,75.2,68.8,75.6,69z M69.5,79.6c2.8-1.2,4.3-4.5,4.5-7.9
			C72,73.9,70.6,76.6,69.5,79.6z M62,83.6c2-1.8,1.6-5.6,1.2-8.9c0-0.2-0.2-0.2-0.3-0.3C62.2,77.2,60.8,80.5,62,83.6z M43.2,94
			c-0.2-4.3-0.1-8.7-1.3-12C38.7,85,40.6,91.7,43.2,94z M54.3,94.3c0.2-1.5,1.2-2.9,1.3-4.7c0.1-2-0.7-3.8-1-5.6
			c0-0.1-0.1-0.2-0.3-0.1C53.3,87,51.8,91.7,54.3,94.3z M60.3,97.6c3.6,2.4,6.5-0.4,8.2-2.3c0.2-0.3,1.2-0.7,0.6-0.9
			C65.5,94.9,61.3,94.6,60.3,97.6z M45.5,105.4c-2.3-1.8-5.7-2.5-7.4-4.8C38.6,104.1,41.2,106.9,45.5,105.4z M40.2,123.3
			c0.2,0.5,0.8,1.1,1.2,1.6c0.3,0.4,1.2,1.3,1.3,0.9c0.1-1.8,0.4-3.9,0.3-5.6c-0.3-3.2-2.3-4.8-4.2-6.6
			C39.8,116.4,39,120.8,40.2,123.3z M24.5,131.2c0,0.4,0.8,1.3,0.9,0.7c0.8-2.9-0.5-6-1.6-7.9C23.9,126.7,22.4,130,24.5,131.2z
			 M20.8,134.6c1.2,1.7,3.6,2.1,5.6,2.6c-1.7-4-4.7-6.6-7.6-9.4C19.7,130.1,19.6,132.8,20.8,134.6z M37.8,139.7
			c0.2,0.2,0.8,0.9,0.9,0.4c1.2-3.3-0.4-6.7-1.9-8.6C36.7,134.7,36.5,138.2,37.8,139.7z M17.8,146.1c0.6-4.3-1.5-6.4-3.2-8.8
			C14.6,141.3,14.6,145.3,17.8,146.1z M33.1,148.9c2.2-1.2,0.6-4.9,0-6.7C32.5,143.9,32.1,147.2,33.1,148.9z M25.2,162
			c0.3-1.7,1.8-2.7,1.9-4.4c0.1-1.8-1.8-5.4-1.9-6.9C23.3,153.2,23.5,159.6,25.2,162z M22.1,159.6c-1.4-3-4.6-4.3-7.7-5.7
			C15.9,156.7,18.4,159.4,22.1,159.6z M40.1,157.8c1.9,0.4,3.4,2,5.6,1.8c1.9-0.3,2.7-1.8,3.7-3.4C46.8,157.3,42.7,156.8,40.1,157.8
			z M37.5,177.2c5.2-0.6,6.7-5.7,6.9-10.8C41.5,169.4,37.4,171.3,37.5,177.2z M28,183.8c0.1-5.1-2.6-7.5-5.8-9.2
			C23.8,177.9,24.4,183,28,183.8z"/>
		<g>
			<path class="st0" d="M152.3,18.6c5.4-0.6,13-1,15.6,2.5c0,3.8,0.2,7.5,0.3,11.2c7.7,2.3,17,3.4,23.5,7.3c0.8,0.5,2.1,1,2,2.3
				c-0.2,0.5-0.9,0.7-1.8,0.6c-2.2,4.7-10.2,5.2-16.5,4.2c-2.1-0.3-4.4-0.9-6.9-0.6c0,0.7,0,1.5,0,2.2c4.7,0.9,9.1,2.5,13.7,4.1
				c2.8,1,6.4,2.3,9.2,4.1c1.5,1,3.6,3.2,0,3.2c-2.8,2.8-7,3.9-12.4,3.5c-3.8-0.3-7-2.3-10.2-2.8c-0.1,1.4,1.3,1.7,2,2.3
				c2.5,1.9,4.3,4,4.2,8.8c0.9,0.8,2.2,1.3,3.4,2c1,0.6,2.4,1.3,2.3,2.6c0,0.8-1,0.6-1.8,0.6c-0.9,1.7-2.4,2.8-4.5,3.2
				c-0.9,9.6-2.3,18.7-7,24.5c2.1,0.7,4,1.6,5.6,3.1c0.8,0.7,1.5,1.6,1.5,2.5c-0.1,2.6-5.9,4-8.2,4.7c-3.8,1.1-7.3,1.7-10.4,2.3
				c-3.4,0.7-6.5,2.3-9.9,2.9c-7.1,1.4-14.8,2.3-21.2,4.4c-7.9,2.6-14,7.2-21.2,10.7c-0.7,0.4-1.4,0.7-2.2,1
				c-0.7,0.3-1.6,0.4-2.3,0.7c-1.6,0.8-3.1,2.5-4.4,3.9c-1.4,1.5-2.6,3-3.5,4.7c-2.1,3.8-3.1,7.7-4.2,12.1
				c-7.2,1.3-15.6-0.3-21.3-2.2c-4.3-1.4-8.7-3.2-12.4-5.8c-1-0.7-2.9-2.2-3.1-2.9c-0.2-0.9,0.5-4,0.7-5.1
				c2.8-15.1,10.7-24.3,17.5-35.1c1.5-2.4,2.8-5,4.2-7.5c3-5.1,5.3-10.3,7.7-15.6c2.3-5.1,5.1-11.5,8-15.3
				c3.4-4.3,7.9-7.5,11.2-12.1c3.1-4.3,5.7-10,8-15.3c2.4-5.5,4.5-11.4,8.2-15.2c2.5-2.5,5.9-4.6,9.2-6.6c3.3-2,6.8-3.8,10.2-5.6
				c3.3-1.7,7-3.1,10.7-5.1c3.5-1.9,7.3-4.1,11.7-4.5c1.6-0.1,2.8,0.3,3.1,0.7c0.2,0.4-0.1,0.6-0.1,1.3c-0.1,1.1-0.2,2.9-0.6,3.9
				C158.7,13.4,155,16.3,152.3,18.6z M148.2,8.8c0.5,0.5,1.4,0.5,2,0.4c1.6-0.1,3.4-1.1,5-1.8c1.6-0.7,3.3-1.4,4.2-2.5
				C154.8,5.4,151.3,6.8,148.2,8.8z M83.8,137.2c-1.5-0.3-3.9-0.3-3.9-1.6c0.9-0.8,2.3-0.2,3.2,0c1.2,0.2,2.4,0.6,3.5,0.7
				c8.2,1.2,15.1-1.2,20.3-4.2c7.2-4.1,14-8.8,23.2-10.4c-0.1-1.4-1.5-3.9-0.3-4.8c1.5,0.5,0.7,3.7,1.8,4.5c0.3-0.2,0.8-0.1,1.2-0.3
				c0.3-0.7-1.3-2.2,0-2.6c1.1,0.2,0.9,1.6,1.5,2.3c4.2-1.1,8.4-1.3,12.4-2.2c3.9-0.8,7.3-3.1,11.5-3.2c-0.1-1-1.1-2.3-0.7-3.7
				c0.3-1.5,2.5-2.5,4.7-3.2c2.8-0.9,5.8-1.4,8.2-1.3c-3.9-2.4-9.4-2.9-15-2.3c-4.3,0.4-8.1,1.1-11,2.5c-0.8,0.4-2,1.8-2.9,0.7
				c0-1.4,1.8-1.1,2.2-2c-4.4-0.5-9.1-0.1-13.7-0.3c-4.7-0.2-8.6-0.8-13-0.4c-1,0.1-2.9,0.7-3.2-0.6c0.4-1,1.8-0.7,2.8-0.7
				c2-0.1,4.3-0.5,6.1-0.1c-0.9-0.9-1.9-1.7-2.9-2.8c-2.8-2.8-5.6-7.3-6-12.3c-0.3-4.6,0.7-8.2,1.5-11.5c0.2-0.7,0-1.9,1-1.9
				c0.8,0.5,0.3,1.5,0.1,2.2c-0.7,4.3-2.1,8.8-0.9,13.6c1.2-1.1,2.3-2.3,3.5-3.4c1.2-1.1,2.5-2,3.7-3.2c1.4-1.4,2.5-3.3,4.1-4.5
				c3.5-2.6,8.5-2.9,12.7-5.1c-0.1-3.3-0.1-6.5,1-8.6c-2.6,0.8-5.5,1.2-7.7,2.3c-1.2,0.6-2,2.2-3.4,1.6c0-1.2,1.2-1.8,2-2.3
				c0.9-0.6,2-1.1,3.1-1.5c2.3-0.7,5.1-0.8,7-1.9c1.7-0.9,2.6-2.6,4.4-3.2c0.2-4.1,0.4-8.1,0.6-12.1c-3.1,0-3.9,1.7-5.8,3.2
				c-4.2,3.3-9.4,5.7-12.4,9.4c-0.4,0.5-0.9,1.7-1.9,1.2c-0.2-1,0.6-1.8,1.2-2.5c3.2-3.6,7.5-5.6,11.4-8.5c1.5-1.1,3.1-3,4.5-3.5
				c1.1-0.4,2.4-0.3,3.2-0.7c0.1-5.5,0.5-10.8,0.7-16.2c-4.7-0.5-7.6,1.4-10.2,3.1c-3.6,2.3-6.9,4.4-11.2,5.8
				c-3,5.4-2.4,14.6-4.2,20.9c-0.2,0.8-0.4,2.2-1.5,2.2c-0.7-0.5-0.3-1.6-0.1-2.2c0.2-0.8,0.6-1.6,0.7-2.3c1-5,1.2-10.9,2.5-15.6
				c1.1-4,4.4-8.2,6.9-11.2c0.9-1.2,1.9-2.4,2.8-3.4c2-2.2,4.3-3.8,7-5.1c5.2-2.6,11.3-5.1,15.2-9.1c2-2,3.9-4.4,4.5-7.6
				c-1.2,0.4-2.8,1.5-4.7,2.2c-1.7,0.7-4.1,1.6-5.8,1.3c-0.9-0.1-1.3-0.9-2.2-1.2c-9.3,4.7-20.2,9.1-27.9,15.5
				c-2.6,2.2-4.5,4.8-6.1,8.3c-4.7,10.1-8.2,20.6-15.5,27.9c-2.5,2.5-5,4.8-7.2,7.5c-4.1,5.2-6.8,12.6-9.8,19.1
				c-3,6.5-6.5,12.8-10.1,18.8c-5.3,8.9-12.2,16.6-15.8,27.6c-0.8,2.4-1.7,5.8-2.2,8.8c-0.2,1.2-0.6,2.7-0.4,3.2
				c0.2,0.9,1.8,1.9,2.9,2.6c7.7,5.4,18.9,8.5,31.3,7.9c1.8-8.1,4.9-14.8,10.4-19.1c0.1,0,0.2-0.1,0-0.1
				C92.5,138.4,87.4,137.9,83.8,137.2z M160.2,19.6c-3.9-0.2-8.6,0.1-11,1.5c1,1.4,3.7,1.7,6,1.9c4,0.3,8.6,0,11.1-1.5
				C165.2,20.1,162.6,19.8,160.2,19.6z M147.5,21.4c-4.3,2.6-8.7,3.6-12.1,6.9c-3.1,3-5.4,6.2-8.2,10.2c2.5-1.1,4.7-2.1,6.9-3.5
				c2.1-1.3,4-3.1,6.4-3.9c2-0.7,4.3-0.4,6.9-0.9C147.2,27.1,147.9,24.2,147.5,21.4z M148.9,23c-0.5,12.9-1.4,26-1.8,38.6
				c2,1.9,6.1,2.3,10.1,2.3c3.9,0,8.2-0.3,10.4-2c-0.3-13-0.5-26.1-1.2-38.9C162,25,153.5,24.8,148.9,23z M168.7,44.9
				c4-0.5,7.1,0.9,11,1c4.3,0.2,8.5-0.7,10.5-2.6c0,0,0.8-0.6,0.3-0.7c-3.7-1.2-8.6-1.3-9.4-5.6c-4.1-1.2-8.6-2.1-12.9-3.2
				C168.5,37.4,168.3,41.4,168.7,44.9z M182.7,38c1.9,2,5.7,2.9,8.9,3.1c-2.8-1.5-5.6-2.9-9.1-3.7C182.5,37.7,182.6,37.9,182.7,38z
				 M169,59.2c3.5,0.3,6.7,2.5,10.7,2.8c4.1,0.3,7.6-0.4,10.1-2.3c-3.8-1.3-10.4-1.7-10.4-6.7c-3.7-0.9-6.3-2.8-10.7-3.1
				C168.9,52.9,168.9,56,169,59.2z M183,56.1c2.5,1.2,6.2,2.2,8.8,2.2c-3.2-2.1-7-3.7-11.2-4.8C180.7,55,181.7,55.5,183,56.1z
				 M141.6,66.5c-1.9,3.6-0.9,9.5-0.4,14.3c0.8,8.9,2.1,20.1,7.4,23.5c5.2-0.7,12-1.7,17.2-0.3c4.8-3.8,6.5-14.9,7.5-23.4
				c0.4-3.4,0.8-6.8,0.6-9.8c-0.3-4.3-2.4-6.5-5.4-8c-4.8,3.3-17.5,3.4-22.4-0.3C144.8,63.6,142.6,64.6,141.6,66.5z M178.2,75.3
				c0.6,0-0.2-0.4-0.3-0.4c-0.8-0.6-1.9-1.2-2.6-1.6c0,0.3,0,0.7,0,1C176.3,74.5,177.2,74.9,178.2,75.3z M175,78.6
				c1.4-0.3,2.4-1,2.9-2.2c-1.1,0-1.7-0.6-2.8-0.7C175.2,76.8,174.9,77.5,175,78.6z M145.7,103.6c-4.8-6.3-5.4-17-6.3-27
				c0-0.1,0-0.2-0.1-0.1c-4.2,2.3-9.4,2.3-12.4,5.1c-1.8,1.7-2.8,4.4-3.7,7c-1.2,3.6-2.3,7.6-3.8,10.5c2.3,3.2,5.9,4.9,11.1,5.3
				c5,0.4,10.8,0.1,15.9,0.4C146.6,104.2,146,104,145.7,103.6z M119,89.4c-0.7,0.6-2.8,2.7-2.9,3.5c-0.1,0.8,0.7,1.7,1.2,2.5
				c0.5,0.9,0.7,1.8,1.3,2.3c1.5-3.4,2.7-8,3.8-11.2C121.5,87.4,120.2,88.3,119,89.4z M167.2,113.1c1.2-0.4,6.3-1.6,6-3.2
				c-0.2-1.2-4-1.3-5.7-1.2c-4,0.4-12,2.6-7.6,6.3C162.4,114.5,164.6,113.9,167.2,113.1z"/>
			<g>
				<path class="st0" d="M119.1,32c-1.4,0.7-2.3-1.2-3.5-1.6c0-0.4-0.1-0.8,0.1-1c0.1,0,0.2,0,0.3,0C117.2,30,118.9,30.4,119.1,32z"
					/>
				<path class="st0" d="M116.9,33.3c-0.1,0-0.1,0.2-0.1,0.3c-1,0.3-1.8-0.6-2.3-1.2C114.8,30.9,116.8,32.4,116.9,33.3z"/>
			</g>
			<g>
				<path class="st0" d="M142.7,33.3c0.5,0.8,0.8,2.1,1,3.2c0.2,1.1,0.9,2.5,0,3.2c-1.1-0.2-0.9-1.7-1.2-2.8
					c-0.2-1.1-0.7-2.1-0.7-3.2c0-0.2,0.1-0.3,0.1-0.4C142.2,33.3,142.4,33.3,142.7,33.3z"/>
				<path class="st0" d="M140.8,34.5c0.5,0.7,0.6,2.1,0.4,2.9c-0.2,0-0.3,0-0.3,0.1C139.8,37.7,139.2,34.4,140.8,34.5z"/>
			</g>
			<g>
				<path class="st0" d="M159.2,62.1c-0.3,1.3-2.2,0.9-3.4,0.9c-2.3-0.1-5.3-0.5-6.3-1.6c0.1-0.2,0.2-0.4,0.3-0.6
					c0.1,0,0.1-0.1,0.3-0.1c1.8,0.8,4.5,0.8,7.3,1C158,61.7,158.8,61.4,159.2,62.1z"/>
				<path class="st0" d="M163.7,61.5c0.1,1.2-2.4,1.4-2.9,0.6C160.9,61.2,163.2,60.8,163.7,61.5z"/>
			</g>
			<g>
				<path class="st0" d="M163.3,68.5c-0.6,1-2.3,0.6-3.4,0.6c-2.8,0-6,0-8.6,0.3c-0.9,0.1-1.8,0.7-2.5,0c-0.2-1.2,1.3-1.1,2.2-1.2
					c2.8-0.3,5.8-0.4,9.2-0.4C161.4,67.8,163,67.5,163.3,68.5z"/>
				<path class="st0" d="M168.2,68.7c0.2,1.1-1.9,0.8-2.3,0.4C165.5,67.9,168,68,168.2,68.7z"/>
			</g>
			<g>
				<path class="st0" d="M170.6,85.9c0.5,1,0,2-0.1,3.1c-0.5,2.9-1.1,6.7-2.5,8.9c-1.9,3-6.1,4.3-11.1,4.1c-0.6,0-1.7,0.3-1.9-0.6
					c0.3-1.3,2.7-0.6,3.9-0.7c3.2-0.2,6.4-1.1,7.9-3.5c1.8-2.9,1.7-6.9,2.9-10.8c0-0.2,0.1-0.4,0.3-0.4
					C170.2,85.9,170.4,85.9,170.6,85.9z"/>
				<path class="st0" d="M145.6,93.4c0.8,0.1,1.1,1.4,0.7,2.2C145,95.9,144.5,93.6,145.6,93.4z"/>
				<path class="st0" d="M152.9,101.4c-2.8,0.1-5.6-1.5-6.1-4.1c0.1-0.2,0.6,0,0.6-0.3c0.1,0.1,0.2,0.2,0.4,0.1
					c0.7,1.4,1.8,2.1,3.4,2.8C151.8,100.2,153.1,100.2,152.9,101.4z"/>
			</g>
		</g>
		<path class="st0" d="M121.9,134.3c0.5,0.9-0.3,1.8-0.7,2.3c-2.2,2.9-4.4,6.1-8.2,7.9c-1.2,0.6-3.1,1.2-3.8,2
			c-0.6,0.7-0.8,1.7-1.2,2.5c-0.4,0.8-0.7,1.6-1.2,2.5c0.8-0.2,1.4-1.2,2.5-1.6c1.6-0.6,3.9-0.5,5.8-0.9c1.5-0.3,2.9-1.2,4.1-0.4
			c-0.1,1.5-1.6,2.2-2.5,3.1c-0.9,0.8-1.8,1.9-3.1,2.5c-2.5,1-5.4,0.6-7.6,1.8c-2,1.1-2.2,3.1-3.5,4.8c1.7-0.8,4.4-0.4,7-0.6
			c1.5-0.1,2.9-0.8,3.9-0.1c0.2,1.1-1.1,1.6-1.9,2.2c-1.4,1-2.6,2.4-4.8,2.5c-2,0.1-3.5-1.4-5.3-1.3c-2,0.1-4.1,3.5-5.3,4.7
			c-1.8,1.8-3.2,3.3-4.7,5.1c2.7-0.7,4.7-0.3,7-0.4c4.4-0.3,7.5-3.4,11.7-3.5c2.6-0.1,5.6,1,8.3,1.3c0.9,0.1,2-0.2,2.6,0.6
			c-0.2,1.3-2.1,1.9-3.2,2.5c-2,1-3.9,2.2-7,1.9c-1.4-0.2-2.6-0.8-3.8-1.3c-1.2-0.5-2.6-1.2-3.8-1.2c-1.3,0-2.6,0.9-4.2,1
			c-1.4,0.1-2.7-0.1-4.2,0c3.4,1.2,4.9,4.2,7.3,6.6c0.5,0.5,1.4,0.9,1.2,1.9c-1.4,0.7-2.7-0.4-4.1-0.7c-1.5-0.4-3.1-0.4-4.4-1
			c-2.5-1.3-3.8-4.1-6-5.4c-2.1,1.3-4.6,1.7-7,2.6c-3.3,1.3-6,3.5-8.9,5.6c-1.3,0.9-3.1,2.7-4.1,0.9c0.2-1,1.3-1.5,2.2-2
			c2.5-1.4,5.2-3.3,7.9-4.7c4.2-2,8.3-2.2,11.4-5.3c1-0.9,1.8-2.3,3.1-3.7c1-1.1,2.8-2.2,2.9-3.7c0.1-1.4-1.2-2.9-1.8-4.4
			c-0.9-2.2-1.4-4.8-0.6-7c0.7-2.2,2.2-4.3,3.5-6.3c0.3-0.5,0.7-1.6,1.6-1.3c1,0.5,0.1,1.6,0,2c-0.3,1.2-0.8,2.4-0.6,4.2
			c0.3,3,2.6,5.6,1.5,9.2c0,0.1-0.1,0.1-0.1,0.3c0.6-0.7,1.3-1.5,1.8-2.3c1.9-3.4,3.6-8,5.4-11.8c0.5-1,1.1-1.9,1.5-2.8
			c0.7-1.7,0.7-3.2,1.6-4.5c1.9-2.8,5.9-3.7,9.4-5.4C120.2,134.7,121,133.9,121.9,134.3z M110.2,144.4c4-1.4,6.6-4.2,8.9-7.3
			c0-0.2,0-0.3-0.3-0.3C115.2,138.4,110.4,139.7,110.2,144.4z M109.6,151.2c-1.5,0.7-2.3,2.1-3.4,3.1c2.2-0.8,5.3-0.6,7.3-1.6
			c0.5-0.3,1-0.9,1.5-1.3c0.4-0.3,1.5-0.8,1-1.2C113.8,150.8,111.5,150.4,109.6,151.2z M95,156.1c0,2.9,1.9,5.6,2.8,7.7
			c2.8-3.9-0.2-8.6-0.7-12.9C96.3,152.7,95.1,154,95,156.1z M102.9,162.2c2.5,1.4,6.1,1.3,7.3-0.7
			C107.6,161.5,104.6,161.2,102.9,162.2z M105.6,172.1c2,0.4,3.7,1.9,6,2c2.7,0.2,4.7-1.3,6.7-2.3
			C114.4,171.1,108.6,169.6,105.6,172.1z M100.3,180.6c-1.7-2.6-4.4-6.2-9.3-5.6C93.3,177.6,95.6,180.3,100.3,180.6z"/>
	</g>
	<path class="st1" d="M80.5,54.4c-0.4,0-0.7-0.3-0.7-0.6c-1.8-13-9.4-15-9.7-15.1c-0.3-0.1-0.5-0.3-0.6-0.6c0-0.3,0.1-0.6,0.4-0.7
		c9.7-4.2,9.8-14.6,9.8-15v0c0-0.4,0.3-0.7,0.7-0.7c0.4,0,0.7,0.3,0.7,0.7v0c0,0,0,0,0,0v0c0,0,0,0,0,0l0,0c0,0,0,0,0,0c0,0,0,0,0,0
		c0,0,0,0,0,0c0,0,0,0,0,0c0,0,0,0,0,0c0,0,0,0,0,0c0,0,0,0,0,0c0,11.5,9.4,14.9,9.8,15c0.3,0.1,0.5,0.4,0.5,0.6
		c0,0.3-0.1,0.6-0.4,0.7c-9.8,4.7-9.9,14.9-9.9,15C81.2,54.1,80.9,54.4,80.5,54.4C80.5,54.4,80.5,54.4,80.5,54.4z M72,38
		c2.3,1.1,6.4,4.2,8.4,11.6c0.9-3.5,3.2-8.3,8.7-11.5c-2.4-1.2-7.1-4.4-8.8-10.8C79.3,30.7,77,35.2,72,38z"/>
	<path class="st1" d="M55.9,62.6c-0.4,0-0.7-0.3-0.7-0.6c-1-7.5-5.3-8.6-5.5-8.6c-0.3-0.1-0.5-0.3-0.6-0.6c0-0.3,0.1-0.6,0.4-0.7
		c5.5-2.4,5.6-8.3,5.6-8.6v0c0-0.4,0.3-0.7,0.7-0.7c0.4,0,0.7,0.3,0.7,0.7l0,0c0,0,0,0,0,0c0,0,0,0,0,0v0c0,0,0,0,0,0
		c0,6.6,5.4,8.5,5.6,8.6c0.3,0.1,0.5,0.4,0.5,0.6c0,0.3-0.1,0.6-0.4,0.7c-5.6,2.7-5.7,8.4-5.7,8.6C56.6,62.3,56.3,62.6,55.9,62.6
		C55.9,62.6,55.9,62.6,55.9,62.6z M51.5,52.6c1.3,0.8,3.2,2.4,4.3,5.8c0.7-1.9,2-4.1,4.6-5.7c-1.4-0.8-3.5-2.5-4.6-5.4
		C55.1,49.1,53.8,51.1,51.5,52.6z"/>
	<path class="st1" d="M140.4,154.3c-0.4,0-0.7-0.3-0.7-0.6c-1-7.5-5.3-8.6-5.5-8.6c-0.3-0.1-0.5-0.3-0.6-0.6c0-0.3,0.1-0.6,0.4-0.7
		c5.5-2.4,5.6-8.3,5.6-8.6v0c0-0.4,0.3-0.7,0.7-0.7c0.4,0,0.7,0.3,0.7,0.7l0,0c0,0,0,0,0,0c0,0,0,0,0,0v0c0,0,0,0,0,0
		c0,6.6,5.4,8.5,5.6,8.6c0.3,0.1,0.5,0.4,0.5,0.6c0,0.3-0.1,0.6-0.4,0.7c-5.6,2.7-5.7,8.4-5.7,8.6
		C141.1,154,140.8,154.3,140.4,154.3C140.4,154.3,140.4,154.3,140.4,154.3z M136,144.3c1.3,0.8,3.2,2.4,4.3,5.8
		c0.7-1.9,2-4.1,4.6-5.7c-1.4-0.8-3.5-2.5-4.6-5.4C139.6,140.8,138.4,142.8,136,144.3z"/>
</g>
</svg>
