<?xml version="1.0" encoding="utf-8"?>
<!-- Generator: Adobe Illustrator 23.1.0, SVG Export Plug-In . SVG Version: 6.00 Build 0)  -->
<svg version="1.1" id="Слой_1" xmlns="http://www.w3.org/2000/svg" xmlns:xlink="http://www.w3.org/1999/xlink" x="0px" y="0px"
	 viewBox="0 0 32 32" style="enable-background:new 0 0 32 32;" xml:space="preserve">
<style type="text/css">
	.st0{fill:#FFFFFF;}
	.st1{fill:#EC6182;}
</style>
<circle class="st0" cx="16" cy="16" r="16"/>
<path class="st1" d="M15.94,0C7.07,0-0.13,7.2-0.13,16.06s7.2,16.06,16.06,16.06c5.19,0,9.8-2.46,12.74-6.27
	c-0.03,0-0.08,0.02-0.11,0.02c0,0-4.35-2.43-4.5-7.97c0,0,0.06-2.31,0.24-2.73c0,0-2.25,2.04-3.15,2.59c0,0-1.49,1.38-1.99-1.75
	c-0.5-3.13-0.59-3.04-0.59-3.04l-1.62,1.65l-0.56,5.83c0,0,0.05,1.94-2.41,1.49c0,0-0.82-0.08-1.11-0.59l0.56-2.73v-2.18
	c0,0-2.3,3.71-3.42,4.66c-1.11,0.95-2.18,0.84-2.18,0.84s-2.2,0.59-2.02-3.69l0.31-3.49c0,0-0.96,0.51-1.91,0.31
	c-0.95-0.21-0.63-0.74-0.63-0.74s2.18-0.19,3.21-2.94c0,0,0.51-0.51,1.48,0s0.96,1.35,0.96,1.35s0.1,0.74-0.1,1.29
	c0,0-1.06,5.3-0.32,5.62c0,0,0.18,0.29,0.87-0.14c0.69-0.43,3.37-4.11,3.66-4.59c0,0-0.18-1.99-0.67-2.99c0,0-0.22-0.59,1.69-0.5
	s2.12,1.16,2.12,1.16l0.08,0.56c0,0,2.94-3.98,3.9-3.69c0.96,0.29,1.48,0.95,1.48,0.95s0.35,0.37,0.35,1.54
	c0,1.16,0.37,2.92,0.37,2.92l2.7-2.33c0,0,0.43-0.71,1.62,0.35s0.95,1.8,0.95,1.8s-1.19,3.47-1.12,5.41s0.67,2.73,0.67,2.73
	s0.95,1.51,1.91,1.91c0,0,0,0.03,0.02,0.1c1.64-2.51,2.6-5.53,2.6-8.77C32,7.2,24.8,0,15.94,0z M10.94,7.52
	C10.79,9.22,9.69,9.8,9.69,9.8c-1.77,0.63-1.8-1.35-1.8-1.35c0-2.7,2.14-2.14,2.14-2.14C11.1,6.6,10.94,7.52,10.94,7.52z"/>
</svg>
