<?xml version="1.0" encoding="utf-8"?>
<!-- Generator: Adobe Illustrator 23.1.0, SVG Export Plug-In . SVG Version: 6.00 Build 0)  -->
<svg version="1.1" xmlns="http://www.w3.org/2000/svg" xmlns:xlink="http://www.w3.org/1999/xlink" x="0px" y="0px"
	 viewBox="0 0 500 500" style="enable-background:new 0 0 500 500;" xml:space="preserve">
<style type="text/css">
	.st0{fill:#DC6A83;}
	.st1{opacity:0.7;fill:#FFFFFF;}
	.st2{fill:none;stroke:#263238;stroke-width:3;stroke-linecap:round;stroke-linejoin:round;stroke-miterlimit:10;}
	.st3{fill:#FFFFFF;stroke:#263238;stroke-miterlimit:10;}
	.st4{fill:#B2B2B2;stroke:#B2B2B2;stroke-miterlimit:10;}
	.st5{fill:none;stroke:#B2B2B2;stroke-miterlimit:10;}
	.st6{opacity:0.3;}
	.st7{fill:none;stroke:#000000;stroke-miterlimit:10;}
	.st8{stroke:#000000;stroke-miterlimit:10;}
	.st9{fill:#DC6A83;stroke:#000000;stroke-miterlimit:10;}
	.st10{fill:#263238;stroke:#263238;stroke-miterlimit:10;}
	.st11{fill:none;stroke:#263238;stroke-miterlimit:10;}
	.st12{fill:#92E3A9;stroke:#263238;stroke-miterlimit:10;}
	.st13{fill:#FFFFFF;stroke:#263238;stroke-linejoin:round;stroke-miterlimit:10;}
	.st14{fill:#263238;stroke:#263238;stroke-linejoin:round;stroke-miterlimit:10;}
	.st15{fill:none;stroke:#263238;stroke-linejoin:round;stroke-miterlimit:10;}
	.st16{fill:#92E3A9;stroke:#263238;stroke-linejoin:round;stroke-miterlimit:10;}
	.st17{fill:#263238;}
	.st18{fill:none;stroke:#8A8A8A;stroke-linejoin:round;stroke-miterlimit:10;}
	.st19{fill:#F6C6CE;stroke:#000000;stroke-miterlimit:10;}
	.st20{fill:#7D7D7D;stroke:#263238;stroke-miterlimit:10;}
</style>
<g id="Background_Simple">
</g>
<g id="Plant">
</g>
<g id="Clock">
</g>
<g id="Nail_Polishes">
</g>
<g id="Lamp">
</g>
<g id="Characters">
</g>
<g id="Table">
</g>
<g id="Line">
	<g>
		<path class="st0" d="M434,423.2c0,0,66-95.5,49.7-206.5c-16.3-111-111.1-104.3-175-123.3c-63.9-19-97.1-52.8-172.1-31.6
			C61.5,82.9,32.8,122,24.7,182.5c-8.1,60.6-3.1,118.6,7.2,173.4c10.3,54.8,29.5,95.2,84.6,100.8c55.1,5.6,73.9-10.5,105.1,6.2
			C252.9,479.6,375.6,500.9,434,423.2z"/>
		<path class="st1" d="M434.3,423.2c0,0,66-95.5,49.7-206.5c-16.3-111-111.1-104.3-175-123.3c-63.9-19-97.1-52.8-172.1-31.6
			C61.8,82.9,33.1,122,25,182.5c-8.1,60.6-3.1,118.6,7.2,173.4c10.3,54.8,29.5,95.2,84.6,100.8c55.1,5.6,73.9-10.5,105.1,6.2
			C253.2,479.6,375.9,500.9,434.3,423.2z"/>
		<path class="st2" d="M114.9,231.2c0,0-11.1,31.7-26.8,85.3c-15.7,53.6-13.6,87-13.6,87"/>
		<path class="st2" d="M71.7,204.3c0,0-10.4,55-4.5,87c5.9,32-4.9,75.9-4.9,75.9"/>
		<path class="st2" d="M42.2,246.8c0,0,0.7,35.9,8.7,66.2c8,30.3,15,71.4,12.2,89.5"/>
		<path class="st0" d="M117.1,214c0,0,0.2-9.2-5.8-20.3c-6-11.1-13.3-14.8-13.3-14.8s9.1,7.6,11.2,14.3c2.1,6.7,5.6,19.2,5.6,19.2
			s-4-13.4-12.6-20.3c-8.6-6.9-14.4-9.2-14.4-9.2s10.5,7.8,16.7,15c6.3,7.2,7.2,15.5,7.2,15.5s-8.1-13.2-17-17.1
			c-8.8-3.9-13.3-5.1-13.3-5.1s10,4.4,16,9.7c6,5.3,10.2,13.8,10.2,13.8s-9.1-7.6-18.4-9.9c-9.3-2.3-12.8-2.3-12.8-2.3
			s7.9,1.8,17.4,6.9c9.5,5.1,12.1,9.7,12.1,9.7s-6.3-3.7-12.6-3.2c-6.3,0.5-19.3,5.5-19.3,5.5s11.6-3.9,19.3-3.7
			c7.7,0.2,13,6.9,13,6.9s-6.3-5.5-17,0c-10.7,5.5-14,12.7-14,12.7s7-7.2,15.8-9.7c8.8-2.5,13.3,0.5,13.3,0.5s-9.1,2.8-13.3,9
			c-4.2,6.2-5.8,18.9-5.8,18.9s2.6-14.1,7.9-18.2c5.3-4.2,13.7-5.8,13.7-5.8s-5.1,1.8-10.7,8.8c-5.6,6.9-5.3,24-5.3,24
			s1.4-14.1,5.1-19.6c3.7-5.5,10.7-9,10.7-9s-3-2.1-4.9,12.2c-1.9,14.3,0.2,24.7,0.2,24.7s0.7-18.5,2.6-24.2
			c1.9-5.8,4.4-10.6,4.4-10.6s-2.3,18.9-1.4,25.2c0.9,6.2,2.6,12.2,2.6,12.2s-0.9-11.8,0.2-20.3c1.2-8.5,2.3-15.2,2.3-15.2l2.1,15.7
			l-0.2,19.8l2.8-18.7l-1.9-16.6c0,0,3.7,4.6,5.6,13.4c1.9,8.8,1.9,17.8,1.9,17.8s1.6-14.8,0.5-21.2c-1.2-6.5-2.6-12-2.6-12
			s5.6,0,8.4,13.6c2.8,13.6,2.6,19.8,2.6,19.8s3.5-9.5-0.7-21.7c-4.2-12.2-5.8-14.8-5.8-14.8s6.3,0.7,11.9,9.5
			c5.6,8.8,6,17.1,6,17.1s-0.2-12.5-4.4-19.8c-4.2-7.4-13-9.2-13-9.2s9.5-3.2,17.7,5.1c8.1,8.3,11.6,17.8,11.6,17.8
			s-5.3-15.9-11.4-21.7c-6-5.8-14.4-5.1-14.4-5.1s9.1-2.5,16.7-1.4c7.7,1.2,14.9,9.7,14.9,9.7s-3.3-9.7-13.7-11.8
			c-10.5-2.1-16.3,1.6-16.3,1.6s9.5-9,18.6-7.8c9.1,1.2,14.2,5.3,14.2,5.3s-9.1-8.1-16-7.8c-7,0.2-16.7,6.7-16.7,6.7
			s1.4-8.1,12.3-12.7c10.9-4.6,15.8-3.7,15.8-3.7s-14.4,0.5-22.6,5.3c-8.1,4.8-9.5,7.6-9.5,7.6s7.2-14.1,14-19.8
			c6.7-5.8,13-7.2,13-7.2s-12.1,2.3-18.1,8.3c-6,6-9.3,13.6-9.3,13.6s0.5-8.5,3.5-15c3-6.5,10.2-12,10.2-12s-7.7,2.5-12.1,11.1
			c-4.4,8.5-6.7,15-6.7,15s-1.4-8.1,3-19.4c4.4-11.3,6-15.5,6-15.5s-8.6,11.1-10.5,19.8S117.1,214,117.1,214z"/>
		<path class="st0" d="M76.6,184.7c0,0,0.2-9.2-5.8-20.3c-6-11.1-13.3-14.8-13.3-14.8s9.1,7.6,11.2,14.3c2.1,6.7,5.6,19.2,5.6,19.2
			s-4-13.4-12.6-20.3c-8.6-6.9-14.4-9.2-14.4-9.2s10.5,7.8,16.7,15c6.3,7.2,7.2,15.5,7.2,15.5s-8.1-13.2-17-17.1
			c-8.8-3.9-13.3-5.1-13.3-5.1s10,4.4,16,9.7c6,5.3,10.2,13.8,10.2,13.8s-9.1-7.6-18.4-9.9c-9.3-2.3-12.8-2.3-12.8-2.3
			s7.9,1.8,17.4,6.9c9.5,5.1,12.1,9.7,12.1,9.7s-6.3-3.7-12.6-3.2c-6.3,0.5-19.3,5.5-19.3,5.5s11.6-3.9,19.3-3.7
			c7.7,0.2,13,6.9,13,6.9s-6.3-5.5-17,0c-10.7,5.5-14,12.7-14,12.7s7-7.2,15.8-9.7c8.8-2.5,13.3,0.5,13.3,0.5s-9.1,2.8-13.3,9
			c-4.2,6.2-5.8,18.9-5.8,18.9s2.6-14.1,7.9-18.2c5.3-4.2,13.7-5.8,13.7-5.8s-5.1,1.8-10.7,8.8c-5.6,6.9-5.3,24-5.3,24
			s1.4-14.1,5.1-19.6c3.7-5.5,10.7-9,10.7-9s-3-2.1-4.9,12.2c-1.9,14.3,0.2,24.7,0.2,24.7s0.7-18.5,2.6-24.2
			c1.9-5.8,4.4-10.6,4.4-10.6s-2.3,18.9-1.4,25.2c0.9,6.2,2.6,12.2,2.6,12.2s-0.9-11.8,0.2-20.3c1.2-8.5,2.3-15.2,2.3-15.2l2.1,15.7
			l-0.2,19.8l2.8-18.7L75.5,211c0,0,3.7,4.6,5.6,13.4c1.9,8.8,1.9,17.8,1.9,17.8s1.6-14.8,0.5-21.2c-1.2-6.5-2.6-12-2.6-12
			s5.6,0,8.4,13.6c2.8,13.6,2.6,19.8,2.6,19.8s3.5-9.5-0.7-21.7c-4.2-12.2-5.8-14.8-5.8-14.8s6.3,0.7,11.9,9.5
			c5.6,8.8,6,17.1,6,17.1s-0.2-12.5-4.4-19.8c-4.2-7.4-13-9.2-13-9.2s9.5-3.2,17.7,5.1c8.1,8.3,11.6,17.8,11.6,17.8
			s-5.3-15.9-11.4-21.7c-6-5.8-14.4-5.1-14.4-5.1s9.1-2.5,16.7-1.4c7.7,1.2,14.9,9.7,14.9,9.7s-3.3-9.7-13.7-11.8
			c-10.5-2.1-16.3,1.6-16.3,1.6s9.5-9,18.6-7.8c9.1,1.2,14.2,5.3,14.2,5.3s-9.1-8.1-16-7.8c-7,0.2-16.7,6.7-16.7,6.7
			s1.4-8.1,12.3-12.7c10.9-4.6,15.8-3.7,15.8-3.7s-14.4,0.5-22.6,5.3c-8.1,4.8-9.5,7.6-9.5,7.6s7.2-14.1,14-19.8
			c6.7-5.8,13-7.2,13-7.2s-12.1,2.3-18.1,8.3c-6,6-9.3,13.6-9.3,13.6s0.5-8.5,3.5-15c3-6.5,10.2-12,10.2-12s-7.7,2.5-12.1,11.1
			c-4.4,8.5-6.7,15-6.7,15s-1.4-8.1,3-19.4c4.4-11.3,6-15.5,6-15.5s-8.6,11.1-10.5,19.8C78,178.2,76.6,184.7,76.6,184.7z"/>
		<path class="st0" d="M42.6,231.8c0,0,0.2-9.2-5.8-20.3c-6-11.1-13.3-14.8-13.3-14.8s9.1,7.6,11.2,14.3c2.1,6.7,5.6,19.2,5.6,19.2
			s-4-13.4-12.6-20.3c-8.6-6.9-14.4-9.2-14.4-9.2s10.5,7.8,16.7,15c6.3,7.2,7.2,15.5,7.2,15.5s-8.1-13.2-17-17.1
			c-8.8-3.9-13.3-5.1-13.3-5.1s10,4.4,16,9.7c6,5.3,10.2,13.8,10.2,13.8s-9.1-7.6-18.4-9.9c-9.3-2.3-12.8-2.3-12.8-2.3
			s7.9,1.8,17.4,6.9c9.5,5.1,12.1,9.7,12.1,9.7s-6.3-3.7-12.6-3.2c-6.3,0.5-19.3,5.5-19.3,5.5s11.6-3.9,19.3-3.7
			c7.7,0.2,13,6.9,13,6.9s-6.3-5.5-17,0c-10.7,5.5-14,12.7-14,12.7s7-7.2,15.8-9.7c8.8-2.5,13.3,0.5,13.3,0.5s-9.1,2.8-13.3,9
			c-4.2,6.2-5.8,18.9-5.8,18.9s2.6-14.1,7.9-18.2c5.3-4.2,13.7-5.8,13.7-5.8s-5.1,1.8-10.7,8.8c-5.6,6.9-5.3,24-5.3,24
			s1.4-14.1,5.1-19.6c3.7-5.5,10.7-9,10.7-9s-3-2.1-4.9,12.2c-1.9,14.3,0.2,24.7,0.2,24.7s0.7-18.5,2.6-24.2
			c1.9-5.8,4.4-10.6,4.4-10.6s-2.3,18.9-1.4,25.2c0.9,6.2,2.6,12.2,2.6,12.2s-0.9-11.8,0.2-20.3c1.2-8.5,2.3-15.2,2.3-15.2l2.1,15.7
			l-0.2,19.8l2.8-18.7l-1.9-16.6c0,0,3.7,4.6,5.6,13.4c1.9,8.8,1.9,17.8,1.9,17.8s1.6-14.8,0.5-21.2c-1.2-6.5-2.6-12-2.6-12
			s5.6,0,8.4,13.6c2.8,13.6,2.6,19.8,2.6,19.8s3.5-9.5-0.7-21.7c-4.2-12.2-5.8-14.8-5.8-14.8s6.3,0.7,11.9,9.5
			c5.6,8.8,6,17.1,6,17.1s-0.2-12.5-4.4-19.8c-4.2-7.4-13-9.2-13-9.2s9.5-3.2,17.7,5.1c8.1,8.3,11.6,17.8,11.6,17.8
			s-5.3-15.9-11.4-21.7c-6-5.8-14.4-5.1-14.4-5.1s9.1-2.5,16.7-1.4c7.7,1.2,14.9,9.7,14.9,9.7s-3.3-9.7-13.7-11.8
			c-10.5-2.1-16.3,1.6-16.3,1.6s9.5-9,18.6-7.8c9.1,1.2,14.2,5.3,14.2,5.3s-9.1-8.1-16-7.8c-7,0.2-16.7,6.7-16.7,6.7
			s1.4-8.1,12.3-12.7s15.8-3.7,15.8-3.7s-14.4,0.5-22.6,5.3c-8.1,4.8-9.5,7.6-9.5,7.6s7.2-14.1,14-19.8c6.7-5.8,13-7.2,13-7.2
			s-12.1,2.3-18.1,8.3c-6,6-9.3,13.6-9.3,13.6s0.5-8.5,3.5-15c3-6.5,10.2-12,10.2-12s-7.7,2.5-12.1,11.1c-4.4,8.5-6.7,15-6.7,15
			s-1.4-8.1,3-19.4c4.4-11.3,6-15.5,6-15.5s-8.6,11.1-10.5,19.8C43.9,225.3,42.6,231.8,42.6,231.8z"/>
		<rect x="45.3" y="389.3" class="st3" width="44.1" height="53.9"/>
		<g>
			<path class="st4" d="M265.3,44.9c-23.2,0-42.1,18.8-42.1,42.1s18.8,42.1,42.1,42.1s42.1-18.8,42.1-42.1S288.6,44.9,265.3,44.9z
				 M265.3,124.3c-20.6,0-37.3-16.7-37.3-37.3c0-20.6,16.7-37.3,37.3-37.3c20.6,0,37.3,16.7,37.3,37.3
				C302.6,107.6,285.9,124.3,265.3,124.3z"/>
			<polyline class="st5" points="283.7,87 265.3,87 277.4,58 			"/>
			<circle class="st4" cx="265.3" cy="87" r="3.9"/>
		</g>
		<g class="st6">
			<g>
				
					<rect x="463.7" y="252.5" transform="matrix(-1 -1.224647e-16 1.224647e-16 -1 932.9885 695.752)" class="st7" width="5.6" height="190.7"/>
				
					<rect x="352.9" y="252.5" transform="matrix(-1 -1.224647e-16 1.224647e-16 -1 711.3799 695.752)" class="st7" width="5.6" height="190.7"/>
				
					<rect x="358.5" y="269" transform="matrix(-1 -1.224647e-16 1.224647e-16 -1 822.1842 543.9984)" class="st7" width="105.2" height="6"/>
				
					<rect x="358.5" y="336.4" transform="matrix(-1 -1.224647e-16 1.224647e-16 -1 822.1842 678.8905)" class="st7" width="105.2" height="6"/>
				
					<rect x="358.5" y="407.1" transform="matrix(-1 -1.224647e-16 1.224647e-16 -1 822.1842 820.2062)" class="st7" width="105.2" height="6"/>
			</g>
			<g>
				
					<rect x="448.6" y="321.6" transform="matrix(-1 -1.224647e-16 1.224647e-16 -1 908.9192 657.8561)" class="st7" width="11.8" height="14.6"/>
				
					<rect x="451.3" y="307.4" transform="matrix(-1 -1.224647e-16 1.224647e-16 -1 908.9193 628.8995)" class="st8" width="6.3" height="14"/>
				
					<rect x="451.1" y="325.2" transform="matrix(-1 -1.224647e-16 1.224647e-16 -1 909.0259 657.9101)" class="st7" width="6.9" height="7.6"/>
			</g>
			<g>
				
					<rect x="431.3" y="321.6" transform="matrix(-1 -1.224647e-16 1.224647e-16 -1 874.4154 657.8561)" class="st8" width="11.8" height="14.6"/>
				
					<rect x="434" y="307.4" transform="matrix(-1 -1.224647e-16 1.224647e-16 -1 874.4154 628.8995)" class="st7" width="6.3" height="14"/>
				
					<rect x="433.8" y="325.2" transform="matrix(-1 -1.224647e-16 1.224647e-16 -1 874.5221 657.9101)" class="st7" width="6.9" height="7.6"/>
			</g>
			<g>
				
					<rect x="414.1" y="321.6" transform="matrix(-1 -1.224647e-16 1.224647e-16 -1 839.9115 657.8561)" class="st8" width="11.8" height="14.6"/>
				
					<rect x="416.8" y="307.4" transform="matrix(-1 -1.224647e-16 1.224647e-16 -1 839.9115 628.8995)" class="st8" width="6.3" height="14"/>
				
					<rect x="416.5" y="325.2" transform="matrix(-1 -1.224647e-16 1.224647e-16 -1 840.0183 657.9101)" class="st7" width="6.9" height="7.6"/>
			</g>
			<g>
				
					<rect x="396.8" y="321.6" transform="matrix(-1 -1.224647e-16 1.224647e-16 -1 805.4077 657.8561)" class="st7" width="11.8" height="14.6"/>
				
					<rect x="399.5" y="307.4" transform="matrix(-1 -1.224647e-16 1.224647e-16 -1 805.4077 628.8995)" class="st8" width="6.3" height="14"/>
				
					<rect x="399.3" y="325.2" transform="matrix(-1 -1.224647e-16 1.224647e-16 -1 805.5143 657.9101)" class="st7" width="6.9" height="7.6"/>
			</g>
			<g>
				
					<rect x="379.6" y="321.6" transform="matrix(-1 -1.224647e-16 1.224647e-16 -1 770.9038 657.8561)" class="st8" width="11.8" height="14.6"/>
				
					<rect x="382.3" y="307.4" transform="matrix(-1 -1.224647e-16 1.224647e-16 -1 770.9039 628.8995)" class="st7" width="6.3" height="14"/>
				
					<rect x="382" y="325.2" transform="matrix(-1 -1.224647e-16 1.224647e-16 -1 771.0105 657.9101)" class="st7" width="6.9" height="7.6"/>
			</g>
			<g>
				
					<rect x="362.3" y="321.6" transform="matrix(-1 -1.224647e-16 1.224647e-16 -1 736.4 657.8561)" class="st7" width="11.8" height="14.6"/>
				
					<rect x="365" y="307.4" transform="matrix(-1 -1.224647e-16 1.224647e-16 -1 736.4 628.8995)" class="st7" width="6.3" height="14"/>
				
					<rect x="364.8" y="325.2" transform="matrix(-1 -1.224647e-16 1.224647e-16 -1 736.5067 657.9101)" class="st7" width="6.9" height="7.6"/>
			</g>
			<g>
				
					<rect x="448.6" y="392.5" transform="matrix(-1 -1.224647e-16 1.224647e-16 -1 908.9192 799.6515)" class="st8" width="11.8" height="14.6"/>
				
					<rect x="451.3" y="378.3" transform="matrix(-1 -1.224647e-16 1.224647e-16 -1 908.9193 770.6949)" class="st7" width="6.3" height="14"/>
				
					<rect x="451.1" y="396.1" transform="matrix(-1 -1.224647e-16 1.224647e-16 -1 909.0259 799.7055)" class="st7" width="6.9" height="7.6"/>
			</g>
			<g>
				
					<rect x="431.3" y="392.5" transform="matrix(-1 -1.224647e-16 1.224647e-16 -1 874.4154 799.6515)" class="st7" width="11.8" height="14.6"/>
				
					<rect x="434" y="378.3" transform="matrix(-1 -1.224647e-16 1.224647e-16 -1 874.4154 770.6949)" class="st7" width="6.3" height="14"/>
				
					<rect x="433.8" y="396.1" transform="matrix(-1 -1.224647e-16 1.224647e-16 -1 874.5221 799.7055)" class="st7" width="6.9" height="7.6"/>
			</g>
			<g>
				
					<rect x="414.1" y="392.5" transform="matrix(-1 -1.224647e-16 1.224647e-16 -1 839.9115 799.6515)" class="st7" width="11.8" height="14.6"/>
				
					<rect x="416.8" y="378.3" transform="matrix(-1 -1.224647e-16 1.224647e-16 -1 839.9115 770.6949)" class="st8" width="6.3" height="14"/>
				
					<rect x="416.5" y="396.1" transform="matrix(-1 -1.224647e-16 1.224647e-16 -1 840.0183 799.7055)" class="st7" width="6.9" height="7.6"/>
			</g>
			<g>
				
					<rect x="396.8" y="392.5" transform="matrix(-1 -1.224647e-16 1.224647e-16 -1 805.4077 799.6515)" class="st7" width="11.8" height="14.6"/>
				
					<rect x="399.5" y="378.3" transform="matrix(-1 -1.224647e-16 1.224647e-16 -1 805.4077 770.6949)" class="st7" width="6.3" height="14"/>
				
					<rect x="399.3" y="396.1" transform="matrix(-1 -1.224647e-16 1.224647e-16 -1 805.5143 799.7055)" class="st7" width="6.9" height="7.6"/>
			</g>
			<g>
				
					<rect x="379.6" y="392.5" transform="matrix(-1 -1.224647e-16 1.224647e-16 -1 770.9038 799.6515)" class="st8" width="11.8" height="14.6"/>
				
					<rect x="382.3" y="378.3" transform="matrix(-1 -1.224647e-16 1.224647e-16 -1 770.9039 770.6949)" class="st7" width="6.3" height="14"/>
				
					<rect x="382" y="396.1" transform="matrix(-1 -1.224647e-16 1.224647e-16 -1 771.0105 799.7055)" class="st7" width="6.9" height="7.6"/>
			</g>
			<g>
				
					<rect x="362.3" y="392.5" transform="matrix(-1 -1.224647e-16 1.224647e-16 -1 736.4 799.6515)" class="st7" width="11.8" height="14.6"/>
				
					<rect x="365" y="378.3" transform="matrix(-1 -1.224647e-16 1.224647e-16 -1 736.4 770.6949)" class="st8" width="6.3" height="14"/>
				
					<rect x="364.8" y="396.1" transform="matrix(-1 -1.224647e-16 1.224647e-16 -1 736.5067 799.7055)" class="st7" width="6.9" height="7.6"/>
			</g>
			<path class="st7" d="M416.6,242.3h9.8c2.8,0,5.1,2.3,5.1,5.1v21.2h-19.9v-21.2C411.5,244.6,413.8,242.3,416.6,242.3z"/>
			
				<rect x="415.9" y="232.8" transform="matrix(-1 -1.224647e-16 1.224647e-16 -1 842.2266 475.1066)" class="st7" width="10.5" height="9.5"/>
			
				<rect x="420.3" y="251.7" transform="matrix(-1 -1.224647e-16 1.224647e-16 -1 851.4593 516.5964)" class="st7" width="10.8" height="13.2"/>
			
				<rect x="386" y="241.3" transform="matrix(-1 -1.224647e-16 1.224647e-16 -1 792.1762 510.0997)" class="st7" width="20.1" height="27.4"/>
			<g>
				<path class="st7" d="M442.1,231.8h9.8c2.8,0,5.1,2.3,5.1,5.1v31.7h-19.9v-31.7C437.1,234.1,439.3,231.8,442.1,231.8z"/>
				<path class="st7" d="M450.2,218.5v4.8h-6.3v-5.4C445.7,218.2,448.4,218.5,450.2,218.5z"/>
				<path class="st7" d="M444.7,215.1c0,0,4.6,1.1,6.2,1.6s1.8,1.6,0.5,1.8c-1.3,0.1-9.2-0.4-9.6-1.3
					C441.4,216.4,442.2,213.8,444.7,215.1z"/>
				<path class="st7" d="M441.5,251c0,6.6,2.5,11.9,5.5,11.9c3,0,5.5-5.3,5.5-11.9c0-6.6-2.5-11.9-5.5-11.9
					C444,239.1,441.5,244.4,441.5,251z"/>
				
					<rect x="442.1" y="223.4" transform="matrix(-1 -1.224647e-16 1.224647e-16 -1 894.0404 455.1799)" class="st7" width="9.9" height="8.4"/>
			</g>
		</g>
		<g class="st6">
			<g>
				<rect x="214.5" y="252.5" class="st7" width="5.6" height="190.7"/>
				<rect x="325.3" y="252.5" class="st7" width="5.6" height="190.7"/>
				<rect x="220.1" y="269" class="st7" width="105.2" height="6"/>
				<rect x="220.1" y="336.4" class="st7" width="105.2" height="6"/>
				<rect x="220.1" y="407.1" class="st7" width="105.2" height="6"/>
			</g>
			<g>
				<rect x="223.4" y="321.6" class="st7" width="11.8" height="14.6"/>
				<rect x="226.2" y="307.4" class="st8" width="6.3" height="14"/>
				<rect x="225.8" y="325.2" class="st7" width="6.9" height="7.6"/>
			</g>
			<g>
				<rect x="240.7" y="321.6" class="st8" width="11.8" height="14.6"/>
				<rect x="243.4" y="307.4" class="st7" width="6.3" height="14"/>
				<rect x="243.1" y="325.2" class="st7" width="6.9" height="7.6"/>
			</g>
			<g>
				<rect x="257.9" y="321.6" class="st7" width="11.8" height="14.6"/>
				<rect x="260.7" y="307.4" class="st8" width="6.3" height="14"/>
				<rect x="260.3" y="325.2" class="st7" width="6.9" height="7.6"/>
			</g>
			<g>
				<rect x="275.2" y="321.6" class="st7" width="11.8" height="14.6"/>
				<rect x="277.9" y="307.4" class="st7" width="6.3" height="14"/>
				<rect x="277.6" y="325.2" class="st7" width="6.9" height="7.6"/>
			</g>
			<g>
				<rect x="292.5" y="321.6" class="st7" width="11.8" height="14.6"/>
				<rect x="295.2" y="307.4" class="st8" width="6.3" height="14"/>
				<rect x="294.8" y="325.2" class="st7" width="6.9" height="7.6"/>
			</g>
			<g>
				<rect x="309.7" y="321.6" class="st8" width="11.8" height="14.6"/>
				<rect x="312.4" y="307.4" class="st7" width="6.3" height="14"/>
				<rect x="312.1" y="325.2" class="st7" width="6.9" height="7.6"/>
			</g>
			<g>
				<rect x="223.4" y="254.4" class="st7" width="11.8" height="14.6"/>
				<rect x="226.2" y="240.2" class="st7" width="6.3" height="14"/>
				<rect x="225.8" y="258" class="st7" width="6.9" height="7.6"/>
			</g>
			<g>
				<rect x="240.7" y="254.4" class="st7" width="11.8" height="14.6"/>
				<rect x="243.4" y="240.2" class="st8" width="6.3" height="14"/>
				<rect x="243.1" y="258" class="st7" width="6.9" height="7.6"/>
			</g>
			<g>
				<rect x="257.9" y="254.4" class="st8" width="11.8" height="14.6"/>
				<rect x="260.7" y="240.2" class="st7" width="6.3" height="14"/>
				<rect x="260.3" y="258" class="st7" width="6.9" height="7.6"/>
			</g>
			<g>
				<rect x="275.2" y="254.4" class="st7" width="11.8" height="14.6"/>
				<rect x="277.9" y="240.2" class="st7" width="6.3" height="14"/>
				<rect x="277.6" y="258" class="st7" width="6.9" height="7.6"/>
			</g>
			<g>
				<rect x="292.5" y="254.4" class="st7" width="11.8" height="14.6"/>
				<rect x="295.2" y="240.2" class="st8" width="6.3" height="14"/>
				<rect x="294.8" y="258" class="st7" width="6.9" height="7.6"/>
			</g>
			<g>
				<rect x="309.7" y="254.4" class="st8" width="11.8" height="14.6"/>
				<rect x="312.4" y="240.2" class="st7" width="6.3" height="14"/>
				<rect x="312.1" y="258" class="st7" width="6.9" height="7.6"/>
			</g>
			<g>
				<rect x="223.4" y="392.5" class="st7" width="11.8" height="14.6"/>
				<rect x="226.2" y="378.3" class="st7" width="6.3" height="14"/>
				<rect x="225.8" y="396.1" class="st7" width="6.9" height="7.6"/>
			</g>
			<g>
				<rect x="240.7" y="392.5" class="st7" width="11.8" height="14.6"/>
				<rect x="243.4" y="378.3" class="st8" width="6.3" height="14"/>
				<rect x="243.1" y="396.1" class="st7" width="6.9" height="7.6"/>
			</g>
			<g>
				<rect x="257.9" y="392.5" class="st8" width="11.8" height="14.6"/>
				<rect x="260.7" y="378.3" class="st8" width="6.3" height="14"/>
				<rect x="260.3" y="396.1" class="st7" width="6.9" height="7.6"/>
			</g>
			<g>
				<rect x="275.2" y="392.5" class="st7" width="11.8" height="14.6"/>
				<rect x="277.9" y="378.3" class="st7" width="6.3" height="14"/>
				<rect x="277.6" y="396.1" class="st7" width="6.9" height="7.6"/>
			</g>
			<g>
				<rect x="292.5" y="392.5" class="st8" width="11.8" height="14.6"/>
				<rect x="295.2" y="378.3" class="st7" width="6.3" height="14"/>
				<rect x="294.8" y="396.1" class="st7" width="6.9" height="7.6"/>
			</g>
			<g>
				<rect x="309.7" y="392.5" class="st7" width="11.8" height="14.6"/>
				<rect x="312.4" y="378.3" class="st8" width="6.3" height="14"/>
				<rect x="312.1" y="396.1" class="st7" width="6.9" height="7.6"/>
			</g>
		</g>
		<g>
			<polygon class="st3" points="185.6,442.8 169.3,206 264.6,167.5 262.7,162.9 164.1,202.8 180.6,442.8 			"/>
		</g>
		<g>
			<polygon class="st3" points="179.5,442.8 162.8,199.9 264.6,159.9 262.8,155.2 157.5,196.6 174.5,442.8 			"/>
		</g>
		
			<ellipse transform="matrix(0.6772 -0.7358 0.7358 0.6772 -95.0079 186.4586)" class="st3" cx="165" cy="201.5" rx="7.6" ry="7.6"/>
		<path class="st3" d="M258.9,165.2c0-3.2-2.6-5.7-5.7-5.7c-3.2,0-5.7,2.6-5.7,5.7c0,3.2,2.6,5.7,5.7,5.7
			C256.3,170.9,258.9,168.3,258.9,165.2z"/>
		<path class="st9" d="M304.8,228.9c0.4-2.8,0.7-5.7,0.7-8.7c0-24.5-15.1-44.3-33.8-44.3s-33.8,19.8-33.8,44.3c0,3,0.2,5.9,0.7,8.7
			H304.8z"/>
		<rect x="260.7" y="152.6" class="st10" width="22" height="25.4"/>
		<path class="st10" d="M182.7,193.6c0,0,4.9-9.1,3.8-13.3c-1.1-4.2-8.2-9.3-13.5-9.5s-25.5,7.4-27.2,12c-1.7,4.6-0.6,10.1,1.7,12
			c2.3,1.9,6.8,3.4,6.8,3.4l4.9,1.5l6.3-3L182.7,193.6z"/>
		<path class="st11" d="M248.6,356.8c0,0-6.7,3.5-8.3,5.3c-1.6,1.9-8,6.4-7.7,8.3c0.3,1.9,5.1-0.8,7.5-2.7c2.4-1.9,6.7-4.8,6.7-4.8
			L248.6,356.8z"/>
		<path class="st9" d="M318.1,376.2c-1.9-12.8-14.1-22.6-28.7-22.6s-26.8,9.8-28.7,22.6H318.1z"/>
		<path class="st3" d="M272,347.5c0,0-21,8-23.4,9.3c-2.4,1.3-10.4,13.3-11.2,14.6c-0.8,1.3,0.3,1.9,2.7,1.1s12-10.4,12-10.4
			l10.4-3.2c0,0-6.4,7.5-7.5,9c-1.1,1.6,0.8,2.7,3.2,1.6c2.4-1.1,9.6-8.8,9.6-8.8s6.1-1.6,9.3-3.5c3.2-1.9,8.5-5.9,8.5-5.9
			s64.1,24.8,76.4,26.6c12.2,1.9,14.9,0.5,14.9,0.5l1.1-23.4c0,0-95.5-12.2-98.5-11.2C276.6,345.1,272,347.5,272,347.5z"/>
		<line class="st3" x1="262.5" y1="358.9" x2="268.6" y2="353.1"/>
		<path class="st12" d="M378,355.2c0,0-15.6-2-34.4-4.3l-2.9,20.8c9.6,3.3,17.7,5.8,21.3,6.4c12.2,1.9,14.9,0.5,14.9,0.5L378,355.2z
			"/>
		<path class="st10" d="M52.1,443.2c0,0-4.4-10.7-3.8-17.5l47.4-15.3l50.7-3.2c0,0,63.8-10.7,72.9-8.8c9,1.9,21.1,44.4,21.1,44.4
			L52.1,443.2z"/>
		<path class="st3" d="M193.8,345.3l-58.1,16.2l-1.5,26.2c0,0,72.7-33.3,73.7-34.2c1-0.9-4.8-10.3-4.8-10.3L193.8,345.3z"/>
		<g>
			<g>
				<path class="st9" d="M155.7,239.4c0,0-4.6,4-12.7,9.3c-8,5.3-22.2,7.6-35.2,15.4c-13.1,7.8-25.3,24.3-31.2,42.8
					c-5.9,18.6-5.5,34.4-5.5,34.4s-14.1,27.6-19,42.2C47.2,398,44.9,421,44.9,421l-0.2,7.8c0,0,17.5,0.2,26.4-1.7
					c8.9-1.9,19.2-1.9,19.2-1.9l4.2-9.9l2.3,9.3l26.8-7.4l22.8-10.1l-8.9-14.6c0,0,2.5-1.5,1.9-3.4s-3.4-4.4-3.4-4.4
					s1.9-1.9,1.9-3.2s-0.4-4.6-0.4-4.6s8.4-22.2,8.7-23c0.2-0.8,9.7-3.8,11.4-12.9c1.7-9.1-4.2-38-5.7-48.1
					c-1.5-10.1-0.8-16.5-0.8-16.5l14.1-8.7l-2.7-36.5L155.7,239.4z"/>
				<path class="st9" d="M112.6,387.6c-3.9,0.1-8,0-12-0.5"/>
				<path class="st9" d="M133.8,385.1c0,0-7.6,1.7-17.5,2.3"/>
				<path class="st9" d="M134.6,393.4c0,0-11.5,4.1-21.4,6.6"/>
			</g>
		</g>
		<path class="st3" d="M165.2,267.9l-2.7-36.5l-6.8,8c0,0-4.6,4-12.7,9.3c-5.1,3.4-12.7,5.5-20.9,8.7c3,0.8,11.9,4,15,15.2
			c3.8,13.5,9.1,35.9,11.6,38.6c1.5,1.7,4.2,0.9,6-1.3c-1.1-6.9-2.3-13.1-2.8-16.8c-1.5-10.1-0.8-16.5-0.8-16.5L165.2,267.9z"/>
		<polygon class="st10" points="157.8,255.2 156.1,272.8 165.2,267.9 		"/>
		<path class="st10" d="M159.7,236c0,0-1.7,7.8-7,10.1c-5.3,2.3-11,0.6-15.4-7.4s3.8-21.9,5.7-25.1c1.9-3.2,8.4-18.4,21.1-19.8
			c12.7-1.5,26.2-3.5,34.8-2.5c19.2,2.1,27.4,24.5,31.2,30.2c3.8,5.7,1.5,7.8-0.2,8.9c-1.7,1.1-3.8,1.7-3.8,1.7s1.9,1.7,0.4,5.7
			c-1.5,4-11.2,4.9-11.2,4.9l0.2-4.2c0,0-4.6,4.6-17.7,1.1c-13.1-3.6-17.7-5.5-17.7-5.5L159.7,236z"/>
		<path class="st9" d="M226.7,365.3c0,0-3.3,0.5-5.3-0.7c-2-1.2-14.5-13.9-14.5-13.9s10.9-12.4,12.5-13.4c1.6-1,19-1.3,19.8-1.5
			c0.8-0.2,12.7-5.3,14.2-4.5c1.5,0.8,0.3,4.3-0.8,5.6c-1.2,1.3-11.1,4-11.1,4l5.3,9.7l-15.8,8.6L226.7,365.3z"/>
		<path class="st3" d="M339.4,345.9l-57.2-10.1c0,0-9-3.5-11.4-2.9c-2.4,0.5-25.5,4-26.3,4.3c-0.8,0.3-17.8,12.8-18.4,14.1
			c-0.5,1.3-0.3,4,1.9,2.9c2.1-1.1,16.5-7.5,16.5-7.5l17-0.8c0,0,6.1,1.9,13,3.7c6.9,1.9,14.9,0.3,14.9,0.3l45.2,17.6L339.4,345.9z"
			/>
		<g>
			<g>
				<polygon class="st13" points="219.9,333.6 215.5,340.3 173.5,311.2 177,305.8 				"/>
				<path class="st11" d="M172.5,306.8c0,0-4.9-4-10.3-0.7c-10.1,6.2-10.9,34.9-11.5,52.7c-0.6,17.8-4.4,48.2-4.4,48.2l-4.1,35.9"/>
				<path class="st14" d="M173.5,311.2c0,0-1.7-3.1-0.9-4.4c0.8-1.2,4.5-1,4.5-1L173.5,311.2z"/>
				<polygon class="st13" points="215.5,340.3 223,342.2 225.1,339.1 219.9,333.6 				"/>
				<line class="st15" x1="224.3" y1="340.7" x2="228" y2="343.2"/>
				<path class="st16" d="M228.4,341.9l-1.4,2.2l3,1.5c0.8,0.2,1.4-0.7,0.9-1.4L228.4,341.9z"/>
			</g>
			<path class="st3" d="M75.1,323c0,0-13.3,52.6-11.8,54c1.5,1.5,3.6,1.5,4.5,1.4s28.6,7.3,92.3-5.9c13.3-2.8,22.3-1.7,30-5.5
				c7.7-3.7,16.1-13.6,16.1-13.6s10.7,0.3,14.7-1.1c4-1.4,6.2-2.3,4.5-3.7c-1.7-1.4-6.8-0.8-6.8-0.8s1.7-4.4,0.7-5.8s-1-1.5-1-1.5
				s2.4-4.3,1.6-6.9c-0.8-2.6-3.2-3.3-3.2-3.3s1-7-2.1-7.9c-3.1-1-19.2,2.1-20.1,2.9c-0.9,0.9-14.1,24.9-15.3,26.1
				c-1.2,1.1-23.4,2-23.4,2l-50.9-3.1l4.9-18.9L75.1,323z"/>
			<line class="st11" x1="104.9" y1="350.4" x2="92.3" y2="349.6"/>
		</g>
		<path class="st9" d="M225.3,348.6c-1.7-1.4-6.8-0.8-6.8-0.8s1.7-4.4,0.7-5.8c-1-1.5-1-1.5-1-1.5s2.4-4.3,1.6-6.9
			c-0.8-2.6-3.2-3.3-3.2-3.3s1-7-2.1-7.9c-3.1-1-19.2,2.1-20.1,2.9c-0.9,0.9-14.1,24.9-15.3,26.1c-0.7,0.7-9.6,1.3-16.2,1.7
			l2.6,18.4c10.3-1.6,17.9-1.3,24.4-4.5c7.7-3.7,16.1-13.6,16.1-13.6s10.7,0.3,14.7-1.1C224.8,350.9,227,350,225.3,348.6z"/>
		<line class="st11" x1="172.7" y1="366.9" x2="173.1" y2="369.9"/>
		<line class="st11" x1="170.7" y1="353" x2="172.1" y2="362.7"/>
		<path class="st11" d="M179.6,353.4c0,0,0,2.8,1.7,5.4"/>
		<line class="st11" x1="216.6" y1="330.4" x2="202.1" y2="330.6"/>
		<line class="st11" x1="218.3" y1="340.5" x2="208.3" y2="339.7"/>
		<line class="st11" x1="218.5" y1="347.8" x2="209.4" y2="348"/>
		<g>
			<path class="st3" d="M218.5,233.7c0,0-1.5,10.8-3.8,14.6l0,0c-1.4,2.4-3.4,4.4-5.6,5.9c-2,1.3-4.2,3-4.7,4
				c-0.8,1.9-0.2,9.3-1.1,11s-3.6,2.5-5.5,2.3c-1.9-0.2-3.6-1.7-3.6-1.7s-15.4,9.1-19.8,10.3c-4.4,1.3-7-2.1-9.3-4.4
				c-2.3-2.3-7.6-16.9-7.4-20.5c0.2-3.6,2.3-12,2.3-12s-2.5-6.5-2.1-10.8c0.4-4.2,5.3-10.8,10.3-9.7c5.1,1.1,5.5,5.5,5.1,7.4
				S173,232,173,232s0,0.8,3,0.2c3-0.6,4.2-1.5,4.2-1.5l3-1.3c0,0,10.1,4.4,19.2,5.5C211.4,236,218.5,233.7,218.5,233.7z"/>
			<path class="st11" d="M183.4,264.6c0,0,0.3,4.9,3.6,6"/>
			<path class="st17" d="M201.6,256.1c-1,1.4-2.6,2-3.5,1.3c-0.9-0.7-0.8-2.4,0.2-3.8c1-1.4,2.6-2,3.5-1.3
				C202.7,253,202.6,254.7,201.6,256.1z"/>
			<path class="st11" d="M206.9,252c0,0,1.4-6.6-6-6"/>
		</g>
		<path class="st9" d="M110.1,264.5c0,0-16.3,4.8-20.2,12.6c-3.9,7.8-17.2,45.5-17.2,45.5l39.1,10.1c0,0,12.9-30.7,12.8-40.5
			c0-1.8,0-3.4,0-4.8"/>
		<path class="st9" d="M224.4,360.8c0,0,5.2-13.1,6.9-11.1c1.7,2-0.9,13-2.5,14.4c-1.6,1.4-3.7,1.9-5,0.9c-1.2-0.9-1.2-2.7-1.2-2.7"
			/>
		<path class="st9" d="M230.2,362.2c0,0,4.2,0.5,5.6-2.8c1.4-3.3,4.7-14.2,3.4-14.8c-1.2-0.6-4.1,1.7-5.5,4.8
			C232.4,352.5,230.2,362.2,230.2,362.2z"/>
		<path class="st9" d="M235.8,359.4c0,0,5.5-0.6,6.6-1.9c1.1-1.2,3.6-11.7,2.8-13.7c-0.8-2-3-0.9-3.6,0.8
			c-0.6,1.7-3.4,11.1-3.7,11.5S235.8,359.4,235.8,359.4z"/>
		<path class="st9" d="M243.3,356.1c0,0,4.1-0.9,5.5-2.8c1.4-1.9,1.4-11.2,0.5-13.4c-0.9-2.2-4.2,0.9-4.1,3.9
			S244.2,354.7,243.3,356.1z"/>
		<g>
			<path class="st14" d="M364.3,395.2c0,0-68.9,17.4-75.4,27.7c-6.5,10.3-2.7,20.3-2.7,20.3h164.1c0,0,10.3-15.9,7.9-31.2
				c-2.5-15.3-5.8-17.8-5.8-17.8L364.3,395.2z"/>
			<path class="st18" d="M414.9,408.6c0,0,16.8,11.3,19.6,25.7"/>
			<path class="st18" d="M425.9,413c0,0,10.3,6.5,12.4,17.5"/>
		</g>
		<path class="st3" d="M339.1,175.1c0,0-3,18.6-1.2,21.9c1.8,3.3,3.4,7.1,3,9.8c-0.4,2.7-5.3,10.3-2.9,13.6c2.4,3.3,6,2.5,6,2.5
			s11.4,17.1,14,17.3c2.5,0.2,16.6-7.3,16.6-7.3s5.7,4.1,8.3,10.8c2.6,6.6-1.7,11.4-3.3,16.7c-1.6,5.3-17.9,44.1-17.3,48.9
			c0.5,4.8,3.7,13.5,7.1,22c3.4,8.5,5,28.3,5,28.3l-0.9,25c0,0-7.6-0.5-8.1,1.9c-0.5,2.5-0.9,7.6-0.9,7.6s28.7,7.3,39,9
			c10.3,1.8,27.6,4.6,35.1,0.9c7.4-3.7,17.4-8.5,17.4-8.5s1.1-2.5,1.4-7.6c0.4-5.1-7.1-15.9-8.5-19.8c-1.4-3.9-2.7-12.4-2.7-12.4
			s-8.7-74.6-12.6-86.6c-3.9-12-7.5-19.1-13.4-26.3c-4.4-5.3-7.5-8.7-7.5-8.7s-11-16.3-12.6-20.7c-1.6-4.4,4-13.4-2.6-25
			c-6.6-11.7-36.2-19.7-45-19.9C343.6,168.3,340.9,172.2,339.1,175.1z"/>
		<g>
			<g>
				<path class="st12" d="M382.5,212.4c-2.8,0-5.1,4.8-5.1,10.7c0,5.9,2.3,10.7,5.1,10.7c2.8,0,5.1-4.8,5.1-10.7
					C387.6,217.2,385.3,212.4,382.5,212.4z M382.5,231.1c-2.1,0-3.9-3.6-3.9-8.1c0-4.5,1.7-8.1,3.9-8.1c2.1,0,3.9,3.6,3.9,8.1
					C386.3,227.5,384.6,231.1,382.5,231.1z"/>
			</g>
			<g>
				<path class="st12" d="M382.5,233.7c-2.1,0-3.7,3.5-3.7,7.7s1.7,7.7,3.7,7.7c2.1,0,3.7-3.5,3.7-7.7S384.5,233.7,382.5,233.7z
					 M382.5,247.3c-1.5,0-2.8-2.6-2.8-5.8c0-3.2,1.3-5.8,2.8-5.8c1.5,0,2.8,2.6,2.8,5.8C385.3,244.7,384,247.3,382.5,247.3z"/>
			</g>
		</g>
		<path class="st10" d="M328.6,165.2c0,0,8.6,18.7,27,27.7c18.4,8.9,23.6,6.5,23.6,6.5s6.1,23.3,4.5,27.4c-1.6,4.1-5,9.1-5,9.1
			s17.9,3.8,26.5,2.4c8.6-1.4,23.1-9.1,24.3-19.5c1.2-10.3-4.7-20.3-8.5-26.4c-3.8-6.1-6.8-10.4-6.8-10.4s-4.8-24.2-17.1-29.6
			c-12.3-5.4-42.2-3.6-52.3,1.4C334.7,158.7,326.5,161.4,328.6,165.2z"/>
		<path class="st11" d="M349.4,224.2c0,0,7.2-0.7,9-6.3"/>
		<path class="st17" d="M347.7,202.6c0.5,1.7,0.3,3.2-0.5,3.5c-0.8,0.3-1.9-0.9-2.4-2.6c-0.5-1.7-0.3-3.2,0.5-3.5
			C346.1,199.8,347.2,200.9,347.7,202.6z"/>
		<path class="st11" d="M341.4,197.7c0,0,0.9-4.4,6.1-2.4"/>
		<g>
			<path class="st19" d="M446,355.8c0,0-8.7-74.6-12.6-86.6c-3.5-10.9-6.8-17.7-11.7-24.2c-2.3-1.8-10-6.7-19.8-1.5
				c-11.7,6.1-18.4,20.8-22.6,28.5c-2.7,5-5.4,7.3-7.3,8.2c-4.8,12.4-10.1,26.5-9.8,29.3c0.5,4.8,3.7,13.5,7.1,22
				c3.4,8.5,5,28.3,5,28.3l-0.9,25c0,0-7.6-0.5-8.1,1.9c-0.5,2.5-0.9,7.6-0.9,7.6s28.7,7.3,39,9c10.3,1.8,27.6,4.6,35.1,0.9
				c7.4-3.7,17.4-8.5,17.4-8.5s1.1-2.5,1.4-7.6c0.4-5.1-7.1-15.9-8.5-19.8C447.2,364.3,446,355.8,446,355.8z"/>
			<path class="st19" d="M401.2,388.6c5.1,0,16.8-6.2,16.8-6.2"/>
			<path class="st19" d="M376.1,383.8c0,0,14.1,3.4,21.6,4.5"/>
			<path class="st19" d="M425.1,391.7c-2.1,1.5-4.3,2.7-6.4,3.5"/>
			<path class="st19" d="M444.4,373.2c0,0-7.2,8.9-15.5,15.7"/>
		</g>
		<g>
			<g>
				<path class="st19" d="M393.9,258.8c0,0-11.7,10.9-14.1,26.1c-2.4,15.2-10.6,62.8-10.6,62.8s-28.7-2.7-29.8-1.9
					c-5.1,3.7-6.4,18.1-4.8,21.6c1.6,3.5,6.4,4.8,8,4.5c1.6-0.3,38.9,8,44.2,7.7c5.3-0.3,8,1.9,12.2-3.2
					c4.3-5.1,20.5-68.9,22.9-81.7c2.4-12.8,1.1-20.2,1.1-20.2"/>
				<path class="st19" d="M345,361.8c-0.4,2.7-0.4,5.7,0.2,8.8"/>
				<path class="st19" d="M350.6,347.5c0,0-3.5,5-5.1,12"/>
				<path class="st19" d="M369.2,347.7c0,0-1.1,10.6,1.6,18.4"/>
			</g>
		</g>
		<path class="st3" d="M372.7,202c0,0,3-6.2,4.8-7.6c1.9-1.4,7.2-1.7,9,0.5c4.6,5.8,2.9,7.9,1.2,12.6c-1.6,4.7-7.6,9.6-10.2,6.8"/>
		<g>
			<rect x="235" y="388.1" class="st20" width="49.9" height="55.1"/>
			<rect x="235" y="388.1" class="st10" width="49.9" height="14"/>
			<rect x="146.4" y="375.8" class="st3" width="227.1" height="13.6"/>
		</g>
		<line class="st11" x1="494.8" y1="443.2" x2="12.8" y2="443.2"/>
	</g>
</g>
</svg>
