<?xml version="1.0" encoding="utf-8"?>
<!-- Generator: Adobe Illustrator 23.1.0, SVG Export Plug-In . SVG Version: 6.00 Build 0)  -->
<svg version="1.1" id="Слой_1" xmlns="http://www.w3.org/2000/svg" xmlns:xlink="http://www.w3.org/1999/xlink" x="0px" y="0px"
	 viewBox="0 0 200 200" style="enable-background:new 0 0 200 200;" xml:space="preserve">
<style type="text/css">
	.st0{fill:#263239;stroke:#263239;stroke-linecap:round;stroke-linejoin:round;stroke-miterlimit:10;}
	.st1{fill:#FFFFFF;stroke:#263239;stroke-linecap:round;stroke-linejoin:round;stroke-miterlimit:10;}
	.st2{fill:#DB6982;stroke:#000000;stroke-miterlimit:10;}
	.st3{fill:none;stroke:#263239;stroke-linecap:round;stroke-linejoin:round;stroke-miterlimit:10;}
	.st4{fill:#263239;}
	.st5{fill:#A6A4A8;stroke:#263239;stroke-linecap:round;stroke-linejoin:round;stroke-miterlimit:10;}
</style>
<path class="st0" d="M124.2,60.6c-4.2-8.3-5.4-12.6-6.9-16.7c-1.5-4.2-0.9-4.8-7-8.8c-6.1-3.9-7.2,0.6-7.2,0.6s-4.2-3.1-7-0.2
	c-2.9,2.9-1.9,5.5-2.8,7.3c-0.9,1.7-0.1,2-7,6.6c-7,4.5-14,6.5-16,11.4c-2,4.9,0.5,7.6,0.5,7.6s-3.3,3.4-9.6,2
	c-6.4-1.4-8.6-4.4-7.6-5.8c0,0-2.6,3.3-1,6.9c1.7,3.6,4.9,3.6,7.9,3.2c0.2,0,0.5-0.1,0.7-0.1c-3.4,1.2-8.1,3.7-9.2,9.2
	c-1.8,8.8,6.5,7.5,6.5,7.5s-4.2-3.2,0.1-7.3c4.2-4.1,14.7,0.8,17.6,3.2c3,2.3,3.7,2.7,3.7,2.7s-5.4-1.5-8.8,1.3
	c-3.3,2.8-3.9,4.5-3.9,4.5s4.5-3.9,7.6-1.5c3.2,2.3,2.3,4.8,12.4,7.2c10.1,2.3,16.5,0.7,16.5,0.7l-3.6,1.9c0,0,8.5,3.2,14.5,0.7
	c6-2.5,9.9-10.5,12-21.3C128.9,72.4,128.4,68.9,124.2,60.6z M76.8,62.7c-1.2,2.4-4.1,4.5-4.1,4.5s-2.2-1.9,0.4-5.9
	c2.6-4,5.4-3.2,5.4-3.2S78,60.3,76.8,62.7z"/>
<path class="st1" d="M82.2,6.8c0,0,0.7-2.8,1.3-4.1C84.1,1.4,84.8,0,84,0c-0.8,0-2.2,2.7-2.4,3.7c-0.3,1-0.9,3-0.9,3s-1.2-1.8-1.9-4
	c-0.6-2.3-1.4-0.2-1.3,0.8S79.4,8,79.4,8l-0.5,1c0,0-0.6,0.1-1.6-1.8C75.9,4.4,75,3.5,75,5.3c0,1.8,2.1,4,2.1,4s-1.5,0.2-2.4-0.5
	c-0.9-0.7-1.1,0-0.6,0.6c0.5,0.6,3,1.9,3,1.9L82.2,6.8z"/>
<path class="st1" d="M76.4,10.6c0,0,0.2-0.5,0.6-1C77.5,9,78.5,8.1,79,7.7c0.5-0.4,1.1-1.5,1.1-1.5s0.2-1.6,0.4-2.8
	c0.3-1.2,1.1-1.6,1.9-1.7c0.8-0.1-0.1,1.5-0.2,2.9c-0.1,1.4,0.3,3.1,0.4,3.9c0,0.8-0.5,1.2-0.7,1.7c-0.3,0.5-3.1,5.6-3.1,5.6
	s0.4,3.4,0.9,6.6c0.5,3.1,2.6,8,3.8,11.6c1.2,3.6,2.5,11.3,2.5,11.3l5.3,11.5l1.1,1c0,0-2.1,6-2.8,8.3c-0.7,2.3-2.5,6.4-2.5,6.4
	s-4.9-12.3-5.7-16.3c-0.8-4-2.2-10.2-2.2-10.2s-3.2-4.4-3.7-10.7c-0.5-6.3-0.9-18.9-0.9-18.9s-1.1-1.1-1.1-2c0-1,1.9-3.3,2.8-3.4"/>
<g>
	<g>
		<path class="st2" d="M93.6,58.8c0,0-1.9-0.5-3.6,2.6s-2.3,10.7-2.3,10.7s-5.1,5.7-5.7,9.4c-0.6,3.7,1.1,9,1.3,11.1
			c0.2,2.1,1,14.2,1,14.2s9.7,3.1,17.2,2.2c7.5-0.8,9.1-4.1,9.1-4.1l-1.3-6.3c0,0,3.3-7.2,6.7-13.5c3.4-6.3,4.1-7.2,4-10.8
			s-0.8-11.3-2.5-12.5C115.7,60.6,93.6,58.8,93.6,58.8z"/>
		<g>
			<path class="st2" d="M94.2,94.4c0.7,0.6,1.6,1.2,2.6,1.8"/>
			<path class="st2" d="M89.4,88.6c0,0,0.7,1.9,3.1,4.3"/>
			<path class="st2" d="M93.2,98c0,0,3.1,2.9,8.9,3.8"/>
			<path class="st2" d="M87.7,72.2c0,0,1.1-6.2,3.8-7.8"/>
		</g>
	</g>
</g>
<g>
	<path class="st1" d="M102.1,38.4c0,0-3.2,0.2-4.2,1c-1,0.9-3.4,2.6-3.3,3.4s-0.2,2.8-0.4,3.2c-0.3,0.4-2,1.8-2,3.6
		c0,1.8-0.3,8.3,0,9.3c0.3,1,0.9,1.7,1.8,1.9c0.9,0.2,2.4,0.2,2.4,0.2s-0.7,4.1-1,5.1c-0.3,1-3.7,5.5-2.8,7s4.1-0.5,7.4-2
		c3.3-1.5,7.1-5,7.1-5s2.8-16.3,3-17.6c0.2-1.3-0.9-6.1-2.3-7.6C106.2,39.3,103.9,38,102.1,38.4z"/>
	<line class="st3" x1="103" y1="45.6" x2="102.4" y2="46.6"/>
	<line class="st3" x1="95.7" y1="45" x2="95.2" y2="46"/>
	<path class="st4" d="M105.2,48.3c0,0-2.2-1.7-3.2-1.8c-1.1-0.1-0.6,0.4-0.4,0.5c0.2,0.1-1.2,0.2-0.5,0.5
		C101.8,47.7,105.2,48.3,105.2,48.3z"/>
	<path class="st4" d="M97.3,46.9c0,0-1.7-1.2-2.5-1.2c-0.7,0-0.3,0.4-0.2,0.5c0.1,0.1-0.8,0.3-0.3,0.5
		C94.8,46.8,97.3,46.9,97.3,46.9z"/>
	<path class="st3" d="M98,44.4c0,0-0.2,1.3-0.3,1.6c-0.1,0.3-3.5,2.8-3.4,3.2c0.1,0.3,1.3,0.9,1.3,0.9"/>
	<path class="st3" d="M94.8,52.4c0,0,1,0.8,2.5,0.8c1.5,0,3.5-1.5,3.5-1.5"/>
	<path class="st3" d="M101.8,43.1c0,0,0.4-0.7,1.5-0.7c1.1,0,3.5,2.2,3.7,2.6"/>
	<path class="st3" d="M97.8,43.4c0,0-0.1-0.6-1.2-0.8C95.5,42.5,95,43,95,43"/>
	<path class="st0" d="M96.3,61c0,0,5.6-0.7,5.1-0.2c-0.6,0.6-6.1,5.3-6.1,5.3L96.3,61z"/>
</g>
<path class="st0" d="M111,47.5c0,0-5.2,6.1-7.6,10.7c-2.3,4.6-3.9,14.2-1.8,16c2,1.8,4.4,1.1,4.4,1.1s-2.6-0.7-2.5-4.3
	c0.1-3.6,2.3-8.5,2.3-8.5s-1.3,6.3,0.9,7c2.2,0.8,7.7-4.8,9.5-6.1s3.5-3.6,3.5-3.6s0.5-9.7-2-11.6"/>
<g>
	<path class="st1" d="M121.5,58.3c0,0-8.3,9-9.4,13c-1.1,4,1.5,7.1,4.2,7.1s12.2-10.7,15.3-17.2c2.3-5,3-5.1,4.9-8.3
		c1.9-3.1,5.8-5.2,8.5-11.2c2.7-6.1,10.8-17.3,10.8-17.3s3.9-2,4.7-2.4c0.8-0.4,5-3.7,6-4.5s2.1-1.7,2.6-1.9
		c0.5-0.3,1.4-1.6,0.9-1.7c-0.5-0.1-2.3,0.3-4.1,0.6c-1.7,0.3-1.7,0.3-1.7,0.3s2.9-1.7,3.7-1.9c0.7-0.3,3-0.9,3.1-1.4
		c0.1-0.5-0.8-0.4-2.1-0.3c-1.3,0.1-3.2,0.8-3.7,1c-0.5,0.2-1.3,0.5-1.3,0.5l3-2.3c0,0,2.1-0.7,2.3-1.3c0.1-0.6-0.6-0.5-1.5-0.2
		c-0.9,0.3-4,1.5-4.5,1.9c-0.5,0.3-4.1,1.9-6,3.4c-2,1.5-3.3,3.3-3.7,4.7c-0.5,1.5-4.2,6.6-4.2,6.6s-14,13.9-16.2,16.5
		c-2.2,2.6-9.5,13.6-9.5,13.6L121.5,58.3z"/>
	<path class="st1" d="M152.7,21.4c0,0,1.1-5.2,2.1-6.5c1-1.3,4.1-3,4.5-3.5c0.5-0.5,1.7-2.3,2.1-2.1c0.4,0.2-0.3,2.8-0.8,3.8
		c-0.5,1-2.1,2.1-2.1,2.1s-0.1,2.9-0.9,4.1c-0.8,1.2-1.7,1.5-1.7,1.5"/>
	<path class="st3" d="M168.2,15.7c0,0,0.3-0.4-0.5-0.1c-0.9,0.3-3.9,1.5-3.9,1.5"/>
	<line class="st3" x1="163" y1="12.1" x2="163.2" y2="17.6"/>
</g>
<g>
	<path class="st1" d="M99.3,185.4h-9.5c0.3,1.5,1,4.7,1.2,7.8c0.4,4.3,0.4,6.2,0.4,6.2h8.9c0.3-0.2,0.8-9.7-0.9-13.8
		C99.3,185.6,99.3,185.5,99.3,185.4z"/>
	<path class="st1" d="M104.2,185.4c0.7,3.1,2.2,10,2.3,14h8.3c0,0,1.7-6.6,1.1-14H104.2z"/>
</g>
<path class="st0" d="M90.6,188.1l9.8,4.5l-0.5-5.1l5.1,0.8l0.7,3.9l10,1.2c0,0,0.5-5.1,0.3-8H89.7L90.6,188.1z"/>
<path class="st5" d="M108.3,189.4c4.5-0.7,6.2-1.7,8.2-3.1c0.1-5,2.3-9.1,3-12.9c1.3-7,0.7-17.8,0.7-19.7c0-1.9-1-4.9-0.2-7.5
	c0.7-2.6,3-12.8,1.6-19.8c-1.4-7-4.1-10.9-6.3-14.5c-2.2-3.6-4.8-6.9-4.8-6.9l-25.7-0.4l-0.6,2.3c0,0-2,12.8-6.9,20.2
	c-4.9,7.4-17.1,9.4-17.1,9.4s-10.4-1.2-13.1-2.6c-2.8-1.5-3.5-1.8-4.3,0.7c-0.8,2.5-3.1,9.1-0.3,13.9c0,0-4.8,0.7-5,1.7
	c-0.2,1,1.5,9.2,5.5,15.9c4,6.7,11.6,10.3,12.5,9.5c0.8-0.7,6.9-7.4,6.9-7.4s2.5,3.6,8.2,8.6c2.3,2,7.2,4.4,11.3,6.6
	c5,2.7,10.4,4.7,16,5.6C101.4,189.5,105.2,189.9,108.3,189.4z"/>
<path class="st3" d="M97,121.6c-1.8,2.4-4.2,4.9-7.1,7.4c-9.3,7.7-28.9,7.6-28.9,7.6"/>
<path class="st3" d="M102.7,112.2c0,0-1.3,3.3-4.3,7.6"/>
<path class="st3" d="M76.6,142.5c1.2-0.6,2.4-1.2,3.5-1.8c11.9-6.9,15.6-13.8,16.2-15.6"/>
<path class="st3" d="M43.6,148.4c0,0,9.9-0.6,20-4.6"/>
<path class="st0" d="M55.4,175.6c0,0,1.4-1.8-0.5-5.4c-1.9-3.6-3.4-9.5-0.8-10.6c1.6-0.7,3.9,3.2,5.8,5.9c1.1,1.5,2.4,2.6,2.4,2.6
	L55.4,175.6z"/>
<path class="st3" d="M108.5,120.8c0.7-2.4,1-4.3,0.9-5.3"/>
<path class="st3" d="M82.6,151.3c7.8-3.7,14-8.1,17.6-12.7c3.5-4.5,6.2-10.8,7.7-15.7"/>
<path class="st3" d="M54,159.6c0,0,12.6-1.6,23-5.8c1.1-0.4,2.2-0.9,3.2-1.4"/>
<path class="st3" d="M102.3,172.9c2-1.7,5-4.4,8.7-8.6c7.4-8.4,8.1-15,8.1-15"/>
<path class="st3" d="M99.2,175.2c0,0,0.6-0.3,1.7-1.2"/>
<path class="st3" d="M117.8,157.6c0,0-4.4,10.6-9.3,15"/>
<path class="st5" d="M110.5,105l-1.2-6.1c-2.2,1.5-5.8,3.2-11.1,3.9c-6.6,0.9-11.8-0.9-14.5-2.1c0.2,3.3,0.4,6.3,0.4,6.3
	s6.4,3.8,17.2,2.2C108.9,108,110.5,105,110.5,105z"/>
</svg>
