<?xml version="1.0" encoding="utf-8"?>
<!-- Generator: Adobe Illustrator 23.1.0, SVG Export Plug-In . SVG Version: 6.00 Build 0)  -->
<svg version="1.1" id="Слой_1" xmlns="http://www.w3.org/2000/svg" xmlns:xlink="http://www.w3.org/1999/xlink" x="0px" y="0px"
	 viewBox="0 0 200 200" style="enable-background:new 0 0 200 200;" xml:space="preserve">
<style type="text/css">
	.st0{fill:none;stroke:#000000;stroke-width:0.25;stroke-miterlimit:10;}
	.st1{fill:#FFFFFF;stroke:#000000;stroke-width:0.25;stroke-miterlimit:10;}
	.st2{fill:#263239;}
	.st3{fill:#E0E0E0;}
	.st4{opacity:0.6;}
	.st5{fill:#FFFFFF;}
	.st6{fill:#455A64;}
	.st7{fill:#F3986E;}
	.st8{fill:#FFFFFF;stroke:#263239;stroke-width:0.25;stroke-miterlimit:10;}
	.st9{fill:#DB6982;stroke:#000000;stroke-width:0.25;stroke-miterlimit:10;}
</style>
<path class="st0" d="M134.7,179.4H64c-8.7,0-15.8-7.1-15.8-15.8v-35.8c0-8.7,7.1-15.8,15.8-15.8h70.6c8.7,0,15.8,7.1,15.8,15.8v35.8
	C150.5,172.3,143.4,179.4,134.7,179.4z"/>
<g>
	<path class="st1" d="M55.6,43.4c0,0-2.3-9.2-3.9-12.1c-1.7-2.9-5.5-7-6.5-6.3c-1.1,0.7,0.3,2,0.9,3.1l1.6,2l0.5,1.7
		c0,0-2.1,0.2-2,2.1c0,0-1.3-0.1-1.4,1.6c0,0-1.4,0.5-0.9,2.3c0.4,1.7,1.2,2,1.6,1.7c0.2-0.2,0.5-0.8,0.5-0.8s1.8,3.3,2.8,4
		c0.7,0.4,1.3,0.8,1.3,0.8l0.1,2.6c0,0,0.9,1.4,3.3-1C55.8,42.6,55.6,43.4,55.6,43.4z"/>
</g>
<g>
	<g>
		<path class="st1" d="M53.2,36.3c0,0-0.1-0.2-0.3-0.7c-0.2-0.4-0.4-1.1-0.8-1.9c-0.2-0.4-0.4-0.8-0.7-1.2s-0.6-0.8-0.9-1.3
			c-0.3-0.4-0.8-0.9-1.3-0.9c-0.3,0-0.5,0.1-0.6,0.3c-0.1,0.2-0.1,0.5,0,0.8c0.1,0.6,0.4,1.2,0.6,1.8c0.1,0.3,0.3,0.5,0.3,0.9
			c0.1,0.3,0.1,0.6,0.1,0.9c0,0.6-0.1,1.1,0.1,1.6c0.1,0.5,0.4,0.8,0.7,1.1c0.6,0.6,1.2,0.9,1.7,1.1c0.4,0.2,0.7,0.3,0.7,0.3
			s-0.3,0-0.7-0.2s-1.1-0.4-1.8-1c-0.3-0.3-0.6-0.7-0.8-1.2s-0.1-1.1-0.1-1.6c0-0.3,0-0.6-0.1-0.8c-0.1-0.3-0.2-0.5-0.3-0.8
			c-0.2-0.6-0.5-1.2-0.7-1.8c-0.1-0.3-0.1-0.7,0-1c0.1-0.2,0.2-0.3,0.4-0.4s0.3-0.1,0.5-0.1c0.4,0,0.7,0.2,0.9,0.4
			c0.2,0.2,0.4,0.4,0.6,0.7c0.3,0.5,0.7,0.9,0.9,1.3c0.3,0.4,0.5,0.9,0.6,1.3c0.3,0.8,0.6,1.5,0.7,1.9
			C53.1,36.1,53.2,36.3,53.2,36.3z"/>
	</g>
</g>
<g>
	<g>
		<path class="st1" d="M46.3,34c0,0,0.4,0.4,0.8,1.1c0.2,0.4,0.4,0.9,0.5,1.4c0,0.6,0,1.3-0.4,1.9c-0.2,0.3-0.5,0.5-0.9,0.5
			c-0.2,0-0.4-0.1-0.5-0.3c-0.1-0.1-0.2-0.3-0.2-0.4c-0.2-0.5-0.4-1-0.5-1.4c-0.2-0.8-0.3-1.4-0.2-1.4c0,0,0.2,0.5,0.4,1.3
			c0.1,0.4,0.3,0.9,0.6,1.4c0.1,0.2,0.3,0.5,0.5,0.5s0.5-0.2,0.7-0.4c0.4-0.5,0.4-1.1,0.4-1.6c-0.1-0.5-0.3-1-0.4-1.4
			C46.6,34.4,46.3,34,46.3,34z"/>
	</g>
</g>
<g>
	<g>
		<path class="st1" d="M49.4,36.3c0,0,0,0.2-0.1,0.5c-0.1,0.1-0.2,0.3-0.3,0.4c-0.1,0.1-0.2,0.1-0.3,0.2c-0.1,0-0.2,0-0.3,0
			c0,0,0,0-0.1,0c-0.2,0-0.3-0.1-0.4-0.1c-0.1-0.1-0.1-0.2-0.2-0.2c-0.1-0.2-0.2-0.3-0.2-0.5c-0.1-0.3-0.1-0.5-0.1-0.5
			s0.1,0.1,0.3,0.4c0.1,0.1,0.2,0.2,0.3,0.4c0.1,0.1,0.3,0.3,0.3,0.3s0.1,0,0.2,0l0,0l0,0c0,0,0,0.1,0,0l0,0l0,0l0,0l0,0l0,0l0,0
			c0.1,0,0.1-0.1,0.2-0.1c0.1-0.1,0.2-0.2,0.3-0.3C49.3,36.4,49.4,36.2,49.4,36.3z"/>
	</g>
</g>
<g>
	<g>
		<g>
			<g>
				<g>
					<g>
						<g>
							<g>
								<g>
									<g>
										<g>
											<g>
												<g>
													<g>
														<path class="st2" d="M81,161.3l-3.1,16.8l-6.3,12.6c-0.5,0.9,0,2,0.9,2.4l0,0c0.5,0.2,1.1,0.2,1.6-0.1
															c3.1-1.9,14.3-9,14.4-10.3c0.2-1.4,4.4-17.5,4.4-17.5L81,161.3z"/>
													</g>
												</g>
											</g>
										</g>
									</g>
								</g>
							</g>
						</g>
					</g>
				</g>
			</g>
		</g>
		<g>
			<g>
				<g>
					<g>
						<g>
							<g>
								<g>
									<g>
										<g>
											<g>
												<g>
													<g>
														<path class="st3" d="M72.5,193.1l16.3-11.5l-0.1,0.7c-0.1,0.6-0.5,1.2-1,1.5c-1.3,1-5,3.8-13.5,9.2
															C73.7,193.3,73.1,193.4,72.5,193.1L72.5,193.1z"/>
													</g>
												</g>
											</g>
										</g>
									</g>
								</g>
							</g>
						</g>
					</g>
				</g>
			</g>
		</g>
		<g class="st4">
			<g>
				<g>
					<g>
						<g>
							<g>
								<g>
									<g>
										<g>
											<g>
												<g>
													<g>
														<g>
															<path class="st5" d="M86.4,177.3c-0.5,0.2-0.7,0.8-0.6,1.3c0.2,0.6,1.3,0.9,1.7,0.2c0.4-0.6,0-1.5-0.8-1.6
																C86.6,177.2,86.5,177.3,86.4,177.3"/>
														</g>
													</g>
												</g>
											</g>
										</g>
									</g>
								</g>
							</g>
						</g>
					</g>
				</g>
			</g>
		</g>
		<g>
			<g>
				<g>
					<g>
						<g>
							<g>
								<g>
									<g>
										<g>
											<g>
												<g>
													<g>
														<g>
															<path class="st5" d="M78.5,185.8c-0.1,0-0.5-0.8-1.5-1.3s-1.9-0.3-2-0.4c0,0,0.2-0.2,0.6-0.2c0.4-0.1,1,0,1.5,0.3
																c0.6,0.3,1,0.7,1.1,1C78.5,185.5,78.5,185.8,78.5,185.8z"/>
														</g>
													</g>
												</g>
											</g>
										</g>
									</g>
								</g>
							</g>
						</g>
					</g>
				</g>
			</g>
		</g>
		<g>
			<g>
				<g>
					<g>
						<g>
							<g>
								<g>
									<g>
										<g>
											<g>
												<g>
													<g>
														<g>
															<path class="st5" d="M76.7,188.1c-0.1,0.1-0.5-0.6-1.3-1s-1.6-0.4-1.6-0.5s0.8-0.3,1.8,0.2
																C76.4,187.2,76.8,188,76.7,188.1z"/>
														</g>
													</g>
												</g>
											</g>
										</g>
									</g>
								</g>
							</g>
						</g>
					</g>
				</g>
			</g>
		</g>
		<g>
			<g>
				<g>
					<g>
						<g>
							<g>
								<g>
									<g>
										<g>
											<g>
												<g>
													<g>
														<g>
															<path class="st5" d="M81,183.5c-0.1,0.1-0.9-0.8-2.2-1.3c-1.3-0.6-2.5-0.5-2.5-0.6s1.2-0.3,2.7,0.3
																C80.3,182.4,81,183.5,81,183.5z"/>
														</g>
													</g>
												</g>
											</g>
										</g>
									</g>
								</g>
							</g>
						</g>
					</g>
				</g>
			</g>
		</g>
		<g>
			<g>
				<g>
					<g>
						<g>
							<g>
								<g>
									<g>
										<g>
											<g>
												<g>
													<g>
														<g>
															<path class="st5" d="M81.9,180.4c-0.1,0.1-0.9-0.5-2.1-0.8s-2.2-0.2-2.2-0.3s1-0.4,2.3-0.1
																C81.1,179.5,81.9,180.3,81.9,180.4z"/>
														</g>
													</g>
												</g>
											</g>
										</g>
									</g>
								</g>
							</g>
						</g>
					</g>
				</g>
			</g>
		</g>
	</g>
	<g>
		<g>
			<g>
				<g>
					<g>
						<g>
							<g>
								<g>
									<g>
										<g>
											<g>
												<g>
													<g>
														<g>
															<g>
																<g>
																	<g>
																		<path class="st2" d="M87.2,164.8l5.2,12c0,0-10.4,9.3-9.7,11.6l23.5-9.2l-7.3-19L87.2,164.8z"/>
																	</g>
																</g>
															</g>
														</g>
													</g>
												</g>
											</g>
										</g>
									</g>
								</g>
							</g>
						</g>
					</g>
				</g>
			</g>
		</g>
		<g>
			<g>
				<g>
					<g>
						<g>
							<g>
								<g>
									<g>
										<g>
											<g>
												<g>
													<g>
														<g>
															<g>
																<g>
																	<g>
																		<path class="st3" d="M106.2,179.1l-0.7-1.8l-22.4,9.5c0,0-0.9,0.9-0.5,1.6L106.2,179.1z"/>
																	</g>
																</g>
															</g>
														</g>
													</g>
												</g>
											</g>
										</g>
									</g>
								</g>
							</g>
						</g>
					</g>
				</g>
			</g>
		</g>
		<g>
			<g>
				<g>
					<g>
						<g>
							<g>
								<g>
									<g>
										<g>
											<g>
												<g>
													<g>
														<g>
															<g>
																<g>
																	<g>
																		<g>
																			<path class="st5" d="M91.9,176.7c0,0.1,0.6-0.1,1.4,0.1c0.7,0.1,1.2,0.5,1.3,0.4c0.1-0.1-0.3-0.7-1.2-0.8
																				C92.5,176.2,91.9,176.6,91.9,176.7z"/>
																		</g>
																	</g>
																</g>
															</g>
														</g>
													</g>
												</g>
											</g>
										</g>
									</g>
								</g>
							</g>
						</g>
					</g>
				</g>
			</g>
		</g>
		<g>
			<g>
				<g>
					<g>
						<g>
							<g>
								<g>
									<g>
										<g>
											<g>
												<g>
													<g>
														<g>
															<g>
																<g>
																	<g>
																		<g>
																			<path class="st5" d="M89.9,178.7c0,0.1,0.6,0.1,1.2,0.5c0.6,0.3,0.9,0.8,1,0.8s-0.1-0.7-0.8-1.1
																				C90.5,178.4,89.8,178.6,89.9,178.7z"/>
																		</g>
																	</g>
																</g>
															</g>
														</g>
													</g>
												</g>
											</g>
										</g>
									</g>
								</g>
							</g>
						</g>
					</g>
				</g>
			</g>
		</g>
		<g>
			<g>
				<g>
					<g>
						<g>
							<g>
								<g>
									<g>
										<g>
											<g>
												<g>
													<g>
														<g>
															<g>
																<g>
																	<g>
																		<g>
																			<path class="st5" d="M89.6,182.2c0.1,0,0-0.7-0.5-1.2s-1.2-0.6-1.2-0.4c0,0.1,0.5,0.3,0.9,0.8
																				C89.3,181.8,89.5,182.3,89.6,182.2z"/>
																		</g>
																	</g>
																</g>
															</g>
														</g>
													</g>
												</g>
											</g>
										</g>
									</g>
								</g>
							</g>
						</g>
					</g>
				</g>
			</g>
		</g>
	</g>
	<g>
		<path class="st2" d="M124.2,110.4c0,0-1.2,7.6-6.8,9c-5.6,1.5-16.4,8-16.4,8s-0.9,15.4-3.1,23.1S90.7,175,90.7,175l-12.9-2.9
			c0,0,6.9-44.9,8.2-53.3c1.2-8.4,13.1-16,13.1-16l3.3-13.9l15.2-0.5C117.6,88.5,125.4,103.3,124.2,110.4z"/>
	</g>
	<g>
		<path class="st2" d="M86.6,87.4c0.1,0.6-5.1,7.8-5.8,10.2c0,0-14,9.6-11.2,27.2c3.5,21.8,19,47.1,19.1,46.2l13.4-5.6
			c0,0-10.1-37.6-9.8-38c0.3-0.4,7-23.9,7-23.9l3.1-14.6L86.6,87.4z"/>
	</g>
	<g>
		<g>
			<path class="st6" d="M109,98.8c0,0-0.1,0-0.4,0.1c-0.3,0-0.7,0.2-1.2,0.3c-1.1,0.3-2.7,0.9-4.6,1.9c-1,0.5-2,1-3.2,1.6
				c-0.6,0.3-1.1,0.7-1.7,1.1s-1.2,0.9-1.8,1.3c-1.2,1-2.4,2-3.7,3.3c-1.2,1.2-2.5,2.6-3.6,4.2s-2.1,3.4-2.5,5.4
				c-0.1,0.3-0.1,0.5-0.2,0.8c0,0.3-0.1,0.5-0.1,0.8c-0.1,0.5-0.2,1.1-0.2,1.6c-0.2,1.1-0.3,2.2-0.5,3.3c-0.7,4.5-1.4,9.3-2.2,14.4
				c-1.6,10.2-3.3,21.4-5.1,33.2l-0.1-0.2c1,0.2,2,0.5,3.1,0.7c3.3,0.7,6.6,1.5,9.8,2.2l-0.2,0.1c2.6-9,5.2-17.5,7.5-25.4
				c1-4,1.5-7.9,1.9-11.6c0.4-3.7,0.7-7.2,0.9-10.5v-0.1h0.1c4-2.4,7.7-4.4,11.1-5.9c1.7-0.8,3.3-1.4,4.8-1.9
				c0.4-0.1,0.8-0.2,1.1-0.4c0.4-0.1,0.7-0.3,1-0.4c0.6-0.3,1.2-0.8,1.6-1.2c0.9-0.9,1.6-1.9,2-2.8c0.5-0.9,0.8-1.7,1-2.3
				c0.2-0.7,0.4-1.2,0.4-1.5c0.1-0.3,0.1-0.5,0.1-0.5s-0.1,0.7-0.5,2c-0.2,0.7-0.5,1.5-1,2.4s-1.1,1.9-2,2.8c-0.5,0.5-1,0.9-1.7,1.2
				c-0.3,0.2-0.7,0.4-1,0.5c-0.4,0.1-0.7,0.3-1.1,0.4c-1.5,0.5-3.1,1.1-4.8,1.9c-3.4,1.6-7.1,3.6-11.1,5.9l0.1-0.1
				c-0.2,3.3-0.5,6.8-0.9,10.5s-0.9,7.6-1.9,11.6c-2.3,7.9-4.8,16.5-7.5,25.5v0.1h-0.1c-3.2-0.7-6.5-1.4-9.8-2.2
				c-1.1-0.2-2.1-0.5-3.1-0.7h-0.1v-0.1c1.8-11.8,3.5-23,5.1-33.2c0.8-5.1,1.5-9.9,2.2-14.4c0.2-1.1,0.3-2.2,0.5-3.3
				c0.1-0.5,0.2-1.1,0.3-1.6c0-0.3,0.1-0.5,0.1-0.8c0.1-0.3,0.1-0.5,0.2-0.8c0.5-2.1,1.5-3.9,2.6-5.5s2.4-3,3.6-4.2s2.5-2.3,3.7-3.2
				c0.6-0.5,1.2-0.9,1.8-1.3c0.6-0.4,1.1-0.8,1.7-1.1c1.2-0.6,2.2-1.1,3.2-1.6c2-0.9,3.5-1.5,4.6-1.8C108.4,98.8,109,98.8,109,98.8z
				"/>
		</g>
	</g>
	<g>
		<g>
			<path class="st6" d="M90.7,100.3c0-0.1,1.5,0.7,3.2,1.8c1.7,1.1,3,2.2,2.9,2.3c-0.1,0.1-1.4-0.9-3.1-2
				C92.1,101.2,90.6,100.4,90.7,100.3z"/>
		</g>
	</g>
	<g>
		<g>
			<path class="st6" d="M101.4,121.7c0.1,0,0.3,1.4,0.1,3.1c-0.2,1.7-0.7,3.1-0.8,3c-0.1,0,0.3-1.4,0.5-3.1
				C101.4,123.1,101.3,121.7,101.4,121.7z"/>
		</g>
	</g>
</g>
<g>
	<path class="st2" d="M114.6,33.3c1.2-3.7,2.4-7.3,3.6-11l2.7-5c1.9-1.1,5.9,1.3,7.3,3c1.4,1.8,1.6,4.2,1.3,6.4
		c-0.2,1.5-0.7,3,0,4.3c0.7,1.5,2.7,2.2,3.3,3.8c0.4,1,0,2.2-0.6,3.1c-0.7,0.9-1.6,1.5-2.5,2.1c-0.8,0.5-1.7,1.1-2.6,1.3
		c-1,0.2-2.1,0.2-2.8-0.4c0,1.5-1.4,2.7-2.8,2.8c-1.5,0.1-2.9-0.8-3.6-2c-0.7-1.3-0.7-2.8-0.3-4.2c-0.4,0.7-1.5,0.9-2.2,0.4
		s-1-1.3-1.1-2.2C114.1,34.9,114.4,34.1,114.6,33.3z"/>
</g>
<g>
	<g>
		<g>
			<path class="st2" d="M120.4,17.3c-1.8-4.4-5-7.6-9.5-9.1c-2.5-0.8-3.8-0.6-5.7-0.7c-2-0.1-4,0.4-5.5,1.6
				c-1.9,1.4-3.6,3.2-4.6,5.3c-1,2.2-2,4.5-2.5,6.8c-0.5,2.4-0.6,4.9,0.1,7.2l5.6,2.9c3.2,1.1,6.5,2.3,9.9,2.5s7-0.5,9.6-2.7
				C121.3,28,122.2,21.7,120.4,17.3z"/>
		</g>
	</g>
</g>
<g>
	<path class="st1" d="M106.2,9.7l2.1,0.4l6.9,5.6c1.1,0.4,1.7,1.6,1.4,2.8L108.1,43l-12.8,0.5l1.7-6.1c0,0-5.1-2.2-4.5-8.7
		c0.3-3.3,1.8-8.4,3.1-12.5C96.8,12.4,101.6,8.3,106.2,9.7z"/>
</g>
<g>
	<g>
		<g>
			<path class="st7" d="M102.2,30c0.1-0.3,0-0.7-0.2-0.9c-0.3-0.5-1-0.8-1.6-0.6c-0.6,0.2-1.1,0.8-1.2,1.5l0,0c0.2,0.5,0.5,0.9,1,1
				c0.1,0,0.1,0.1,0.2,0.1c0.4,0.1,0.8,0.1,1.1-0.1C101.8,30.8,102.1,30.5,102.2,30z"/>
		</g>
	</g>
</g>
<g>
	<g>
		<g>
			<path class="st2" d="M96,21.9c-0.1,0.4,0.1,0.9,0.6,1c0.4,0.1,0.9-0.1,1-0.5s-0.1-0.9-0.6-1C96.6,21.3,96.2,21.5,96,21.9z"/>
		</g>
	</g>
</g>
<g>
	<g>
		<g>
			<path class="st2" d="M96.4,18.6c0.1,0.1,0.8-0.2,1.7,0.1c0.9,0.2,1.4,0.8,1.5,0.7c0.1,0,0-0.3-0.2-0.5c-0.2-0.3-0.6-0.6-1.2-0.7
				c-0.5-0.1-1.1-0.1-1.4,0.1C96.5,18.4,96.3,18.5,96.4,18.6z"/>
		</g>
	</g>
</g>
<g>
	<g>
		<g>
			<path class="st2" d="M99.8,27c0,0-0.5-0.3-1.4-0.6c-0.2-0.1-0.4-0.2-0.4-0.3c0-0.2,0.1-0.4,0.3-0.6c0.3-0.5,0.7-1,1.1-1.5
				c1.5-2.2,2.7-4,2.6-4.1s-1.4,1.7-2.9,3.8c-0.4,0.5-0.7,1.1-1.1,1.5c-0.1,0.2-0.4,0.5-0.3,0.8c0,0.2,0.2,0.3,0.3,0.4
				c0.1,0.1,0.3,0.1,0.4,0.1C99.2,26.9,99.8,27.1,99.8,27z"/>
		</g>
	</g>
</g>
<g>
	<g>
		<g>
			<path class="st2" d="M102.2,28.3c-0.1,0-0.4,0.9-1.4,1.4s-2,0.1-2,0.2s0.2,0.2,0.6,0.4c0.4,0.1,1.1,0.1,1.7-0.1
				c0.6-0.3,0.9-0.8,1.1-1.2C102.3,28.6,102.3,28.3,102.2,28.3z"/>
		</g>
	</g>
</g>
<g>
	<g>
		<g>
			<path class="st2" d="M97.6,15.7c0.1,0.2,0.8,0.3,1.6,0.5c0.8,0.2,1.4,0.6,1.6,0.5c0.1-0.1,0.1-0.3-0.1-0.6
				c-0.2-0.3-0.6-0.6-1.1-0.8s-1-0.2-1.4-0.1C97.7,15.4,97.6,15.6,97.6,15.7z"/>
		</g>
	</g>
</g>
<g>
	<g>
		<g>
			<path class="st2" d="M105.2,24.4c-0.1,0.4-0.6,0.7-1,0.6s-0.7-0.5-0.6-1c0.1-0.4,0.6-0.7,1-0.6C105.1,23.5,105.3,24,105.2,24.4z"
				/>
		</g>
	</g>
</g>
<g>
	<g>
		<g>
			<path class="st2" d="M108.1,21.9c-0.1,0.1-0.6-0.6-1.5-0.8c-0.9-0.3-1.6,0-1.7-0.1c0-0.1,0.1-0.2,0.5-0.3c0.3-0.1,0.8-0.2,1.4,0
				c0.5,0.2,0.9,0.5,1.1,0.8C108.1,21.6,108.1,21.9,108.1,21.9z"/>
		</g>
	</g>
</g>
<g>
	<g>
		<g>
			<path class="st2" d="M108.4,19c-0.2,0.1-0.8-0.3-1.6-0.5c-0.8-0.3-1.5-0.3-1.6-0.6c0-0.1,0.1-0.3,0.5-0.4
				c0.3-0.1,0.9-0.1,1.4,0.1s1,0.5,1.2,0.8C108.5,18.7,108.5,18.9,108.4,19z"/>
		</g>
	</g>
</g>
<g>
	<g>
		<g>
			<path class="st1" d="M112.3,28.5c0.1-0.5,0.9-1.4,1.4-1.4c1.3,0.1,3.5,0.8,2.7,3.9c-1.1,4.3-5.2,2.4-5.1,2.2
				C111.3,33.2,111.9,30.1,112.3,28.5z"/>
		</g>
	</g>
</g>
<g>
	<g>
		<g>
			<path d="M112.9,32c0,0,0.1,0.1,0.2,0.2c0.1,0.1,0.3,0.2,0.6,0.1c0.5-0.1,1.1-0.7,1.3-1.5c0.1-0.4,0.1-0.8,0.1-1.1
				c-0.1-0.3-0.2-0.6-0.4-0.7c-0.2-0.1-0.4,0-0.5,0.1s-0.1,0.2-0.1,0.2s-0.1-0.1,0-0.3c0-0.1,0.1-0.2,0.2-0.2c0.1-0.1,0.3-0.1,0.4,0
				c0.3,0.1,0.6,0.5,0.6,0.9c0.1,0.4,0.1,0.8,0,1.3c-0.2,0.9-0.9,1.6-1.6,1.6c-0.3,0-0.6-0.1-0.7-0.3C112.8,32.1,112.8,32,112.9,32z
				"/>
		</g>
	</g>
</g>
<g>
	<g>
		<g>
			<path class="st2" d="M113.9,27.2l-1.4,0.8c-3.3-5.9-8.8-19.8-8.5-19c0,0,3.6-0.3,6.9,1.4s9.3,5.4,7.9,9.5
				C117.3,23.8,113.9,27.2,113.9,27.2z"/>
		</g>
	</g>
</g>
<g>
	<g>
		<path class="st6" d="M121.4,17.7c-0.1,0,0.3,0.9,0.6,2.3c0.3,1.4,0.3,3.5-0.4,5.7c-0.7,2.1-2,3.8-3.1,4.8s-1.9,1.4-1.9,1.5
			c0,0,0.2-0.1,0.6-0.3c0.4-0.2,0.9-0.6,1.4-1.1c1.1-1,2.5-2.6,3.2-4.8s0.6-4.3,0.3-5.8c-0.2-0.7-0.4-1.3-0.5-1.7
			C121.5,17.9,121.4,17.7,121.4,17.7z"/>
	</g>
</g>
<g>
	<g>
		<path class="st8" d="M132.3,109.4l6.4,1.7c0,0,5.1-0.4,6,0.5s3.1,3.5,3.1,3.5s1.4,0.4,1,0.8c-0.3,0.4-1.5,0.6-2.4,0.3
			c-0.8-0.2-6.4-2-6.4-2s-0.6,1.6-1.9,1.2s-3.8-1.5-4.6-1.7s-6.2-0.8-6.6-1.2c-0.3-0.4-1.3-6-1.3-6l5.2-1.1L132.3,109.4z"/>
	</g>
	<g>
		<g>
			<path class="st8" d="M141.2,112.4c0-0.1,1.6,0.5,3.4,1.3c1.8,0.8,3.3,1.5,3.3,1.6s-1.6-0.5-3.4-1.3
				C142.6,113.2,141.1,112.5,141.2,112.4z"/>
		</g>
	</g>
	<g>
		<g>
			<path class="st8" d="M134.8,111.7c0-0.1,1.3,0.3,2.8,1c0.7,0.3,1.4,0.7,1.8,1c0.5,0.3,0.6,0.6,0.6,0.6s-0.3-0.2-0.7-0.4
				c-0.5-0.2-1.1-0.6-1.8-0.9C136,112.3,134.8,111.8,134.8,111.7z"/>
		</g>
	</g>
</g>
<g>
	<g>
		<path class="st9" d="M91.5,42.1c0,0-6.8-0.2-10.4,2.2S64.8,56.6,64.8,56.6l-8.5-15.7l-8.1,5c0,0,8.2,22.4,14.3,24.1
			c8,2.2,19.3-8.2,19.3-8.2L91.5,42.1z"/>
	</g>
</g>
<g>
	<polygon class="st1" points="87,42.5 96.4,40.9 108.4,40.4 115.7,42.8 106.3,56.6 93.1,58.5 	"/>
</g>
<g>
	<g>
		<path class="st9" d="M116.8,63c0,0.7-0.4,14.6,1.1,19.1s7.8,25.5,7.8,25.5l7-1l-4.6-29.5c0,0-2-25.1-2.8-27.8
			c-1.4-4.7-5.4-5.3-5.4-5.3L116.8,63z"/>
	</g>
</g>
<g>
	<g>
		<path class="st9" d="M120.7,44.2c-0.5-0.1-9.5-2.9-9.5-2.9s-5.3,9.5-12.7,8.4c-6.3-0.9-6.7-8-6.7-8l-6.3,1
			c-0.6-0.3-6.6,23.1-2.6,28.9c3.3,4.7,3.3,5.9,3.3,5.9c0.9,0-4,13.3-3.2,14.9c7.4,14.2,37.6-0.4,37.6-0.4l-3-17L120.7,44.2z"/>
	</g>
</g>
<g>
	<g>
		<path class="st2" d="M120,52c0,0,0,0.1,0,0.4c0,0.3-0.1,0.7-0.1,1.2c-0.1,1.1-0.3,2.5-0.6,4.3c-0.2,1.8-0.5,4-0.8,6.4
			s-0.5,5-0.6,7.8s0,5.4,0.3,7.8s0.7,4.5,1.2,6.3c0.4,1.8,0.8,3.2,1,4.2c0.1,0.5,0.2,0.9,0.3,1.1c0.1,0.3,0.1,0.4,0.1,0.4
			s-0.1-0.1-0.1-0.4c-0.1-0.3-0.2-0.7-0.3-1.1c-0.3-1-0.7-2.4-1.1-4.2c-0.4-1.8-0.9-3.9-1.2-6.3c-0.3-2.4-0.4-5.1-0.3-7.9
			s0.4-5.5,0.7-7.9c0.3-2.4,0.6-4.6,0.8-6.4c0.3-1.8,0.5-3.3,0.7-4.3c0.1-0.5,0.1-0.9,0.2-1.2C119.9,52.2,120,52,120,52z"/>
	</g>
</g>
<g>
	<g>
		<path class="st2" d="M82.7,54.8c0,0,0,0.3-0.1,0.9c-0.1,0.5-0.2,1.3-0.4,2.3c-0.1,1-0.3,2.1-0.4,3.4c-0.1,1.3-0.1,2.7,0,4.2
			s0.4,2.9,0.8,4.1s0.8,2.3,1.3,3.2c0.9,1.7,1.7,2.7,1.6,2.7c0,0-0.2-0.2-0.5-0.7c-0.2-0.2-0.4-0.5-0.6-0.8s-0.5-0.7-0.7-1.1
			c-0.5-0.9-0.9-2-1.4-3.2c-0.4-1.3-0.7-2.7-0.8-4.2c-0.1-1.5-0.1-3,0-4.3s0.3-2.5,0.4-3.4c0.2-1,0.3-1.8,0.5-2.3
			S82.6,54.8,82.7,54.8z"/>
	</g>
</g>
<g>
	<g>
		<path class="st2" d="M110.4,79.1c0,0-0.1,0.1-0.4,0.1c-0.2,0.1-0.6,0.2-1,0.3c-0.9,0.3-2.2,0.6-3.8,1c-1.6,0.4-3.6,0.9-5.8,1.3
			c-1.1,0.2-2.2,0.4-3.4,0.6c-0.6,0.1-1.2,0.2-1.8,0.3c-0.6,0.1-1.3,0.3-1.9,0.1c-0.3-0.1-0.7-0.4-0.8-0.7c-0.1-0.4,0.1-0.8,0.4-1
			c0.5-0.5,1.1-0.7,1.6-0.9c1.1-0.5,2.2-1,3.2-1.4c2-0.9,3.9-1.6,5.5-2.1s2.9-0.9,3.8-1.1c0.5-0.1,0.8-0.2,1-0.3
			c0.2-0.1,0.4-0.1,0.4-0.1s-0.1,0.1-0.4,0.1c-0.3,0.1-0.6,0.2-1,0.3c-0.9,0.3-2.2,0.7-3.8,1.2c-1.6,0.6-3.4,1.3-5.5,2.1
			c-1,0.4-2.1,0.9-3.2,1.5c-0.5,0.3-1.1,0.5-1.5,0.9c-0.2,0.2-0.3,0.4-0.3,0.7c0,0.3,0.3,0.4,0.5,0.5c0.6,0.2,1.2,0,1.8-0.1
			c0.6-0.1,1.2-0.2,1.8-0.3c1.2-0.2,2.3-0.4,3.4-0.6c2.2-0.4,4.1-0.8,5.8-1.2c1.6-0.4,2.9-0.7,3.9-0.9c0.4-0.1,0.8-0.2,1-0.3
			C110.3,79.2,110.4,79.1,110.4,79.1z"/>
	</g>
</g>
</svg>
