<?xml version="1.0" encoding="utf-8"?>
<!-- Generator: Adobe Illustrator 23.1.0, SVG Export Plug-In . SVG Version: 6.00 Build 0)  -->
<svg version="1.1" id="Слой_1" xmlns="http://www.w3.org/2000/svg" xmlns:xlink="http://www.w3.org/1999/xlink" x="0px" y="0px"
	 viewBox="0 0 200 200" style="enable-background:new 0 0 200 200;" xml:space="preserve">
<style type="text/css">
	.st0{fill:#263239;stroke:#263239;stroke-linecap:round;stroke-linejoin:round;stroke-miterlimit:10;}
	.st1{fill:#DB6982;}
	.st2{fill:#FFFFFF;stroke:#263239;stroke-linecap:round;stroke-linejoin:round;stroke-miterlimit:10;}
	.st3{fill:none;stroke:#263239;stroke-linecap:round;stroke-linejoin:round;stroke-miterlimit:10;}
	.st4{fill:none;stroke:#FFFFFF;stroke-linecap:round;stroke-linejoin:round;stroke-miterlimit:10;}
</style>
<path class="st0" d="M85.8,140.6c0,0-10,0.3-24.6-3.2c-14.6-3.6-26.5-1-28.8,12.9c-2.3,13.9,34.9,28.1,60.8,33.3
	c25.9,5.2,51.8,7.4,64.4,1.9c12.6-5.5,12.3-25.2,7.4-34.3c-4.9-9.1-21-10.4-29.4-9.1C127.3,143.6,85.8,140.6,85.8,140.6z"/>
<path class="st0" d="M151.2,79.8c-1.4-9.3-2.8-18.6-4.2-28c-1.3-8.7-1.8-17.9-4.1-26.4C140,12.8,135.7,6,122.6,3.6
	s-27.7,11.6-27.7,18s4.5,20.6-2.4,43c-2.4,7.7,6.8,8.7,17.9,5.4L151.2,79.8z"/>
<g>
	<g>
		<path class="st1" d="M116,60.4c0,0-16,2.2-23.5,4.1c-7.5,1.9-10.2,4.7-12.9,9.8c-2.7,5.1-6.7,24.2-10.6,32.2
			c-3.9,8-10.9,10.2-12.2,18.7s5.6,11.4,10.7,12.4c5.1,1,11.4,1.2,11.4,1.2s8.3,19.4,24.3,20.9s27.9-9.7,35.2-13.8s7.8-13.6,8-24.5
			c0.2-10.9,6.7-35.5,5-42.3s-4.2-7.9-15.3-13.6C131.4,63.1,122.8,59.9,116,60.4z"/>
		<path class="st1" d="M65.7,111.5c-3.7,4.4-7.9,7.2-8.9,13.6c-0.2,1.4-0.2,2.7,0,3.8c1,1.5,4,5,10,3.3c7.4-2.1,6.6-12.4,2.1-18.8
			C68,112.3,66.9,111.7,65.7,111.5z"/>
	</g>
</g>
<path class="st2" d="M114.9,93.2c6.8-3.1,10.5-8.5,13.6-18.7c1.5-4.8,2.3-8.5,2.8-11.2c-4.6-1.8-10.3-3.3-15.2-2.9
	c0,0-6.9,0.9-13.8,2.1c-0.6,3.6-1.9,13.7-0.3,21.3C103.9,93.2,108.1,96.3,114.9,93.2z"/>
<path class="st3" d="M82.8,128.6c0,0,4.9-12.1,4.9-15.5s-2.2-6.8-3.9-11.2c-1.7-4.4,2.7-11.6,2.7-11.6s2.8-21.1,5.3-24.8"/>
<path class="st2" d="M59.7,104.8l3.6-3.9c0,0,2.3,1.4,7.5,3.2c9.8,3.3,14.3,5.3,14.8,11.2c0,0,6.6-4.1,13.1-3.4s12.4,3.4,14.3,3.6
	c1.9,0.2,1.9,0.2,1.9,0.2l0.5,3.4l-3.6,19.2l-28.4-2.9l-19.4-17L59.7,104.8z"/>
<polygon class="st0" points="58.5,104.1 81.6,123.7 84,119.9 117,119.1 115,140.5 83.7,139 81.6,140.5 64.6,127.9 "/>
<g>
	<path class="st2" d="M138.8,97.5l-0.5,27.7c0,0-14.3,8-22.3,10.2c-8,2.2-12.9,2.2-13.6,2.2c-0.7,0-3.9-5.1-5.6-6.8
		c-1.7-1.7-3.1-1.7-6.2-3.3c-4.3-2.2-6.2-2.5-6-1.6s0.5,1.9,2.7,3.2c2.2,1.2,3.6,2.2,3.6,2.2l0.5,1c0,0-5.3-0.7-7.5-1.2
		c-2.2-0.5-7.8-4.4-7.8-4.4s-2.4-0.1-0.7,2.8c1.7,2.9,3.3,3.1,3.3,3.1s0.5,2.9,2.4,4.6c1.9,1.7,3.4,2.7,3.4,2.7s-4.6-1.2-4.1,0
		s3.4,1.7,7,3.4c3.6,1.7,11.9,1.9,16.5,2.7c4.6,0.7,15.5,1.5,25.2,0.5c9.7-1,24.3-7.5,26.9-9.7s1-26.7,0.2-32.3
		c-0.7-5.6-2.2-16-3.2-20.9s-4.9-11.6-7.3-13.1C143.7,68.9,139.3,73.5,138.8,97.5z"/>
	<g>
		<path class="st2" d="M78.9,132.5c0,0,5.8,3.4,10.1,4.4"/>
		<path class="st2" d="M84.7,139.8c0,0,3.1,1.2,5.7,1.2"/>
		<path class="st2" d="M79.6,134.9c0,0,4.1,3.1,10.1,4.6"/>
	</g>
</g>
<path class="st1" d="M132.3,145.9c9.5-1.8,21.6-7.3,24-9.3c2.7-2.2,1-26.7,0.2-32.3c-0.7-5.6-2.2-16-3.2-20.9s-4.9-11.6-7.3-13.1
	c-2.4-1.5-6.8,3.2-7.3,27.2l-0.5,27.7c0,0-5.6,3.1-11.7,6C129,133.8,133,139.2,132.3,145.9z"/>
<g>
	<path class="st2" d="M107.4,57.5c0,0-2.2,12.6-2.4,20.4c-0.2,7.8,5.6,15.6,13.9,5.6c8.2-10,6.9-26.5,6.9-26.5
		S117.4,61.6,107.4,57.5z"/>
	<path class="st3" d="M108.1,62.9c0,0,0.4,6.7-0.2,10.4"/>
</g>
<g>
	<path class="st2" d="M59.2,122.6c0,0-0.6,1.7,0.4,3.3c1,1.6,6.2,4.7,6.2,3.4c0-1.2-2.6-3-2.7-3.8c-0.1-0.9-0.9-2.1-0.9-2.1
		S60.3,121.1,59.2,122.6z"/>
	<path class="st2" d="M56.7,115.4c0,0-0.2,3.6,0.4,5.3c0.6,1.7,7.1,6.2,8.8,5.3c1.7-0.9-3.5-5.3-4.7-6.7
		C59.9,117.9,56.7,115.4,56.7,115.4z"/>
	<path class="st2" d="M56.7,111c0,0-0.5,3.6,0,5.3c0.5,1.7,6.7,6.7,8.4,5.9c1.7-0.7-3.1-5.5-4.2-7C59.8,113.8,56.7,111,56.7,111z"/>
	<path class="st2" d="M59.7,107c0,0-3.7-2-4.3,0.5c-0.6,2.5,2.2,5,4.8,7.1c2.6,2.1,3.7,1.7,3.7-0.2C63.8,112.4,59.7,107,59.7,107z"
		/>
</g>
<path class="st2" d="M59.3,184c0,0-4.9,2.6-13.9,2.9c-9.1,0.3-16.5-4.5-12.3-8.4c4.2-3.9,10.7-6.1,16.5-5.2s14.6,3.2,14.6,3.2
	L59.3,184z"/>
<path class="st2" d="M60.6,175.9c0.4,0.1,0.9,0.1,1.4,0.1c-3-0.7-8.4-2-12.4-2.7c-5.8-1-12.3,1.3-16.5,5.2c-2.1,2-1.3,4.2,1.3,5.9
	c-0.2-1.8,0.2-4.8,3.9-6.5C43.8,175.3,55.1,175.3,60.6,175.9z"/>
<g>
	<path class="st0" d="M160.6,157.1c0,0-9.7,14.6-19.4,20.4c-9.7,5.8-54,6.5-63.1,6.5c-9.1,0-18.8,0-18.8,0v-6.8
		c0,0,29.8-4.2,46.3-13.6c16.5-9.4,25.2-19.7,38.2-23.9c12.9-4.2,24.3,2.9,23.9,20.4"/>
	<g>
		<path class="st4" d="M154.1,168.3c-5.2,4.9-14.3,11.4-28.3,14"/>
		<path class="st4" d="M160.4,160.4c0,0-0.8,1.6-2.7,4"/>
		<path class="st4" d="M111.4,161.8c0,0-6.3,5.3-15.5,5.8"/>
	</g>
</g>
<path class="st0" d="M53.6,143.3c-0.4,0-0.7-0.1-1.1-0.1"/>
<path class="st2" d="M144.7,185.3c0,0,8.1-2.9,14.9-3.9s12.3,0,14.2,4.2c1.9,4.2,0.6,9.4-6.1,10.7c-6.8,1.3-19.1-1.3-20.4-1.3
	s-3.2-1-3.2-1L144.7,185.3z"/>
<path class="st2" d="M166,181.2c2.1,0.8,6,3,5.2,8c-1,6.8-9.1,6.8-14.6,6.8c-0.4,0-0.8,0.1-1.2,0.2c4.1,0.5,8.8,0.8,12.2,0.2
	c6.8-1.3,8.1-6.5,6.1-10.7C172.6,182.8,169.7,181.5,166,181.2z"/>
<g>
	<path class="st0" d="M49.9,136.1c0,0-11-1.9-18.1,3.6c-7.1,5.5-6.1,11.3,0.6,19.7c6.8,8.4,24.3,23.3,62.1,30.1
		c37.9,6.8,49.5,4.5,49.5,4.5l0.6-8.7c0,0-23.6,1.3-45.3-14.6c-21.2-15.5-30.6-25.7-45.8-27.4"/>
	<path class="st4" d="M49.4,143.5c-1.2,0.1-2.3,0.2-3.5,0.4"/>
	<path class="st4" d="M140,185.1c0,0-22.3-0.5-47.6-19.9c-17.8-13.7-28.4-19.7-36.8-21.3"/>
</g>
<path class="st2" d="M139.8,44c-6,3.1-6.8-3.2-6.7-7c0.1-0.1,0.1-0.1,0.1-0.2c0.4-1.7,0-10.5-5-14c-4.4-3.1-10.3-5.7-15.8-5.7
	c-3.9,0-7.3,2.5-9.3,5.6c-2.5,3.7-2.3,8-2.5,12.3c-0.2,4.3-0.6,9,0.2,13.3c1.1,5.7,6.5,17.8,13,17.8c5.9,0,16.4-8.8,19.9-14
	c0.4-0.1,1.3-0.5,2.2-1.3C137.4,49.8,140,47.9,139.8,44z"/>
<path class="st3" d="M113.9,40.2c0,0-2.7,8.2-2.5,9.2c0.2,1,3.4,0,3.4,0"/>
<path class="st3" d="M111.4,52.8c0,0,3.5,2.7,9.2-1.5"/>
<path class="st3" d="M120,43.1c0,0,1.9,4,8,1.7"/>
<path class="st3" d="M102.6,38.3c0,0,1.1,4,7.3,2.5"/>
<path class="st3" d="M113.4,35.3c0,0-2.2-7.8-9.3-3.8"/>
<ellipse transform="matrix(0.3809 -0.9246 0.9246 0.3809 35.9303 140.9602)" class="st3" cx="123.2" cy="43.7" rx="7.6" ry="7.6"/>
<circle class="st3" cx="105.7" cy="40.2" r="7.6"/>
<line class="st3" x1="130.5" y1="45.2" x2="136.8" y2="44"/>
<line class="st3" x1="98.2" y1="38.3" x2="100.5" y2="36.6"/>
<g>
	<path class="st0" d="M105.7,20.1c0,0,6.8-4.1,9.2-0.2c2.4,3.9,13.3,30,24.9,24.1c11.7-5.8-0.1-25-11.4-31.1
		C117.1,6.8,107.5,12,105.7,20.1z"/>
	<path class="st4" d="M112.4,17.2c0,0-3.8-3.2-6-1.7c-2.2,1.5-2.2,3.3-2.2,3.3"/>
	<path class="st4" d="M140.2,37.2c0.9,0.5,1.8,1,2.8,1.2"/>
	<path class="st4" d="M110.8,9.2c0,0,6.7-7.4,14.1,4.1c4.9,7.5,7.6,15.1,11.3,20"/>
</g>
<path class="st4" d="M121.7,34.2c0,0,5.3-2.9,9.9,1.5"/>
<path class="st3" d="M111.8,108.4c0,0,7.3,9.2,19.4,9.2"/>
</svg>
