<?xml version="1.0" encoding="utf-8"?>
<!-- Generator: Adobe Illustrator 23.1.0, SVG Export Plug-In . SVG Version: 6.00 Build 0)  -->
<svg version="1.1" id="Слой_1" xmlns="http://www.w3.org/2000/svg" xmlns:xlink="http://www.w3.org/1999/xlink" x="0px" y="0px"
	 viewBox="0 0 200 200" style="enable-background:new 0 0 200 200;" xml:space="preserve">
<style type="text/css">
	.st0{fill-rule:evenodd;clip-rule:evenodd;fill:#BF8294;}
	.st1{fill:#BF8294;}
</style>
<g>
	<g>
		<path class="st0" d="M171.3,155.8c0.5,1.2-0.3,2.5-0.7,3.5c-1.3,3.1-2.6,6.2-4.8,8.7c-1.6,1.8-3.1,2.8-5,3.7
			c-1.9,0.9-3.9,1.6-5.8,2.7c-1.5,0.9-3.4,2.5-4.3,3.9c-0.8,1.3-1.4,2.9-2.1,4.3c-1.5,2.8-2.9,5.3-4.7,8c-0.7,0.9-1.8,3.1-3.5,2
			c-0.5-1.7,1.2-2.8,2.1-3.9c1.9-2.4,3.5-4.8,5.3-7.8c0.8-1.3,2-2.9,2.2-4.2c0.5-2.3-0.5-6.5-1.3-8.4c-1-2.7-3.4-5.1-4.4-8.3
			c-0.8-2.5-1.1-5.1-1.1-8.1c0-0.7-0.2-1.9,0.6-2.5c1-0.2,1.1,0.9,1.4,1.5c0.9,1.7,1.9,3.5,3,5.3c1.5,2.4,3.1,4.6,3.1,7.8
			c0,3-0.7,6.3-0.1,9.4c1.7-3.7,2.9-7.8,4.2-12.2c0.4-1.4,1.2-2.9,1.3-4.1c0.1-2-1.9-5.3-2.8-6.8c-1.2-2.2-2.5-4-3.7-6
			c-2,4.1-8.7,1.1-9.4-2.5c-0.5-2.7,1.4-4.5,4.5-3.8c1.2,0.3,2.5,1.4,3.4,2.2c2.4,2.3,4.2,6.1,6,8.7c-1-3.1-2.6-6.1-4.6-9.2
			c-1.9-2.8-4-6-4.1-9.5c-0.1-2.6,0.8-5.2,3-5.3c0.9,0,2.1,0.6,2.7,1.3c2.8,2.9,3.3,10.5-1.1,11.9c3.1,4.4,5.4,9.5,6.7,15.5
			c2-7.1,3.3-15.9,3.6-24.5c-3.5-3.7-7.8-7.3-11.1-11.6c-2.4-3.2-3.3-7.5-3.8-12.7c-0.1-1.5-0.8-3.4,0.5-4.6
			c1.5,0.1,1.9,1.7,2.3,2.7c1.5,3.1,3,6.5,5,9.5c2.6,3.9,5.7,7.6,7.3,12.1c-0.3-3.5,0.2-7.4-0.7-10.4c-0.6-2-2.3-3.3-3.1-5.4
			c-1.4-3.7-0.9-9.1-0.5-14.9c0.1-2,0.1-4.3,1.1-4.4c1.6-0.2,3.7,5,4.2,6.2c1.3,3.1,1.9,7.3,1.3,11.7c-0.3,2.5-1.4,5.1-1.5,7.5
			c-0.1,2,0.6,3.9,0.4,6.1c1.2-2,2.6-4,3.4-6.4c0.8-2.5,0.8-5.4,1.5-7.8c0.7-2.3,1.8-4.2,2.9-6.1c1-1.7,2.2-3.6,3.6-5.4
			c0.8-1.1,3.1-4.7,4.5-4.2c1.4,0.5,0.1,6.2-0.3,8c-1.1,5.7-3.3,8.8-6.6,12c-0.8,0.8-1.6,1.5-2.4,2.2c-0.7,0.7-1.7,1.4-2.3,2.2
			c-0.8,1.1-1.3,2.6-2.1,4.1c-0.4,0.6-0.8,1.3-1.1,1.9c-0.3,0.6-0.9,1.2-1.1,1.9c-0.3,1-0.1,2.5-0.1,3.8c-0.2,8.5-1.5,17.6-3.2,25
			c2-1.9,2.9-5.3,3.8-8.6c0.9-3.2,1.9-6.5,3.3-9.3c2-4.1,4.5-7.1,7.4-11.3c0.6-0.9,1.9-3.6,2.9-3.2c1.2,0.4-0.2,3.9-0.6,5.4
			c-1.5,5.7-1.8,12.4-4,17.3c-1.5,3.4-3.8,5.6-6.1,7.6c-1.2,1-2.5,2.1-3.9,3c-1.2,0.8-2.9,1.8-3.6,3.1c-0.7,1.3-0.8,3.1-1.3,4.7
			c-1.2,4.4-3,9.3-4.5,13.3c0,0.1-0.1,0.1-0.2,0.3c2.9-3.1,4.2-7.1,6.9-10.2c2.3-2.7,5.9-4.3,8.9-6.6
			C169.1,157,169.9,155.6,171.3,155.8z M160.8,111.9c0.1,0.1,0.3,0.8,0.3,0.2c2.6-7.7,0.9-16.4-2.8-21
			C157.9,99,156.6,107.7,160.8,111.9z M167.5,112.9c2.7-2.2,5.1-4.4,7-7.5c2-3.3,2.6-7.5,3.2-12.4c0-0.1,0-0.2-0.1-0.1
			C173.2,98.4,168.5,103.5,167.5,112.9z M151.2,117.2c2.4,3,5.4,5.8,8.1,8.3c0.3,0.3,0.7,1.2,1.1,0.8c-1.4-4.5-4-8-6.5-11.7
			c-2.5-3.7-4.5-7.6-6.5-11.8c0-0.1,0-0.2-0.1-0.1C147.5,108.3,148.4,113.8,151.2,117.2z M166.7,136.4c-2.1,5.1-2.9,11.3-5.6,15.6
			c4-3,7.8-5.7,9.9-11.1c1.8-4.8,2.3-11.5,3.8-17.3C172.4,127.6,168.8,131.5,166.7,136.4z M149.9,167.5c1.2-7.6-3.1-10.4-5.3-15.1
			C144.5,159.1,147.2,163.3,149.9,167.5z M160.6,164.6c-2.1,2.3-3.2,5-5.2,7.9c3.4-1.3,6.5-2.5,8.9-4.9c2.4-2.4,3.7-5.7,5.1-9.3
			c0.1,0,0.2-0.1,0-0.1C166.8,160.6,163,162.1,160.6,164.6z"/>
		<path class="st0" d="M62.1,146.2c1.9-3.5,3.4-10.3,7.3-12.2c2.2-1.1,4.8-0.2,5,2.2c0.4,4.2-5.6,8.4-8.7,4.8
			c-1.2,3-2.6,6.1-3.5,9.7c-0.3,1.2-0.7,2.7-0.6,3.8c0.2,1.2,1.2,2.7,1.8,4.1c1.9,3.8,4.3,8,6.4,11.2c0.3-4.1-2.3-7.2-1.8-12
			c0.3-3.7,2.3-6.2,3.4-9.8c0.3-0.9,0.5-2.9,1.4-2.9c1.1,0,1.3,2.8,1.5,4.8c0.2,2.4,0.2,4.1,0,5.9c-0.5,4-2.6,6.6-2.9,9.5
			c-0.3,2.4-0.1,5.9,0.4,7.6c0.4,1.1,1.8,2.6,2.8,3.8c2.3,2.6,3.8,4.2,6.6,6.6c0.9,0.8,4.6,3.2,2.4,4.2c-1.2,0.5-3-1.6-3.6-2.2
			c-1.8-1.8-4.2-4.6-5.7-6.6c-0.9-1.2-1.4-2.3-2.5-3.5c-1.3-1.5-3.6-3-5.6-3.6c-2.6-0.9-5.8-1.2-8-2.1c-4.8-2-7.4-6.2-10.2-10.6
			c-0.4-0.7-1.3-1.4-0.8-2.4c1.3-0.5,2.3,0.6,3.2,1.1c3,1.6,6.6,2.5,9.4,4.5c3.7,2.6,5.9,6.5,9.2,9.2c-3.1-5.4-6.4-10.6-8.8-16.7
			c-2.3-2.2-5.4-2.9-8-4.3c-2.5-1.4-5.1-3.1-7-5.3c-2.5-3-3.9-7.3-5.5-11.3c-1.1-3-2.4-5.8-3.8-8.8c-0.4-0.8-1.2-2-0.4-2.9
			c0.9-0.1,1.6,0.7,2.1,1.3c3.4,3.8,7.9,7.3,10.9,11.6c3.6,5.1,5.2,11.6,9.8,16c-2.3-5.1-3.9-10.6-5.9-16.7c-0.9-2.9-2-5.3-3.4-7.8
			c-1.4-2.6-2.5-5.3-2.7-8.5c-0.4-5.9,1.2-11.8,2-17.2c0.1-0.9,0.3-1.9,0.4-2.8c0.1-0.8-0.1-1.8,0.7-2.4c1.5,0.3,1.6,2.3,2.1,3.6
			c0.5,1.3,1.2,2.6,1.8,3.9c1.9,4.1,4.3,7.4,3.9,13.6c-0.2,2.7-1,4.9-1.8,7.1c-0.8,2.1-2,4.2-2.4,6.4c-0.3,1.8,0.8,4.7,1.4,6.6
			c1.7,5.4,3.6,10.3,5.7,15.3c0.4-6.3,1.6-11.7,3.8-16.2c-0.8-0.6-1.6-0.7-2.4-1.4c-3.1-3-2.3-11.4,1.5-12c3.4-0.6,4.3,3.6,4.1,7.1
			c-0.2,3-1.5,5.6-2.7,8.3c-1.2,2.9-1.9,6-2.5,8.8C62.1,146.1,62.1,146.1,62.1,146.2z M47.7,116.2c0.1,5.1,2.3,8.5,4.3,12.3
			c1.4-4.5,4-8.2,4.1-13.4c0.1-7.1-4.5-11.7-6.2-17.1C49.6,103.9,47.6,110.2,47.7,116.2z M47.2,144.9c2.5,2.4,5.5,3.8,9,5.5
			c-3.3-3.8-5-9.3-7.8-13.9c-2.9-4.6-7.1-7.9-10.6-11.2C41.4,131.7,42.2,140,47.2,144.9z M69.5,160.6c0.2,1,0.6,1.8,0.7,2.9
			c0.4-0.1,0.5-0.6,0.6-0.8c1.6-4.2,3.2-8.5,2.1-14.4c0-0.1,0-0.2-0.1-0.1C71.7,152.2,68.8,156.1,69.5,160.6z M55.5,166.2
			c2.6,2,5.8,2.6,10.1,3.5c-2.1-2.4-4-5.2-6.7-7c-2.8-1.9-6.3-2.7-9.4-4.5c-0.1,0-0.2,0-0.1,0.1C51.3,161,53,164.2,55.5,166.2z"/>
		<g>
			<g>
				<path class="st0" d="M76.8,41.4c0.1,1.9,0.9,4.2,3.1,4.3c1.7,0.1,2.8-1.5,3.2-3.4c1.6,0,2.8-0.9,3.4-1.8
					c-0.5,2.5-0.7,5.6-1.1,8.8c-0.7,5.4-2.2,11.6,1.3,14.8c0,3.2-0.1,6.9,2.4,7.1c2.7,0.3,3.5-2.9,4.5-5c1.1-0.3,2.3-1.1,2.9-1.4
					c-0.9,2.8-0.9,6.9,0.4,9.2c-0.7,2.2-0.8,5.6,1.4,6c2.3,0.4,3.5-1.7,4.6-3.2c3.7,0,4.6-2.9,6-5.2c2.3,4.9,7.5-1.6,8.4-3.8
					c0.7,0.2,1.4,0,2-0.1c4.8-1.4,7.1-6.3,8.7-10.9c0.9-0.4,1.9-0.8,2.9-1.1c1-0.3,2.4-0.3,2.9-1.1c-0.1-1-2-0.5-2.5-0.3
					c-0.5,0,0.2-0.7,0.4-1c1.2-1.5,2.9-3.4,3.6-5.6c0.3-0.8,0.8-2,0-2.8c-1.4,0.3-1,1.9-1.4,2.8c-1.1,2.8-3.4,5-5.2,7.1
					c-0.3-0.6-0.1-1.1-0.8-1.1c-0.8,0-0.9,1.9-1.1,2.7c-1.3,4.1-4.1,9.5-9,10.4c0.8-1.8,2.3-4.2,1.7-6.4c-0.6-2.1-2.8-2.8-5.7-2.7
					c1.4-4.9,2.9-9.4,5.7-13.3c1.2-1.7,2.8-3.2,4.6-4.9c1.5-1.4,3.4-3.7,5.7-3.8c1.3,0,2.6,0.8,3.9,1.4c1.7,0.8,3.1,1.4,3.9,2.8
					c1.7,3.1,1.5,7.8,0.8,11.3c-0.4,1.8-1,3.3-1.7,4.9c-0.6,1.5-1.5,3-1.9,4.3c0.4,0.2,0.8,0.4,1.1,0.6c0.4-1.3,1.3-2.8,2-4.3
					c1.4-3.1,2.3-6.7,2.1-11.3c-0.2-5.3-1.9-7.7-5.7-9.5c-1.7-0.8-3.4-1.7-5.3-1.4c-1.3,0.2-2.4,1.2-3.4,1.5
					c-1.9-4.5-4.1-10.6-10.6-10.1c-1.3,0.1-1.8,0.6-2.9,1c-0.9-1.6-2.2-3.4-3.5-5.3c-1.9-2.8-4.2-5.8-9.1-5
					c-1.3,0.2-2.2,1.3-3.4,1.3c-0.5-2.6-0.8-5.2-1.7-7.7c-0.8-2.2-2.1-4.8-4.1-5.5c-1.1-0.4-2.3-0.5-3.5-0.4
					c-7.4,0.3-9.4,5.5-10.4,12.2c-0.6,4.5-1.1,9.2-0.8,14.1C76,33,76.5,38.3,76.8,41.4z M80.1,44.5c-2.2-0.2-2.1-3.5-2.4-5.7
					c-0.3-2.4-0.5-5-0.6-7.4c1-1.1,3.1-1.5,4.2-0.7c0.8,0.6,1.2,2.6,1.3,3.9C83,38.4,82.1,43.6,80.1,44.5z M93.4,60.5
					c-0.1,1.5-0.5,3.7-1.3,5.6c-0.5,1.5-1.7,4-2.9,3.9c-0.7-0.1-1.1-1.1-1.3-2c-0.5-3.5,0.4-8.2,0.7-11.3
					C91.9,55,93.8,56.4,93.4,60.5z M101.1,77.1c-0.6,0.8-1.6,1.8-2.9,1.7c-1-2.6,0.1-5.3,0.8-8.4c0.4-1.8,0.9-4.4,2-4.9
					c1.7-0.8,3.8,0.5,4.1,1.5c0.5,2-1.4,6-2.1,7.3C102.4,75.3,101.8,76.4,101.1,77.1z M114.2,59.2c1.6-0.7,3.8,0.5,4.1,1.5
					c0.5,1.7-0.9,4.5-1.8,6.2c-1,1.7-2.3,3.6-3.4,4.5c-0.5,0.5-1.4,1-2.1,0.8c-1.2-0.6-0.7-2.3-0.4-3.5c0.5-2.3,1.3-4.3,2.1-6.7
					C113,61,113.6,59.5,114.2,59.2z M114.3,27.4c2.4-0.8,5.4,0.8,6.7,2.2c1.7,1.9,2.1,4.5,3.6,7.1c-0.5,1-1.6,2.1-2.5,2.9
					c-0.2,0.2-0.7,0.9-0.8,0.4c0.4-0.9,1.4-2,1-3.2c-1.5,0.1-1.5,1.8-2,2.8c-1.4,3.2-3.5,6.2-4.9,9.4c-0.4-0.9,0.2-2.7-1-2.8
					c-1,0.4-0.3,1.4-0.3,2.2c0.1,1.5,0,3.4-0.4,5c-0.3,1-0.8,1.9-1.1,2.9c-0.9,3-1.9,6.1-2.9,9c-1.5,4-2.4,8.5-5.7,10.2
					c0.5-2.4,3.3-5.9,2.2-9.2c-0.7-2.3-5-3.5-6.7-1.4c-0.7,0.9-0.8,2.2-1.1,3.2c-0.2,0.6-0.4,1.2-0.6,1.7c-0.1,0.5,0,1.2-0.6,1.5
					c-0.7-3.8,1-8.3,2.1-12.6c1.6-6.3,3.8-13.9,5.9-19.9c1.2-3.4,2.3-6.5,4.3-8.5C110.8,29.3,112.9,27.9,114.3,27.4z M96.5,19.3
					c1.9-1.3,5.5-2.1,7.8-0.7c1.4,0.8,2.6,2.7,3.6,4.2c1.1,1.6,2,3.3,3.1,4.8c-1.3,1.4-3,2.3-3.9,4.1c-0.4-1.1,0.2-3.3-1.3-3.5
					c-0.9,0.8,0.5,3.6-0.4,4.9c-0.2,0.7-0.3-1-1-0.7c-1,0.9,0.3,2.3,0.3,3.5c0,0.7-0.6,1.9-1,3.1c-2,5.9-3.9,12.5-5.6,18.6
					c-0.8,3-1.3,6.3-4.2,7.3c1.3-4.4,1.7-11-4.2-10.1c-2.9,0.5-2.8,3.7-3.1,7.3c-0.9-1.3-1.1-2.6-1.1-4.5c0-3.3,0.9-7.1,1.4-10.9
					c0.4-3.6,0.8-7.3,1.4-10.9c0.6-3.5,1.8-6.6,3.1-9.2C92.8,23.7,94.4,20.8,96.5,19.3z M78,16.7c0.5-3.3,1.1-6.3,2.5-8.1
					c1.7-2.2,5.1-3.4,8.8-2.8c1.9,0.3,3.5,3.5,4.2,5.7c0.7,2.4,1,4.9,1.5,7.3c-2.4,2.3-4.2,5.3-5.6,8.5c0-0.9,0.6-1.9,1-2.9
					c0.7-2.1,1.3-4.3,1.5-6.9c0.1-1.1,0.6-2.7-0.4-3.5c-1.2,0.2-0.6,1.9-0.7,2.7c-0.2,2.5-1.2,5.1-1.7,7.3c-0.7-0.6-0.3-2.3-1.4-2.4
					c-1.2,0.6,0,1.8,0.1,2.7c0.7,3.5-0.2,7.3-1.1,10.9c-0.6,2.4-1.1,5.3-3.4,5.7c0.6-3.2,1-9.8-1.4-11.3c-1.3-0.8-3.5-0.6-5,0.3
					C76.7,25.4,77.3,21.1,78,16.7z"/>
				<path class="st0" d="M125.8,112.9c0-4.1,1.6-8.4,2.9-12.5c2.6-7.9,5.8-15,6.6-24c-0.4-0.2-0.8-0.4-1.2-0.7
					c-0.5,6.3-2.5,12.1-4.4,17.7c-1,2.9-2,5.9-2.9,9c-1,3.1-2.1,6.2-2.2,9.5c-0.2,3.8,0.4,7.7,0.8,11.3c0.4,3.5,1.3,6.9,2,10.2
					c1.4,6.9,2.5,13.3,3.8,20.4c-1.2,1.1-2.7,1.7-4.3,2.5c-5.5,2.7-12.7,4.6-21.3,4.2c-6.4-0.3-12.1-2.2-16.7-4.3
					c-4.1-15.4-8.4-29.9-15.1-42.4c-1.7-3.2-3.3-6.5-4.9-9.5c-3.4-6.3-6.8-12.2-8-20.7c-0.6-4.1-0.9-8.5-1.1-13.2
					c-0.2-4,0.1-7.7,0-11.2c-0.1-3.5-0.5-6.7-1.1-9.9c-1.2-6.5-0.9-13-0.1-20.3c2.6,1.2,3.5-1.2,3.6-3.6c0.2-3.1-0.1-7.6-0.3-9.7
					v-0.3c0.1-0.1,0.3-0.2,0.3,0c4.1,0.8,5.8,5.5,6.9,10.2c0.8,3.8,1.5,8.2,1.5,11.9c0,1.6-0.2,3.1-0.6,4.5
					c-0.3,1.2-1.2,2.6-0.4,3.6c1.5-0.1,1.1-2.2,1.7-3.2c1,3.5,2.1,7.7,3.2,11.5c0.4,1.3,1.1,2.8,1,3.9c-0.1,0.9-1,1.7-1.4,2.5
					c-0.4,0.7-1.2,1.7-0.7,2.7c1,0.4,1.3-1,1.7-1.7c0.5-0.8,0.9-1.7,1.4-2.2c0.2-0.5,0.7,0.4,1,0.7c0.4,0.4,0.8,0.8,1.1,1.1
					c0.7,0.7,1.5,1.9,2.5,1.7c0.5-1.3-1-2-1.8-2.8c-0.8-0.7-2.1-1.6-2.5-2.5c-0.3-0.6-0.3-1.7-0.6-2.5c-0.2-0.8-0.6-1.7-0.7-2.4
					c-0.4-2.6,0.2-5.8,0.8-8.5c-0.5,0-0.9-0.2-1.2-0.7c-0.4,1.5-0.9,3.3-1,4.6c-2-5-2.1-11.9-3.1-18.2c-0.4-2.9-0.9-6.1-2-8.7
					c-1.3-3.3-3.4-6.5-7.3-6.7c-0.3-1.7-0.4-3.6-2.1-3.5c-1.8,0.1-2.2,4.2-2.4,6.7c-0.2,3.4-0.4,6.4-0.1,9c0.1,0.7,0.4,1.4,0.4,1.8
					c0,0.7-0.2,1.5-0.3,2.2c-0.5,5.3-1.3,10.7-0.4,16.4c0.5,2.9,1.1,5.7,1.4,8.7c0.3,3.2,0.3,6.3,0.3,9.8c0,6.9,0.3,13.3,1.1,19
					c0.8,5.7,2.7,10.5,5,15.1c2.3,4.5,4.8,8.8,7,13.2c2.3,4.5,4.5,9,6.4,13.7c4,9.7,6.5,19.9,9.7,30.8c6.1,3.2,14.3,5.4,23.7,4.8
					c7.2-0.5,14.1-2.9,19-5.7c0.7-0.4,1.7-0.9,2-1.7c-0.8-7-2.3-13.5-3.6-20.3C127.4,127.4,125.8,120.4,125.8,112.9z M59.4,11.9
					c0.2,0,0.2,0.1,0.4,0.1c0.7,2,0.9,5.1,1,8c0.1,2.9,0.3,6.1-1,8c-1.5,0-1.5-1.6-1.5-2.9C58.2,21,58.4,14.8,59.4,11.9z"/>
				<g>
					<g>
						<g>
							<path class="st0" d="M89.2,7.4c0,0.2,0,0.2,0.1,0.3c-0.5,1.1-3,0.6-4.8,0.7c-0.8,0-1.8,0.5-2.1-0.3c0.2-1,1.9-0.9,3.1-1
								C86.9,7.1,88.4,7,89.2,7.4z"/>
							<path class="st0" d="M86.6,9.1c0,0.2,0,0.5,0,0.7c-0.4,0.4-1.9,0.4-2.1-0.1C84.4,8.6,86.1,8.7,86.6,9.1z"/>
						</g>
						<g>
							<path class="st0" d="M102.8,21.1c-0.1,0-0.1,0.2-0.1,0.3c-1.4,0-3.8-0.2-4.1-1.7C99.8,19.4,102.3,19.9,102.8,21.1z"/>
							<path class="st0" d="M102,23.1c-0.5,1.2-2,0-2.9-0.3c-1.1-0.4-2.5-0.5-3.2-1.1c-0.1-0.3,0.1-0.4,0.1-0.6
								C97.7,20.8,101.1,21.8,102,23.1z"/>
						</g>
						<g>
							<path class="st0" d="M118.5,30.2c-0.7,0.4-1.6-0.3-2.2-0.6c-0.6-0.3-1.8-0.4-1.5-1.4c0.1-0.1,0.2-0.1,0.4-0.1
								C116.2,28.4,118.4,28.6,118.5,30.2z"/>
							<path class="st0" d="M117.5,32.3c-0.9,0.6-2-0.4-2.9-0.7c-1-0.4-2.3-0.4-2.9-1.1c-0.1-0.3,0.1-0.4,0.1-0.6
								c0.1,0,0.1-0.1,0.3-0.1c1-0.1,2.2,0.5,3.2,0.8C116.2,31,117.7,31.1,117.5,32.3z"/>
						</g>
						<path class="st0" d="M135,39.8c-0.8,0.8-1.8-0.3-2.7-0.7c-1-0.5-2.1-0.6-2.9-1.1c0-0.2,0-0.5,0-0.7c1.2-0.4,2.6,0.3,3.6,0.8
							C133.9,38.5,135.1,38.9,135,39.8z"/>
						<g>
							<path class="st0" d="M63.3,43c-0.5,0.8-3.8,1.7-4.5,0.6c-0.1-0.7,0.9-0.5,1.7-0.7C61.5,42.6,63,41.6,63.3,43z"/>
							<path class="st0" d="M61.8,45.4c-0.2,0.8-1,0.9-2,1c-0.2-0.2-0.4-0.5-0.3-1C60.1,45.1,61.5,44.5,61.8,45.4z"/>
						</g>
					</g>
					<path class="st0" d="M97.2,90.6c2.7-5.6,6.8-10.1,11.8-13.7c0.6-0.5,1.5-1.3,2.4-0.8c0.1,1.1-1,1.6-1.7,2.1
						c-4.2,3.1-7.8,6.6-10.6,11.6c-0.5,0.8-1.1,1.9-1.1,2.5c-0.1,1.1,1,3.1,1.4,4.5c1.2,3.7,2.5,7.3,3.2,11.3c0.1,0.6,0.6,1.5-0.3,2
						c-1-0.1-1-1.3-1.1-2C98.8,97.8,95,87.4,90.9,78.5c-0.3-0.7-0.6-1.4-1-2.1c-0.3-0.6-0.8-1.1-0.8-1.8c0-0.4,0.2-0.4,0.4-0.6
						c1.1,0.2,1.9,2.4,2.5,3.6C93.9,81.8,95.8,86.5,97.2,90.6z"/>
					<g>
						<path class="st0" d="M102.7,121c0.2,1.3-1.5,1.1-2.5,1.1c-5.5,0.2-9.7-0.8-13.9-2.5c-3.1-1.3-6.1-2.8-7.8-4.9
							c0-0.3,0.2-0.4,0.4-0.6c1.2,0.1,2.6,1.6,3.9,2.4c4.4,2.5,10.2,4.6,17.4,4.3C101,120.8,101.7,120.4,102.7,121z"/>
						<path class="st0" d="M108.7,120.6c-0.2,1-3.4,1.5-3.8,0.6C105.3,120.2,108,119.7,108.7,120.6z"/>
					</g>
				</g>
			</g>
			<g>
				<path class="st0" d="M153.1,70.6c-1.1-1.5-3.3-2.8-5.3-3.9c-6.7-3.8-13.3-7.5-19.9-11.2c-0.1,0.5-0.3,0.9-0.5,1.4
					c6.6,3.7,13.2,7.4,19.8,11.1c3.1,1.8,5.7,3,6,6.7c0.3,4-2.6,7.1-6.9,7c-2.4-0.1-4.7-1.7-6.9-2.9c-6.8-3.9-13.6-7.7-20.3-11.5
					c-0.5,0.2-1.1,0.4-1.8,0.6c7,4,14,7.9,21,11.9c2.1,1.2,4.6,2.9,6.6,3.2c4.4,0.6,7.7-1.6,8.8-4.5C154.9,76,154.4,72.4,153.1,70.6
					z"/>
				<path class="st0" d="M68.9,22.3c0.1,0.6,0.2,1.1,0.2,1.7c2.5,1.4,4.9,2.8,7.4,4.2c-0.1-0.6-0.1-1.1,0-1.7
					C74,25.2,71.4,23.7,68.9,22.3z"/>
				<path class="st0" d="M72,40.5c0.1,0.5,0.2,1,0.3,1.6c4.7,2.6,9.3,5.3,13.9,7.9c0-0.5,0-1,0.1-1.4C81.5,45.8,76.8,43.1,72,40.5z"
					/>
				<path class="st0" d="M57.6,32.2c-3.7-1.9-8.3-4.1-8.4-8.6c0-2.9,2.3-5.4,5-5.9c1.4-0.2,2.6-0.1,3.8,0.3c0-0.1,0-0.1,0-0.2
					c0-0.3,0-0.7,0-1.1c0,0,0,0,0,0c-1.3-0.3-2.7-0.5-4.2-0.2c-3.6,0.6-6.6,4.2-5.7,8.5c0.9,4.3,5.5,6.6,9.3,8.6
					C57.4,33.2,57.5,32.7,57.6,32.2z"/>
			</g>
		</g>
	</g>
	<path class="st1" d="M41.1,85c-0.3,0-0.6-0.2-0.7-0.6c-1.6-11.9-8.5-13.6-8.8-13.7c-0.3-0.1-0.5-0.3-0.5-0.6c0-0.3,0.1-0.6,0.4-0.7
		c8.8-3.8,9-13.3,9-13.7v0c0-0.4,0.3-0.7,0.7-0.7c0.4,0,0.6,0.3,0.7,0.6v0c0,0,0,0,0,0v0c0,0,0,0,0,0l0,0c0,0,0,0,0,0c0,0,0,0,0,0
		c0,0,0,0,0,0c0,0,0,0,0,0c0,0,0,0,0,0c0,0,0,0,0,0c0,0,0,0,0,0c0,10.4,8.5,13.5,8.9,13.6c0.3,0.1,0.4,0.3,0.4,0.6
		c0,0.3-0.1,0.5-0.4,0.6c-8.9,4.3-9,13.6-9,13.7C41.8,84.7,41.5,84.9,41.1,85C41.1,85,41.1,85,41.1,85z M33.4,70
		c2.1,1,5.8,3.8,7.6,10.6C41.9,77.4,44,73,49,70.1c-2.2-1.1-6.4-4-8-9.8C40.1,63.4,38,67.5,33.4,70z"/>
	<path class="st1" d="M155.5,60.2c-0.3,0-0.6-0.2-0.7-0.6c-0.9-6.8-4.9-7.8-5-7.9c-0.3-0.1-0.5-0.3-0.5-0.6c0-0.3,0.1-0.6,0.4-0.7
		c5-2.2,5.1-7.6,5.1-7.8v0c0-0.4,0.3-0.7,0.7-0.7c0.4,0,0.6,0.3,0.7,0.6l0,0c0,0,0,0,0,0c0,0,0,0,0,0v0c0,0,0,0,0,0
		c0,6,4.9,7.7,5.1,7.8c0.3,0.1,0.4,0.3,0.4,0.6c0,0.3-0.1,0.5-0.4,0.6c-5.1,2.4-5.1,7.6-5.1,7.8C156.2,59.8,155.9,60.1,155.5,60.2
		C155.5,60.2,155.5,60.2,155.5,60.2z M151.5,51c1.2,0.7,2.9,2.2,4,5.3c0.6-1.7,1.8-3.7,4.1-5.2c-1.3-0.7-3.2-2.2-4.2-4.9
		C154.8,47.8,153.7,49.7,151.5,51z"/>
	<path class="st1" d="M44.4,49.8c-0.3,0-0.6-0.2-0.7-0.6c-0.5-3.9-2.7-4.5-2.8-4.5c-0.3-0.1-0.5-0.3-0.5-0.6c0-0.3,0.1-0.5,0.4-0.7
		c2.9-1.2,2.9-4.3,2.9-4.4c0-0.4,0.3-0.7,0.7-0.7c0.4,0,0.7,0.3,0.7,0.6c0,0,0,0,0,0c0,0,0,0,0,0c0,0,0,0,0,0c0,0,0,0,0,0
		c0,0,0,0,0,0c0,0,0,0,0,0c0,3.4,2.8,4.4,2.9,4.4c0.3,0.1,0.4,0.3,0.4,0.6c0,0.3-0.1,0.5-0.4,0.6c-2.9,1.4-2.9,4.3-2.9,4.5
		C45.1,49.5,44.8,49.7,44.4,49.8C44.5,49.8,44.4,49.8,44.4,49.8z M42.5,44c0.6,0.5,1.4,1.2,1.9,2.5c0.4-0.8,1-1.7,2-2.4
		c-0.7-0.5-1.5-1.2-2-2.3C44,42.6,43.4,43.4,42.5,44z"/>
</g>
</svg>
